<svg width="120" height="43" viewBox="0 0 120 43" fill="none" xmlns="http://www.w3.org/2000/svg">
<path d="M39.4134 28.0347V15.7377H40.9952L48.5131 25.6402V15.7377H50.0167V28.0347H48.4349L40.9079 18.035V28.0347H39.4043H39.4134ZM62.2645 27.5465C61.2395 27.9253 60.1547 28.1171 59.0619 28.1128C54.6093 28.1128 52.3821 25.9838 52.3821 21.7067C52.3821 17.6641 54.5302 15.6323 58.8365 15.6323C60.0673 15.6323 61.2182 15.8077 62.2727 16.1414V17.5086C61.2182 17.0995 60.1246 16.9032 59.011 16.9032C55.652 16.9032 53.9721 18.5049 53.9721 21.6685C53.9721 25.0866 55.632 26.7865 58.9328 26.7865C59.4601 26.7865 60.0464 26.7083 60.691 26.572V22.4512H62.2727V27.5483L62.2645 27.5465ZM64.8036 23.2884V15.7305H66.3853V23.2884C66.3853 25.652 67.5671 26.8338 69.9307 26.8338C72.2743 26.8338 73.476 25.652 73.476 23.2884V15.7305H75.0578V23.2884C75.0578 26.5111 73.3579 28.1319 69.9398 28.1319C66.5217 28.1319 64.8217 26.5111 64.8217 23.2884H64.8036ZM79.4522 15.7377V26.762H85.9066V28.051H77.8795V15.7377H79.4613H79.4522ZM88.1829 28.0419H86.5229L92.6337 14.126L98.7471 28.051H96.989L95.4072 24.1839H91.3437L91.7737 22.8948H94.8791L92.5746 17.3286L88.1792 28.051L88.1829 28.0419ZM100.448 28.0419V15.7377H105.702C108.046 15.7377 109.218 16.7141 109.218 18.6868C109.218 20.2885 108.065 21.4794 105.781 22.2321L110 28.0319H107.909L104.002 22.5048V21.4894C106.346 21.1185 107.548 20.2203 107.548 18.7749C107.548 17.6422 106.911 17.075 105.595 17.075H102.08V28.0347H100.459L100.448 28.0419Z" fill="#E0EEEE"/>
<path d="M10 12.4576L22.5969 7.9668L35.5265 12.3803L33.4357 29.0398L22.5969 35.0351L11.9336 29.1262L10 12.4576Z" fill="#E0EEEE"/>
<path d="M35.5263 12.3784L22.5967 7.96484V35.0341L33.4364 29.0379L35.5263 12.3784Z" fill="#E0EEEE"/>
<path d="M22.6181 11.129L14.7656 28.5803L17.6955 28.5221L19.2773 24.5768H26.2889L28.0162 28.5612L30.8088 28.6194L22.6254 11.1199L22.6181 11.129ZM22.6363 16.7343L25.2926 22.2814H20.3109L22.6363 16.7361V16.7343Z" fill="black"/>
</svg>
