<svg width="120" height="43" viewBox="0 0 120 43" fill="none" xmlns="http://www.w3.org/2000/svg">
<path d="M14.7833 9.51626C14.263 9.5813 13.8565 9.71138 13.3849 9.93902C12.6207 10.3293 12.0353 10.9146 11.6451 11.6789C11.45 12.0691 11.3524 12.313 11.2711 12.7195C11.2061 12.9959 11.2061 13.4187 11.2061 21.5C11.2061 29.5813 11.2061 30.0041 11.2711 30.2805C11.3524 30.687 11.45 30.9309 11.6451 31.3211C12.0353 32.0854 12.6207 32.6707 13.3849 33.061C13.7752 33.2561 14.0191 33.3537 14.4256 33.435C14.702 33.5 15.1248 33.5 23.2061 33.5C31.2874 33.5 31.7101 33.5 31.9865 33.435C32.393 33.3537 32.637 33.2561 33.0272 33.061C33.7914 32.6707 34.3768 32.0854 34.767 31.3211C34.9622 30.9309 35.0597 30.687 35.141 30.2805C35.2061 30.0041 35.2061 29.5813 35.2061 21.5C35.2061 13.4187 35.2061 12.9959 35.141 12.7195C35.0597 12.313 34.9622 12.0691 34.767 11.6789C34.2142 10.6057 33.2548 9.87398 32.0353 9.56504C31.7914 9.5 31.3524 9.5 23.3361 9.5C18.6857 9.5 14.8483 9.51626 14.7833 9.51626ZM25.5963 14.7846C27.2223 15.0935 28.1817 15.8252 28.5394 17.0447C28.7183 17.6626 28.7345 18.5244 28.5719 19.1098C28.5069 19.3699 28.2955 19.8089 28.1491 20.0203C27.8727 20.4106 27.4012 20.8008 26.9134 21.0447C26.7996 21.1098 26.702 21.1585 26.702 21.1748C26.702 21.1911 26.7833 21.2236 26.8809 21.2398C26.9784 21.2561 27.1735 21.3211 27.3199 21.3862C28.5882 21.8902 29.3199 23.1098 29.3199 24.7846C29.3199 25.7602 29.0109 26.6382 28.4418 27.2398C27.7914 27.939 26.8971 28.3618 25.58 28.6057C25.2874 28.6545 24.8646 28.6707 21.4987 28.6707L17.7264 28.687V14.687L21.5313 14.7032C24.7996 14.7358 25.3524 14.7358 25.5963 14.7846ZM20.1817 18.6382V20.5732L22.4256 20.5569C24.393 20.5406 24.6857 20.5406 24.8483 20.4919C25.3849 20.3293 25.8402 19.9878 26.0353 19.565C26.1817 19.2561 26.2304 19.0447 26.2304 18.5894C26.2304 17.7276 25.9703 17.2236 25.4012 16.9472C24.9134 16.7195 24.9134 16.7195 22.4418 16.7033L20.1817 16.687V18.6382ZM20.1817 24.5244V26.7195L22.6207 26.7033C25.0109 26.687 25.076 26.687 25.3361 26.622C25.7264 26.5081 26.0028 26.3618 26.263 26.0854C26.6857 25.6789 26.8321 25.2236 26.8321 24.5081C26.8321 23.7927 26.6532 23.3374 26.2467 22.9309C25.9703 22.6707 25.7101 22.5406 25.2874 22.4268C25.0109 22.3618 24.9296 22.3455 22.5882 22.3455L20.1817 22.3293V24.5244Z" fill="#E0EEEE"/>
<path d="M43.2876 15.0713C43.3364 15.0551 43.3852 15.0388 43.4339 15.0388C45.2551 15.0388 47.06 15.0388 48.8811 15.0713C49.499 15.0876 50.0681 15.299 50.5721 15.673C51.7266 16.5185 51.8404 18.9087 50.2469 19.7705C50.1656 19.8193 50.0843 19.8518 49.9705 19.9169C50.2795 20.0632 50.5721 20.1608 50.8161 20.3234C51.7754 20.9738 52.1656 22.4209 51.7266 23.6892C51.3526 24.7949 50.4583 25.2665 49.4339 25.5104C49.0925 25.5917 48.7347 25.6242 48.3933 25.6404C46.7022 25.6567 44.9949 25.6404 43.2876 25.6404C43.2876 22.1283 43.2876 18.5998 43.2876 15.0713ZM45.0925 24.0957C46.3608 24.0957 47.5803 24.1283 48.7998 24.0795C49.564 24.0469 50.1169 23.2177 50.0843 22.4047C50.0356 21.5917 49.5478 20.9087 48.7998 20.8762C47.5803 20.8112 46.377 20.8274 45.1575 20.8274C45.1413 20.8274 45.125 20.86 45.0925 20.8762V24.0957ZM45.1087 19.4453C46.2307 19.4453 47.3201 19.4941 48.4095 19.4291C49.2063 19.3803 49.6616 18.7461 49.6291 17.8518C49.5965 17.0713 49.1413 16.5998 48.3282 16.5673C47.3039 16.5348 46.2795 16.551 45.2388 16.551C45.19 16.551 45.1575 16.5673 45.1087 16.5835V19.4453ZM101.304 17.9982H102.816V18.8274C102.979 18.6974 103.19 18.551 103.385 18.3884C104.54 17.3803 107.288 17.4941 108.231 19.5429C109.044 21.299 109.011 23.0713 107.905 24.6974C107.304 25.6079 106.361 25.9331 105.304 25.8681C104.377 25.8193 103.564 25.5266 102.93 24.6486V28.5022H101.304C101.304 24.99 101.304 21.4941 101.304 17.9982ZM102.832 21.8681C102.897 22.2583 102.93 22.6486 103.044 23.0226C103.271 23.8518 103.987 24.4697 104.735 24.5348C105.727 24.5998 106.442 24.2258 106.8 23.3315C107.255 22.1933 107.239 21.0388 106.572 19.9819C105.792 18.7299 103.905 18.8274 103.239 20.1445C102.962 20.6811 102.832 21.2502 102.832 21.8681ZM100.231 24.551C100.231 24.86 100.247 25.1852 100.231 25.5104C100.231 25.5917 100.133 25.7217 100.068 25.7217C99.5965 25.7543 99.125 25.8356 98.6534 25.7868C98.2469 25.738 98.0193 25.3803 97.8892 24.9738C96.9136 25.7868 95.7917 25.9494 94.6047 25.803C93.6128 25.673 92.7835 24.8437 92.7185 23.9169C92.6209 22.6486 93.0925 21.8193 94.2144 21.5104C94.9949 21.299 95.8242 21.2177 96.6209 21.0713C96.816 21.0388 97.0112 21.0063 97.2063 20.9575C97.5803 20.86 97.8404 20.6486 97.8567 20.2258C97.8892 19.7868 97.7103 19.4453 97.3201 19.2827C96.6372 19.0063 95.9217 19.0063 95.2388 19.3315C94.9299 19.4778 94.751 19.7705 94.5884 20.2909H92.9949C92.9949 19.673 93.2063 19.1526 93.6128 18.7136C94.1494 18.1283 94.8486 17.9006 95.5965 17.8356C96.377 17.7543 97.1575 17.7543 97.9217 18.0144C98.9461 18.3722 99.4339 19.0551 99.4339 20.1608C99.4339 21.3315 99.4339 22.5022 99.4339 23.673C99.4177 24.486 99.4177 24.486 100.231 24.551ZM97.7591 21.9169C97.2551 21.9982 96.7998 22.0795 96.3445 22.177C95.873 22.2746 95.3852 22.3722 94.9299 22.5348C94.4908 22.6974 94.3282 23.1201 94.3445 23.5754C94.3608 24.0144 94.6534 24.2583 95.0274 24.3884C95.6778 24.6161 96.3282 24.5835 96.9299 24.2908C97.3689 24.0795 97.7104 23.738 97.7429 23.2177C97.7917 22.7787 97.7591 22.3396 97.7591 21.9169ZM56.7673 17.7705C59.2713 17.738 60.7347 19.6079 60.5721 22.1445C60.5234 23.0226 60.2795 23.8518 59.7104 24.551C59.0925 25.299 58.312 25.7055 57.3526 25.803C56.5559 25.9006 55.7917 25.8356 55.06 25.4941C53.9705 24.99 53.3364 24.112 53.0762 22.925C52.8974 22.112 52.8974 21.3152 53.1087 20.5185C53.564 18.7787 54.8974 17.7868 56.7673 17.7705ZM54.5884 21.8356C54.6534 22.2096 54.686 22.5835 54.7835 22.9575C55.0437 23.8843 55.7591 24.486 56.5721 24.5348C57.5803 24.5835 58.2795 24.1445 58.6697 23.2014C59.0437 22.2583 59.0437 21.3152 58.6372 20.3884C58.0356 19.0226 56.4258 18.6648 55.3852 19.6892C54.7835 20.2421 54.6372 21.0063 54.5884 21.8356ZM65.4339 17.7705C67.6941 17.7705 69.2226 19.3152 69.2551 21.6242C69.2713 22.5998 69.1087 23.5266 68.5559 24.3396C67.7591 25.5104 66.6047 25.9169 65.2713 25.8518C64.7835 25.8356 64.2632 25.7217 63.8079 25.5266C62.7347 25.1039 62.0843 24.2421 61.8079 23.1201C61.564 22.1283 61.5803 21.1364 61.9055 20.1608C62.377 18.6648 63.7266 17.7705 65.4339 17.7705ZM67.5965 21.6242C67.564 21.4128 67.5315 21.0226 67.4177 20.6486C67.1413 19.7055 66.4095 19.1201 65.499 19.0876C64.6372 19.0551 63.8567 19.5591 63.5315 20.4697C63.1412 21.5429 63.1738 22.5998 63.7591 23.5917C64.377 24.6323 65.7754 24.86 66.7022 24.0795C67.4014 23.4941 67.564 22.6811 67.5965 21.6242ZM81.5315 20.1283C81.0112 20.1283 80.5234 20.1283 80.0193 20.1283C79.9543 20.1283 79.8567 20.0632 79.8404 20.0144C79.564 19.2177 78.8973 19.1201 78.2144 19.1201C77.938 19.1201 77.6291 19.1852 77.3689 19.299C76.7998 19.5429 76.751 20.1933 77.2713 20.5022C77.6291 20.7136 78.0681 20.8274 78.4746 20.9575C79.0599 21.1201 79.6616 21.2339 80.2469 21.3965C81.7266 21.8518 82.312 23.364 81.4827 24.6161C81.0925 25.2177 80.4908 25.5429 79.8079 25.7055C78.7998 25.9494 77.7917 25.9656 76.816 25.6079C75.7591 25.2177 75.2063 24.4372 75.125 23.2665H76.7347C77.19 24.486 78.4908 24.9575 79.6941 24.3396C79.9705 24.1933 80.1656 23.9982 80.1819 23.6567C80.1982 23.299 80.0681 22.99 79.7429 22.86C79.1738 22.6486 78.5884 22.5022 78.003 22.3234C77.5152 22.177 77.0274 22.0795 76.5721 21.8843C75.6778 21.5266 75.2876 20.9087 75.2876 19.9494C75.2876 19.1201 75.7591 18.4209 76.6047 18.112C77.7591 17.6892 78.9461 17.6242 80.1006 18.0957C80.8811 18.4047 81.3526 19.0226 81.5478 19.8518C81.5478 19.9169 81.5315 19.9982 81.5315 20.1283ZM72.7998 17.9656H74.2957V19.2014H72.8323C72.816 19.3478 72.816 19.4616 72.816 19.5591C72.816 20.8112 72.816 22.0632 72.816 23.3152C72.816 23.4778 72.8323 23.6567 72.8486 23.8193C72.8811 24.1445 73.0599 24.3396 73.3852 24.3722C73.6778 24.3884 73.9868 24.3722 74.312 24.3722V25.6079C73.6291 25.7868 72.9461 25.7705 72.2795 25.6242C71.499 25.4453 71.19 24.8925 71.1738 23.8681C71.1575 22.4535 71.1738 21.0551 71.1738 19.6404V19.2339H69.938V17.9819H71.1575V15.6892H72.8323C72.7998 16.4372 72.7998 17.1852 72.7998 17.9656ZM86.7185 25.673C86.0843 25.673 85.4664 25.6892 84.8648 25.673C84.2795 25.6404 83.8242 25.2502 83.6941 24.6648C83.6291 24.3234 83.5803 23.9819 83.5803 23.6404C83.564 22.3234 83.5803 20.99 83.5803 19.673V19.2502H82.3445V18.0144H83.564V15.7055H85.2388V17.9819H86.7185V19.2339H85.3039C85.2876 19.3478 85.2713 19.4291 85.2713 19.4941C85.2713 20.8437 85.2713 22.1933 85.2713 23.5429C85.2713 24.2583 85.4664 24.4209 86.1494 24.4209C86.3282 24.4209 86.5234 24.4209 86.7347 24.4209L86.7185 25.673ZM89.499 17.9982V19.299C90.1331 18.1933 91.0274 17.6079 92.3445 17.803V19.4128C91.7266 19.3152 91.125 19.299 90.5884 19.6892C89.8892 20.1933 89.6453 20.9575 89.6291 21.7705C89.5965 23.0388 89.6291 24.3234 89.6291 25.6242H87.9868V17.9819C88.4746 17.9982 88.9624 17.9982 89.499 17.9982Z" fill="#E0EEEE"/>
</svg>
