<svg width="120" height="43" viewBox="0 0 120 43" fill="none" xmlns="http://www.w3.org/2000/svg">
<path d="M77.6352 1.5L74.422 37.4958L59.9786 41.5L45.575 37.5015L42.3652 1.5H77.6352Z" fill="#E0EEEE"/>
<path d="M71.671 35.2037L74.4168 4.4436H60V38.4393L71.671 35.2037Z" fill="#E0EEEE"/>
<path d="M49.7236 17.7961L50.1194 22.2115H60.0003V17.7961H49.7236Z" fill="#161616"/>
<path d="M60 8.85913H59.9848H48.9282L49.3296 13.2746H60V8.85913Z" fill="#161616"/>
<path d="M60 33.8573V29.2634L59.9807 29.2685L55.0632 27.9407L54.7488 24.4192H52.3593H50.3164L50.935 31.352L59.9797 33.8629L60 33.8573Z" fill="#161616"/>
<path d="M65.422 22.2115L64.9095 27.9379L59.9849 29.2671V33.8608L69.0367 31.3521L69.1031 30.6061L70.1407 18.9817L70.2485 17.7961L71.0456 8.85913H59.9849V13.2746H66.2067L65.8049 17.7961H59.9849V22.2115H65.422Z" fill="#161616"/>
</svg>
