<svg width="120" height="43" viewBox="0 0 120 43" fill="none" xmlns="http://www.w3.org/2000/svg">
<path d="M45.6499 13.1077V27.5874L47.5132 27.6016V20.7031H52.0079V18.8825H47.5132V14.9283H53.3592V13.1077H45.6499ZM56.716 16.052C57.3845 16.052 57.9392 15.5115 57.9392 14.8287C57.9392 14.146 57.3987 13.6055 56.716 13.6055C56.0474 13.6055 55.4927 14.146 55.4927 14.8287C55.4927 15.5115 56.0332 16.052 56.716 16.052ZM55.763 17.8726V27.6016H57.6263V17.8726H55.763ZM64.539 17.5881C62.0641 17.5881 60.343 19.679 60.343 22.1682C60.343 24.6573 62.0641 26.7482 64.539 26.7482C65.6769 26.7482 66.6015 26.3215 67.2842 25.5961V26.8905C67.2984 28.4977 66.0183 29.8348 64.3968 29.849C64.3825 29.849 64.3826 29.849 64.3683 29.849C63.7709 29.849 63.1878 29.6214 62.7184 29.2943L61.7796 30.9158C63.9985 32.3524 66.957 31.7123 68.3794 29.4934C68.8772 28.7111 69.1475 27.815 69.1475 26.8905V17.8868H67.2842V18.7545C66.6015 18.0291 65.6769 17.5881 64.539 17.5881ZM62.2063 22.1682C62.2063 20.6178 63.3869 19.4088 64.7524 19.4088C66.1178 19.4088 67.2842 20.632 67.2842 22.1682C67.2842 23.7186 66.1036 24.9134 64.7524 24.9134C63.3869 24.9134 62.2063 23.7043 62.2063 22.1682ZM75.8611 19.4088C74.7516 19.423 73.8556 20.3333 73.8698 21.4428V27.5874H72.0065V17.8584H73.8698V18.7545C74.4387 18.0006 75.3206 17.5739 76.2736 17.5881C77.5822 17.5881 78.5921 18.2282 79.161 19.2239C79.8153 18.214 80.9247 17.6024 82.1195 17.5881C84.2389 17.5881 85.5617 19.295 85.5617 21.4143V27.5874H83.7126V21.4428C83.7126 20.3333 82.8307 19.423 81.7213 19.4088C80.6118 19.423 79.7157 20.3333 79.73 21.4428V27.5874H77.8524V21.4428C77.8524 20.3333 76.9706 19.423 75.8611 19.4088ZM95.4898 18.9678C94.6364 18.0717 93.4416 17.5739 92.2042 17.5881C89.4305 17.5881 87.4677 19.9351 87.4677 22.7229C87.4677 25.525 89.4305 27.8577 92.2042 27.8577C93.4416 27.8577 94.6222 27.3598 95.4898 26.478V27.5874H97.3532V17.8584H95.4898V18.9678ZM89.331 22.7229C89.331 20.8738 90.7533 19.3946 92.4175 19.3946C94.0675 19.4088 95.4898 20.8738 95.4898 22.7229C95.4898 24.572 94.0675 26.037 92.4033 26.037C90.7676 26.0513 89.331 24.5862 89.331 22.7229Z" fill="#E0EEEE"/>
<path d="M30.3047 21.4958C30.3047 19.3794 32.0229 17.6611 34.1394 17.6611C36.2559 17.6611 37.9741 19.3794 37.9741 21.4958C37.9741 23.6123 36.2559 25.3305 34.1394 25.3305C32.0229 25.3305 30.3047 23.6123 30.3047 21.4958Z" fill="#E0EEEE"/>
<path d="M22.647 29.1653C22.647 27.0488 24.3652 25.3306 26.4817 25.3306H30.3164V29.1653C30.3164 31.2817 28.5981 33 26.4817 33C24.3652 33 22.647 31.2817 22.647 29.1653Z" fill="#E0EEEE"/>
<path d="M30.3047 10.0114V17.6694H34.1394C36.2559 17.6694 37.9741 15.9512 37.9741 13.8347C37.9741 11.7182 36.2559 10 34.1394 10H30.3047V10.0114Z" fill="#E0EEEE"/>
<path d="M22.647 13.8439C22.647 15.9604 24.3652 17.6786 26.4817 17.6786H30.3164V10.0206H26.4817C24.3652 10.0092 22.647 11.7274 22.647 13.8439Z" fill="#E0EEEE"/>
<path d="M22.647 21.505C22.647 23.6215 24.3652 25.3397 26.4817 25.3397H30.3164V17.6817H26.4817C24.3652 17.6703 22.647 19.3885 22.647 21.505Z" fill="#E0EEEE"/>
</svg>
