<svg width="120" height="43" viewBox="0 0 120 43" fill="none" xmlns="http://www.w3.org/2000/svg">
<path d="M54.3853 19.5842L53.8888 21.3428L54.3853 19.5836V19.5842Z" fill="#E0EEEE"/>
<path d="M68.9725 15.5581H66.6986C66.5721 15.5581 66.447 15.659 66.4201 15.7828L64.8054 23.2553C64.7785 23.3784 64.6534 23.4793 64.5276 23.4793H62.9176C61.3245 23.4793 61.5088 22.378 61.8412 20.8689L61.8513 20.8232L62.0444 19.7939L62.1278 19.37L62.8625 15.7828C62.888 15.659 62.8053 15.5574 62.6788 15.5574H60.3443C60.2799 15.5596 60.2181 15.5828 60.168 15.6233C60.118 15.6639 60.0826 15.7196 60.0671 15.7821L59.0021 20.77C58.4235 23.41 58.5769 25.9275 61.7201 26.0062H66.7437C66.8701 26.0062 66.9946 25.9053 67.0215 25.7815L69.1488 15.7801C69.1757 15.6563 69.093 15.5554 68.9672 15.5554L68.9725 15.5581ZM78.0415 23.5055C78.1679 23.5055 78.2433 23.6064 78.2251 23.7302L78.0044 24.81" fill="#E0EEEE"/>
<path d="M71.9641 22.1124C71.9621 21.994 72.0967 21.7908 72.2231 21.7908L71.9392 21.7861C71.8047 23.0738 71.9641 22.1124 71.9641 22.1124ZM78.0412 23.5098C78.1677 23.5098 78.2431 23.6107 78.2249 23.7345L77.974 24.9831" fill="#E0EEEE"/>
<path d="M77.7834 25.8897L77.9684 24.9855L77.7834 25.8904V25.8897ZM40.3741 22.141L40.7273 20.5748L40.3236 22.3644L40.2765 22.5891L40.3748 22.1397L40.3741 22.141ZM44.6044 15.5311H42.1065C42.0419 15.5336 41.9799 15.5567 41.9294 15.597C41.8789 15.6373 41.8427 15.6927 41.8259 15.7551L41.3523 17.8407C41.3443 17.8677 41.343 17.8962 41.3484 17.9238C41.3538 17.9514 41.3658 17.9773 41.3834 17.9993C41.401 18.0213 41.4236 18.0387 41.4493 18.0501C41.475 18.0615 41.5032 18.0665 41.5312 18.0647H44.0487C44.1752 18.0647 44.3004 17.9638 44.3273 17.8407L44.7847 15.7504C44.8117 15.6273 44.7309 15.5264 44.6031 15.5264L44.6044 15.5311ZM36.8098 30.2391L38.8698 30.2553C38.2616 30.2553 37.2571 30.2438 36.8091 30.2385L36.8098 30.2391Z" fill="#E0EEEE"/>
<path d="M43.887 18.7803H41.3756C41.311 18.7828 41.249 18.8059 41.1985 18.8462C41.148 18.8865 41.1118 18.9419 41.095 19.0043L40.3886 22.1367L40.2904 22.5861L39.6176 25.7838C39.5843 25.933 39.5439 26.0805 39.4965 26.2258C39.4965 26.2258 39.0256 27.6252 38.2358 27.6097L37.452 27.5949C37.3877 27.5967 37.3257 27.6189 37.2748 27.6583C37.224 27.6978 37.1871 27.7524 37.1694 27.8142L36.6474 30.0088C36.6391 30.0356 36.6375 30.064 36.6425 30.0916C36.6476 30.1193 36.6592 30.1452 36.6764 30.1674C36.6936 30.1896 36.716 30.2073 36.7415 30.219C36.767 30.2307 36.7949 30.2362 36.8229 30.2348L38.8836 30.2516C40.8589 30.2516 41.8997 29.157 42.5677 26.0085L44.0814 19.0117C44.1083 18.8886 44.0263 18.7877 43.8998 18.7877L43.887 18.7803ZM79.6514 26.0038C79.5249 26.0038 79.4495 25.9029 79.4697 25.7791L81.3649 16.908" fill="#E0EEEE"/>
<path d="M79.4982 25.8941C79.4827 25.8322 79.4915 25.6808 79.5184 25.5577L80.4172 21.3461L79.47 25.7817C79.443 25.9055 79.5251 26.0064 79.6516 26.0064H79.8817C79.7552 26.0064 79.513 25.956 79.4982 25.8941ZM82.1355 25.956C82.0668 25.9829 81.9067 26.0064 81.7802 26.0064H82.0103C82.0745 26.0039 82.1362 25.9805 82.1859 25.9399C82.2357 25.8992 82.2709 25.8434 82.2862 25.781L82.3319 25.5563C82.307 25.6801 82.1974 25.9284 82.1301 25.956H82.1355ZM90.1414 17.5046L90.2457 17.9352C90.2746 18.0583 90.1946 18.1586 90.0688 18.1592" fill="#E0EEEE"/>
<path d="M83.0063 22.2164L83.0991 21.7697L83.4604 20.0777L83.0514 21.9937L83.0063 22.2164ZM81.395 16.7629L81.3163 17.133L80.4175 21.3445L81.3647 16.9089L81.395 16.7636V16.7629Z" fill="#E0EEEE"/>
<path d="M90.2455 17.935L90.1412 17.5045L89.9865 16.8317C89.782 16.0378 89.1819 15.5783 87.878 15.5783L81.8769 15.5743C81.8126 15.5765 81.7507 15.5996 81.7007 15.6402C81.6507 15.6807 81.6152 15.7365 81.5998 15.799L81.5069 16.2383L81.3724 16.9023L79.5263 25.5494C79.4994 25.6732 79.4906 25.8185 79.5061 25.8858C79.5216 25.9531 79.7638 25.9982 79.8896 25.9982H81.7868C81.9133 25.9982 82.0727 25.9753 82.142 25.9477C82.2113 25.9201 82.3129 25.6786 82.3438 25.5481L83.0637 21.9864L83.834 18.3777C83.8609 18.2546 83.9854 18.1544 84.1112 18.1537L90.0807 18.151C90.2065 18.151 90.2865 18.0501 90.2576 17.927L90.2455 17.935ZM97.9299 14.037L97.4704 14.039H95.5597C95.4897 14.0432 95.4215 14.0623 95.3595 14.095C95.2976 14.1277 95.2433 14.1733 95.2004 14.2288L90.9755 20.4182C90.9041 20.5225 90.8227 20.507 90.7938 20.3846L90.483 19.0209C90.4662 18.9585 90.43 18.9031 90.3795 18.8628C90.329 18.8225 90.267 18.7994 90.2024 18.7969H87.4865C87.36 18.7969 87.2846 18.8957 87.3196 19.0175L88.5306 23.2815C88.5656 23.4026 88.5676 23.6024 88.5373 23.7256L87.9991 25.7889C87.99 25.8154 87.9875 25.8437 87.9921 25.8714C87.9966 25.899 88.008 25.925 88.0252 25.9472C88.0424 25.9693 88.0648 25.9868 88.0904 25.998C88.1161 26.0093 88.1441 26.0139 88.172 26.0116H90.8631C90.9896 26.0116 91.1188 25.9107 91.1497 25.7896L91.6879 23.7262C91.7301 23.5809 91.796 23.4436 91.883 23.3199L98.7426 14.216C98.8186 14.1151 98.7775 14.033 98.6511 14.0343L97.9312 14.039L97.9299 14.037ZM76.3501 19.3774C76.334 19.512 76.2075 19.6129 76.081 19.6129H72.6365C72.5174 19.6129 72.4568 19.5322 72.475 19.4313L72.4777 19.4131L72.4932 19.3546C72.8296 18.48 73.4922 17.9061 74.751 17.9061C76.1685 17.9061 76.445 18.5991 76.3488 19.3774H76.3501ZM75.341 15.4027C70.9209 15.4027 69.8734 18.0857 69.2861 20.7936C68.6981 23.554 68.7492 26.1354 73.3227 26.1354H74.0479L74.6063 26.1334L77.5167 26.1159C77.5806 26.1129 77.6418 26.0894 77.6911 26.0487C77.7405 26.0081 77.7754 25.9526 77.7905 25.8905L78.2326 23.7296C78.2581 23.6058 78.1754 23.5049 78.0489 23.5049H73.9376C72.3028 23.5049 71.8164 23.0703 71.9953 21.7927H78.5683C78.6759 21.7907 78.7735 21.7254 78.8118 21.6231C78.8185 21.605 78.8253 21.5855 78.828 21.566C79.8035 17.8859 79.5236 15.4054 75.343 15.4054L75.341 15.4027ZM54.4475 19.3633L54.3856 19.5833L53.8891 21.3433L53.3926 23.1019C53.372 23.1639 53.333 23.2182 53.2809 23.2576C53.2288 23.297 53.1659 23.3196 53.1006 23.3226H50.4735C48.4807 23.3226 47.9957 21.7638 48.4807 19.4649C48.9651 17.1136 49.9171 15.6517 51.8782 15.5037C54.5585 15.3018 55.094 17.1869 54.4482 19.3626L54.4475 19.3633ZM56.2492 23.188C56.2492 23.188 57.4871 20.1807 57.7696 18.443C58.1531 16.1172 56.9892 12.7446 52.4918 12.7446C48.0199 12.7446 46.0783 15.9645 45.3376 19.4723C44.5975 22.9976 45.5676 26.0897 50.0133 26.0654L56.7988 26.0405C56.8639 26.0374 56.9264 26.0143 56.9778 25.9743C57.0292 25.9344 57.0671 25.8795 57.0861 25.8172L57.658 23.6388C57.6672 23.6124 57.6697 23.5841 57.6653 23.5565C57.6609 23.5289 57.6497 23.5028 57.6326 23.4807C57.6156 23.4585 57.5933 23.4409 57.5678 23.4295C57.5422 23.4181 57.5143 23.4133 57.4864 23.4154H56.3918C56.2842 23.4147 56.2236 23.3454 56.2357 23.2539C56.2377 23.2371 56.2425 23.2203 56.2492 23.2028V23.188Z" fill="#E0EEEE"/>
<path d="M78.3844 21.1746C78.3844 21.258 78.3171 21.3253 78.2337 21.3253C78.1503 21.3253 78.083 21.258 78.083 21.1746C78.083 21.0912 78.1503 21.0239 78.2337 21.0239C78.3171 21.0239 78.3844 21.0912 78.3844 21.1746Z" fill="#E0EEEE"/>
<path d="M22.1054 17.2585C20.8708 19.0333 21.0242 21.3422 21.9674 23.2273L22.0367 23.3619L22.0811 23.4466L22.108 23.4957L22.1572 23.5832L22.2473 23.7379L22.2984 23.8227L22.4027 23.9862L22.4471 24.0548L22.5985 24.2735L22.6281 24.3138L22.766 24.4975L22.8178 24.5634L22.9524 24.7202L23.0008 24.7787L23.1784 24.9819L23.1892 24.9933L23.3695 25.1837L23.4273 25.2422L23.5713 25.3768L23.6305 25.4326L23.8276 25.6123L23.8653 25.6439L24.0449 25.7953L24.1122 25.8545L24.2616 25.9715L24.3423 26.0388L24.5105 26.1599L24.5885 26.2151L24.7513 26.3227L24.822 26.3698L25.0776 26.5259L25.1483 26.5663L25.34 26.6739L25.4463 26.7277L25.5836 26.799L25.6152 26.8145L25.671 26.8414L25.8883 26.9423L25.9341 26.9625L26.1877 27.0675L26.2496 27.0917L26.4884 27.1805L26.5187 27.1913L26.7851 27.2787L26.8497 27.2976L27.1188 27.3756C33.0896 28.4655 34.824 23.787 34.824 23.787C33.3675 25.6843 30.7874 26.1855 28.3318 25.6284C28.239 25.6082 28.1488 25.5786 28.0587 25.5517L27.9914 25.5315C27.9035 25.5045 27.816 25.476 27.729 25.4461L27.6927 25.4326C27.6147 25.4057 27.538 25.3761 27.4606 25.3465L27.3953 25.321C27.3111 25.2877 27.2274 25.253 27.1444 25.2167L27.0946 25.1945L26.8834 25.0963L26.8161 25.0667C26.7609 25.0397 26.7071 25.0115 26.6526 24.9832L26.5436 24.926C26.4777 24.8907 26.4124 24.8541 26.3478 24.8164L26.2819 24.7794C26.1959 24.7286 26.1107 24.6766 26.0262 24.6233C26.0027 24.6085 25.9805 24.5924 25.9576 24.5776L25.776 24.4565C25.7558 24.443 25.737 24.4295 25.7174 24.4161L25.5459 24.2916L25.4699 24.2344L25.3151 24.1133L25.2458 24.0582L25.0527 23.8954C25.046 23.8886 25.0393 23.8839 25.0326 23.8779C24.9639 23.8106 24.8967 23.7554 24.8294 23.6935L24.7722 23.6384L24.6262 23.4957L24.569 23.4386C24.5083 23.3766 24.4487 23.3135 24.3901 23.2495C24.3254 23.1788 24.2619 23.107 24.1997 23.0342L24.1526 22.9777L24.0221 22.8162L23.975 22.749L23.8243 22.5485C22.4707 20.697 21.9816 18.1378 23.0762 16.0361M25.9442 15.7636C25.0514 17.0419 25.0998 18.7689 25.7962 20.1272C25.9128 20.3556 26.0447 20.5759 26.1911 20.7865C26.3256 20.9782 26.4736 21.2063 26.6506 21.3604L26.8511 21.5622L26.9035 21.614L27.1081 21.8044L27.1181 21.8131L27.357 22.0109L27.4108 22.0533L27.6611 22.235L27.836 22.3514L28.021 22.4657L28.0479 22.4812L28.2121 22.5727L28.2706 22.603L28.385 22.6622L28.4025 22.6703L28.6413 22.7819L28.6938 22.8035L28.8956 22.8828L28.9797 22.9138L29.1593 22.9764L29.2401 23.0033C29.3262 23.0302 29.4109 23.0706 29.5004 23.0786C34.1109 23.8422 35.1752 20.2934 35.1752 20.2934C34.2159 21.6752 32.3577 22.3345 30.375 21.8205L30.114 21.7452L30.0353 21.7196L29.8536 21.6564L29.7709 21.6254L29.5744 21.5461L29.5206 21.5239L29.2804 21.4122L29.1593 21.3449L29.09 21.3092L28.9017 21.2016L28.7166 21.0886L28.5417 20.9722L28.2928 20.7905L28.237 20.7461C27.3624 20.0613 26.6808 19.1315 26.3532 18.0631C26.0168 16.9618 26.0841 15.7259 26.6782 14.7228M29.1607 14.6468C28.6346 15.4205 28.5821 16.3826 28.9481 17.239C29.3329 18.1472 30.1227 18.8536 31.0437 19.19L31.1581 19.2304L31.2086 19.2465L31.3727 19.2936C33.9185 19.7847 34.602 17.9871 34.7924 17.7227C34.1869 18.5933 33.1778 18.8025 31.9237 18.4998C31.8216 18.4728 31.7206 18.4418 31.621 18.4069C31.4989 18.3637 31.3792 18.3141 31.2624 18.2582C31.0407 18.1516 30.8302 18.0231 30.634 17.8748C29.5172 17.0271 28.8176 15.4124 29.5529 14.0972" fill="#E0EEEE"/>
</svg>
