<svg width="120" height="43" viewBox="0 0 120 43" fill="none" xmlns="http://www.w3.org/2000/svg">
<path d="M40.3848 1.88501H79.6148V41.115H40.3848V1.88501Z" fill="#E0EEEE"/>
<path d="M76.4041 31.759C76.117 29.9691 74.9498 28.4662 71.4929 27.0641C70.2922 26.5122 68.9534 26.1169 68.5544 25.207C68.4127 24.6775 68.394 24.3792 68.4835 24.0585C68.7409 23.018 69.9826 22.6936 70.9671 22.9919C71.6011 23.2045 72.2014 23.693 72.5632 24.4724C74.2562 23.3761 74.2524 23.3835 75.4346 22.6303C75.002 21.959 74.7708 21.6495 74.4874 21.3624C73.4693 20.225 72.0821 19.6395 69.8633 19.6843C69.4792 19.7327 69.0914 19.7849 68.7073 19.8334C67.5998 20.1131 66.5444 20.6949 65.9254 21.4742C64.0683 23.5812 64.5978 27.2692 66.8577 28.787C69.0839 30.4576 72.3543 30.838 72.772 32.4005C73.1785 34.3135 71.3662 34.9325 69.565 34.7125C68.2374 34.4365 67.4991 33.7616 66.701 32.5347C65.2318 33.3849 65.2318 33.3849 63.7215 34.2538C64.0795 35.0369 64.4561 35.3912 65.0566 36.0699C67.8981 38.9525 75.0094 38.8108 76.2848 34.4477C76.337 34.2985 76.6801 33.2991 76.4041 31.759ZM61.7115 19.9154H58.0421C58.0421 23.0852 58.0272 26.2325 58.0272 29.4022C58.0272 31.4197 58.1316 33.2693 57.8035 33.8361C57.2665 34.9511 55.8755 34.8131 55.2416 34.5968C54.5965 34.2798 54.2683 33.8286 53.8879 33.191C53.7835 33.0083 53.7052 32.8666 53.6791 32.8554C52.6834 33.4632 51.6915 34.0747 50.6958 34.6826C51.1918 35.7007 51.9227 36.5845 52.8587 37.1587C54.2571 37.9977 56.1365 38.2551 58.1018 37.8038C59.3809 37.4309 60.4847 36.659 61.0627 35.4844C61.898 33.9443 61.719 32.0797 61.7115 30.0175C61.7302 26.6539 61.7115 23.2903 61.7115 19.9154Z" fill="#161616"/>
</svg>
