<svg width="120" height="43" viewBox="0 0 120 43" fill="none" xmlns="http://www.w3.org/2000/svg">
<path d="M20.1569 5.29956C24.8266 7.99357 29.4782 10.6876 34.1299 13.3636C34.1299 18.8055 34.1299 24.2115 34.1299 29.6355C29.4782 32.3115 24.8086 35.0055 20.1569 37.6995C18.8099 36.9273 17.4809 36.1729 16.1518 35.4006C14.3379 34.359 12.5239 33.2993 10.7099 32.2576C9.30905 31.4494 7.90816 30.6412 6.50728 29.851C6.20196 29.6893 6.11216 29.4738 6.13012 29.1505C6.14808 27.157 6.13012 25.1634 6.13012 23.1698C6.13012 20.1346 6.13012 17.0993 6.13012 14.0641C6.13012 13.8486 6.13012 13.651 6.13012 13.3996C10.8177 10.6876 15.4873 7.99357 20.1569 5.29956ZM25.4192 23.6907C24.8445 24.014 24.3057 24.3193 23.7669 24.6246C23.5334 24.7503 23.4975 24.876 23.6232 25.0736C23.9645 25.6304 24.3776 26.1333 24.9343 26.4565C26.3352 27.3007 27.8438 27.4443 29.4064 26.9594C29.7476 26.8517 30.1068 26.6721 30.3942 26.4386C32.0285 25.1993 31.8849 22.7208 30.6456 21.6073C30.3044 21.302 29.9272 21.0326 29.5321 20.8171C28.8496 20.4579 28.1492 20.1705 27.4667 19.8293C27.2512 19.7215 27.0356 19.5778 26.856 19.4162C26.5687 19.1468 26.4968 18.7876 26.6226 18.4463C26.7483 18.1051 27.0536 17.8896 27.4308 17.8537C27.9875 17.7998 28.4545 17.9794 28.7778 18.4463C28.8676 18.5721 28.9753 18.6978 29.0651 18.8235C29.6039 18.4643 30.1068 18.141 30.6097 17.8177C30.7893 17.71 30.8791 17.5663 30.7534 17.3508C30.3403 16.7042 29.8195 16.2013 29.0831 15.9319C28.4186 15.6805 27.754 15.6446 27.0716 15.7164C26.3891 15.7882 25.7425 16.0576 25.2037 16.5067C24.3416 17.243 24.0543 18.2129 24.198 19.3084C24.3057 20.1885 24.7188 20.9428 25.4731 21.4816C26.0658 21.9126 26.7303 22.182 27.3948 22.4874C27.8618 22.7029 28.3288 22.9364 28.7418 23.2237C29.0472 23.4213 29.2268 23.7446 29.119 24.1397C29.0112 24.5348 28.7598 24.8222 28.3288 24.9299C27.4128 25.1993 26.6226 25.0018 25.958 24.3013C25.7964 24.1217 25.6348 23.9242 25.4192 23.6907ZM15.4334 25.0556C15.8106 25.8459 16.3314 26.4565 17.0858 26.8157C18.1274 27.3007 19.1691 27.3905 20.2827 27.0313C21.3243 26.69 22.0248 26.0255 22.2583 24.9299C22.3481 24.445 22.4558 23.9601 22.4558 23.4752C22.4738 21.1942 22.4738 18.9133 22.4738 16.6144C22.4738 16.5066 22.4738 16.3989 22.4738 16.3091C22.4558 15.9319 22.4019 15.878 22.0248 15.8601C21.486 15.8421 20.9472 15.8421 20.4084 15.8601C20.0492 15.8601 19.9953 15.9319 19.9773 16.3091C19.9773 16.4348 19.9773 16.5605 19.9773 16.6863C19.9773 18.9492 19.9773 21.2122 19.9773 23.4752C19.9773 23.7266 19.9773 23.978 19.9594 24.2295C19.9414 24.5168 19.8157 24.7503 19.5642 24.912C19.0973 25.1993 18.4328 25.1275 18.0197 24.7144C17.858 24.5528 17.7323 24.3732 17.5886 24.1756C17.409 23.9242 17.3372 23.9062 17.0858 24.0499C16.547 24.3732 16.0261 24.6964 15.4334 25.0556Z" fill="#E0EEEE"/>
<path d="M34.1481 29.6362C29.4964 32.3123 24.8268 35.0063 20.1752 37.7003C18.8281 36.928 17.4991 36.1737 16.1701 35.4014C14.3561 34.3597 12.5421 33.3001 10.7282 32.2584C9.32726 31.4502 7.54922 30.4265 6.13037 29.6362" fill="#E0EEEE"/>
<path d="M76.2459 21.1399C76.2459 19.2182 76.2459 17.4042 76.2459 15.5364C76.9823 15.5364 77.6827 15.5364 78.4371 15.5364C78.4909 16.147 78.455 16.7936 78.455 17.4222C78.455 18.0687 78.455 18.7153 78.455 19.3619C78.455 20.0264 78.455 20.6909 78.455 21.3554C78.455 22.002 78.455 22.6486 78.455 23.2951C78.455 23.9417 78.455 24.5883 78.455 25.2348C78.455 25.8814 78.455 26.51 78.455 27.1925C77.7187 27.1925 77.0901 27.1925 76.3717 27.1925C76.3717 26.8692 76.3717 26.7075 76.3717 26.3124C76.1561 26.51 76.0304 26.6357 75.9047 26.7614C75.5455 27.1386 75.0965 27.3182 74.5756 27.3541C72.7617 27.4798 71.4506 26.4202 71.0914 24.6242C70.8399 23.367 71.0734 22.2355 71.8816 21.2477C72.3666 20.655 73.049 20.2419 73.8393 20.224C74.5756 20.206 75.0785 20.0623 76.2459 21.1399ZM74.8091 22.1098C73.8034 22.1098 73.2825 22.8282 73.2466 23.7441C73.2286 24.6242 73.7136 25.4863 74.7732 25.4683C75.5814 25.4683 76.3178 25.0013 76.3357 23.7621C76.3537 22.6845 75.6173 22.1277 74.8091 22.1098Z" fill="#E0EEEE"/>
<path d="M37.0039 16.2563C39.3387 16.2563 41.6915 16.2563 44.0263 16.2563C44.0263 16.6335 44.0263 16.9029 44.0443 17.2262C44.0622 17.5315 44.0443 17.8368 44.0443 18.232C43.2181 18.232 42.4099 18.232 41.6017 18.232C40.8114 18.232 40.0392 18.232 39.2489 18.232C39.2489 19.0581 39.3028 20.3512 39.3028 21.1056C40.7216 21.1056 42.1405 21.1056 43.5953 21.1056C43.5953 21.7881 43.5953 22.4167 43.5953 23.0991C42.1405 23.0991 40.6857 23.0991 39.1771 23.0991C39.1771 24.4821 39.1771 25.8291 39.1771 27.194C38.4228 27.194 37.7223 27.194 37.0219 27.194C37.0398 26.6014 37.0039 17.4058 37.0039 16.2563Z" fill="#E0EEEE"/>
<path d="M48.8392 20.2098C49.5396 20.1919 50.1862 20.3535 50.8148 20.6768C52.1259 21.3413 52.8802 23.0655 52.5569 24.4484C52.1618 26.1906 50.9046 27.2682 49.1086 27.34C48.3004 27.3759 47.546 27.2682 46.8456 26.8551C45.7141 26.2085 45.1214 25.2387 45.0496 23.9276C44.9418 22.0597 46.2709 20.6409 47.7436 20.3176C47.8514 20.2996 47.9412 20.2458 48.0489 20.2458C48.3004 20.2278 48.5698 20.2278 48.8392 20.2098ZM47.2766 23.8019C47.2766 23.9096 47.2587 24.0174 47.2766 24.1072C47.3485 24.7897 47.7795 25.3105 48.3722 25.4722C49.0188 25.6518 49.6474 25.4542 50.0425 24.9333C50.3478 24.5382 50.4556 24.0713 50.4017 23.5863C50.276 22.2932 49.0008 21.6467 47.9412 22.3471C47.4203 22.6704 47.2766 23.2092 47.2766 23.8019Z" fill="#E0EEEE"/>
<path d="M102.073 27.3721C100.385 27.3541 99.2712 26.8871 98.4809 25.7377C97.4931 24.2829 97.6727 21.6967 99.828 20.637C101.247 19.9366 102.72 19.9905 104.067 20.9244C106.06 22.3073 106.006 25.5581 103.779 26.8333C103.151 27.2104 102.468 27.39 102.073 27.3721ZM100.169 23.816C100.169 23.9237 100.169 24.0315 100.169 24.1213C100.223 24.7319 100.69 25.3785 101.211 25.4503C102.073 25.5761 102.504 25.5222 102.971 24.8577C103.258 24.4625 103.348 23.9776 103.276 23.4927C103.061 22.2355 101.911 21.6787 100.852 22.3073C100.277 22.6665 100.205 23.2233 100.169 23.816Z" fill="#E0EEEE"/>
<path d="M107.065 20.3703C107.766 20.3703 108.484 20.3703 109.185 20.3703C109.185 20.6936 109.149 20.9091 109.167 21.2324C109.328 21.0887 109.454 20.9809 109.58 20.8552C109.993 20.4242 110.496 20.2087 111.071 20.2266C111.448 20.2266 111.825 20.2266 112.166 20.3344C112.902 20.5499 113.387 21.0887 113.639 21.8071C113.782 22.2382 113.872 22.6692 113.872 23.1362C113.854 24.4652 113.872 25.7942 113.872 27.1592C113.441 27.1592 112.058 27.1592 111.663 27.1592C111.663 26.9257 111.663 24.3934 111.663 23.2978C111.663 22.741 111.412 22.3459 110.999 22.2202C110.388 22.0226 109.67 22.2382 109.382 22.7051C109.221 22.9745 109.131 23.2619 109.131 23.5852C109.149 24.555 109.131 25.5428 109.131 26.5127C109.131 26.7102 109.131 26.9257 109.131 27.1592C108.43 27.1592 107.748 27.1592 107.083 27.1592C107.101 26.6563 107.065 21.5198 107.065 20.3703Z" fill="#E0EEEE"/>
<path d="M58.7521 20.3848C59.5064 20.3848 60.153 20.3848 60.8534 20.3848C60.8534 22.6657 60.8534 24.9107 60.8534 27.1916C60.153 27.1916 59.4885 27.1916 58.7701 27.1916C58.7701 26.9043 58.7701 26.6528 58.7701 26.2936C58.5545 26.4912 58.4288 26.6349 58.2851 26.7786C57.1896 27.8023 55.2678 27.5149 54.5135 26.2218C54.2082 25.7009 54.0645 25.1442 54.0466 24.5695C54.0286 23.2045 54.0466 21.8036 54.0466 20.3848C54.4058 20.3848 55.8605 20.3848 56.2556 20.3848C56.2556 20.5823 56.2556 20.708 56.2556 20.8697C56.2556 21.9473 56.2556 23.0249 56.2556 24.1025C56.2556 24.9466 56.5789 25.3238 57.2794 25.3597C58.2851 25.4315 58.6982 24.8748 58.7341 24.1384C58.788 23.1686 58.7521 22.1808 58.7521 21.2109C58.7521 20.9595 58.7521 20.6901 58.7521 20.3848Z" fill="#E0EEEE"/>
<path d="M90.8298 17.9065C90.8298 18.7327 90.8298 19.5588 90.8298 20.385C91.4045 20.385 91.9074 20.367 92.4283 20.367C92.4283 20.8519 92.4642 21.4446 92.4642 22.1451C91.9433 22.1451 91.3866 22.1451 90.8298 22.1451C90.8298 22.3067 90.8118 24.0309 90.8298 24.7852C90.8298 24.9828 90.9016 25.1983 91.0094 25.3599C91.1531 25.5395 91.3686 25.6293 91.6201 25.5216C91.7817 25.4497 91.9613 25.3779 92.1589 25.2881C92.4283 25.773 92.6977 26.24 92.9671 26.7429C92.6977 27.0661 92.3564 27.2098 91.9972 27.2996C91.4045 27.4613 90.8119 27.4613 90.2192 27.3176C89.411 27.138 88.7824 26.3298 88.7105 25.3958C88.6746 24.875 88.6926 24.3542 88.6926 23.8333C88.6926 23.4382 88.6926 22.3426 88.6926 22.1271C88.477 22.1271 87.8484 22.1271 87.6509 22.1271C87.6509 21.5344 87.6509 20.9777 87.6509 20.385C87.9562 20.367 88.4052 20.4029 88.7285 20.385C88.7285 19.9899 88.6926 18.3375 88.6926 17.9065C89.393 17.9065 90.0755 17.9065 90.8298 17.9065Z" fill="#E0EEEE"/>
<path d="M96.29 27.2096C95.5896 27.2096 94.9251 27.2096 94.2785 27.2096C94.2785 26.6349 94.2246 21.5163 94.2246 20.3848C94.8891 20.3848 95.6075 20.3848 96.2721 20.3848C96.2721 20.8517 96.29 26.0242 96.29 27.2096Z" fill="#E0EEEE"/>
<path d="M93.9188 17.8347C93.829 17.0265 94.5474 16.4698 95.2478 16.4518C95.9842 16.4339 96.6487 17.0265 96.6667 17.7809C96.6846 18.5352 96.0021 19.2177 95.2478 19.1997C94.4935 19.1817 93.9367 18.5891 93.9188 17.8347Z" fill="#E0EEEE"/>
<path d="M84.2025 26.5097C84.2205 26.7252 84.2205 26.9407 84.2384 27.1922H86.3757C86.3936 27.1922 86.4116 27.1922 86.4296 27.1742C86.3577 25.6656 86.4834 24.1928 86.3398 22.7201C86.214 21.5168 85.3699 20.5469 84.3821 20.3314C83.3943 20.1159 82.4065 20.1159 81.4546 20.4931C81.0056 20.6727 80.6284 20.9241 80.3231 21.3372C80.4129 21.4449 81.1852 22.2352 81.4726 22.5225C81.8497 22.2891 82.2449 22.1095 82.6579 22.0197C83.4302 21.858 84.1845 22.0915 84.1845 23.1332C83.7176 23.1332 83.2686 23.1152 82.8375 23.1332C82.4065 23.1511 81.9755 23.1691 81.5444 23.2409C80.8081 23.3846 80.1435 23.6899 79.91 24.4802C79.8202 24.7855 79.8382 25.1268 79.8202 25.468C79.8023 26.2942 80.359 27.0126 81.1493 27.2101C82.2089 27.4795 83.2506 27.5334 84.0588 26.5636C84.0947 26.5276 84.1486 26.5276 84.2025 26.5097ZM83.5919 25.5578C83.1788 25.7194 82.7657 25.7913 82.3347 25.5937C82.0653 25.468 81.9216 25.2525 81.9575 24.9651C81.9934 24.6777 82.173 24.4802 82.4963 24.4802C83.0531 24.4622 83.6098 24.4802 84.1845 24.4802C84.2025 25.0908 84.0588 25.3602 83.5919 25.5578Z" fill="#E0EEEE"/>
<path d="M64.8421 27.177C64.8421 26.8717 64.8421 26.6023 64.8421 26.5125C64.8421 25.4888 64.8601 24.483 64.8421 23.4593C64.8421 22.4535 65.7581 21.9507 66.7638 22.2919C67.141 22.4176 67.3026 22.7229 67.3565 23.1001C67.3745 23.2617 67.3745 23.4234 67.3745 23.603C67.3745 24.4292 67.3745 26.0456 67.3745 27.195H69.5836C69.5836 26.0635 69.5836 24.6986 69.5836 23.9442C69.5836 23.4234 69.5656 22.9025 69.4758 22.3997C69.2962 21.358 68.7574 20.5498 67.6978 20.3163C66.674 20.0828 65.7042 20.2085 65.0038 21.1245C64.9678 21.1784 64.896 21.1963 64.8062 21.2682C64.8062 20.9629 64.8242 20.7294 64.8242 20.4061C64.429 20.4061 63.0461 20.4061 62.6689 20.4061C62.6689 22.2919 62.6689 25.0218 62.6689 27.213L64.8421 27.177Z" fill="#E0EEEE"/>
</svg>
