<svg width="120" height="43" viewBox="0 0 120 43" fill="none" xmlns="http://www.w3.org/2000/svg">
<path fill-rule="evenodd" clip-rule="evenodd" d="M48.9053 14.2191V26.393H53.3416V28.4928H46.5434V14.2191H48.9053ZM61.6792 20.275V18.9912H63.9175V28.4928H61.6787V27.2079C61.3779 27.6838 60.9498 28.0578 60.3949 28.3294C59.841 28.6011 59.2829 28.7369 58.7216 28.7369C57.9958 28.7369 57.3316 28.6043 56.7295 28.3395C56.1433 28.0861 55.6154 27.7148 55.1788 27.2488C54.7471 26.7861 54.4059 26.2466 54.1729 25.6583C53.9308 25.0484 53.8087 24.3976 53.8132 23.7415C53.8132 23.0757 53.9331 22.4401 54.1729 21.8348C54.4044 21.2428 54.7457 20.6999 55.1788 20.2347C55.6155 19.7686 56.1433 19.3972 56.7295 19.1434C57.3316 18.8782 57.9958 18.7456 58.7216 18.7456C59.2829 18.7456 59.841 18.8819 60.3954 19.1541C60.9498 19.4257 61.3779 19.7997 61.6792 20.275ZM61.4734 24.9039C61.6112 24.5321 61.6809 24.1385 61.6792 23.742C61.6792 23.3335 61.6103 22.9462 61.4734 22.5791C61.3448 22.226 61.1498 21.9007 60.8988 21.621C60.6477 21.3459 60.3439 21.124 60.0055 20.9684C59.6558 20.8056 59.2691 20.7239 58.8447 20.7239C58.4202 20.7239 58.0367 20.8056 57.6945 20.9684C57.3523 21.1318 57.0579 21.3494 56.8117 21.621C56.5614 21.8994 56.3694 22.2252 56.2472 22.5791C56.1158 22.9525 56.0498 23.3457 56.052 23.7415C56.052 24.1495 56.1167 24.5373 56.2472 24.9033C56.3693 25.2575 56.5612 25.5835 56.8117 25.862C57.0601 26.1355 57.3601 26.3572 57.6945 26.5145C58.0367 26.6779 58.4202 26.7591 58.8447 26.7591C59.2691 26.7591 59.6564 26.6779 60.0055 26.5151C60.344 26.3597 60.6478 26.1377 60.8988 25.8625C61.1499 25.5826 61.3449 25.2572 61.4734 24.9039ZM65.6836 28.4923V18.9907H71.7629V21.1775H67.9219V28.4923H65.6836ZM79.8751 20.275V18.9912H82.1134V28.4928H79.8746V27.2079C79.5732 27.6838 79.1456 28.0578 78.5907 28.3294C78.0368 28.6011 77.4787 28.7369 76.9174 28.7369C76.1912 28.7369 75.5275 28.6043 74.9253 28.3395C74.3391 28.0861 73.8113 27.7148 73.3746 27.2488C72.9429 26.7861 72.6018 26.2466 72.3687 25.6583C72.1267 25.0484 72.0045 24.3976 72.0091 23.7415C72.0091 23.0757 72.1284 22.4401 72.3687 21.8348C72.6002 21.2428 72.9415 20.6999 73.3746 20.2347C73.8113 19.7686 74.3391 19.3972 74.9253 19.1434C75.5275 18.8782 76.1912 18.7456 76.9174 18.7456C77.4787 18.7456 78.0368 18.8819 78.5912 19.1541C79.1456 19.4257 79.5732 19.7997 79.8751 20.275ZM79.6693 24.9039C79.8069 24.532 79.8764 24.1385 79.8746 23.742C79.8746 23.3335 79.8056 22.9462 79.6693 22.5791C79.5405 22.2259 79.3453 21.9007 79.0942 21.621C78.8431 21.3459 78.5393 21.124 78.2008 20.9684C77.8517 20.8056 77.4649 20.7239 77.0405 20.7239C76.6161 20.7239 76.2325 20.8056 75.8904 20.9684C75.5482 21.1318 75.2537 21.3494 75.0076 21.621C74.757 21.8993 74.5649 22.2252 74.4426 22.5791C74.3111 22.9525 74.2451 23.3457 74.2473 23.7415C74.2473 24.1495 74.312 24.5373 74.4426 24.9033C74.5648 25.2575 74.7569 25.5835 75.0076 25.862C75.256 26.1355 75.556 26.3572 75.8904 26.5145C76.2325 26.6779 76.6161 26.7591 77.0405 26.7591C77.4649 26.7591 77.8522 26.6779 78.2008 26.5151C78.5393 26.3597 78.8432 26.1377 79.0942 25.8625C79.3454 25.5827 79.5406 25.2572 79.6693 24.9039ZM91.0877 18.9907H93.3552L89.6808 28.4923H86.8679L83.1935 18.9907H85.461L88.2743 26.2668L91.0877 18.9907ZM98.237 18.7466C101.285 18.7466 103.364 21.4284 102.974 24.5675H95.5473C95.5473 25.3872 96.3807 26.9718 98.3601 26.9718C100.063 26.9718 101.204 25.4848 101.205 25.4837L102.717 26.6456C101.365 28.079 100.258 28.7374 98.524 28.7374C95.4258 28.7374 93.3265 26.7915 93.3265 23.742C93.3265 20.9833 95.4963 18.7466 98.237 18.7466ZM95.5531 22.916H100.918C100.901 22.733 100.611 20.5117 98.2195 20.5117C95.8285 20.5117 95.5706 22.733 95.5531 22.916ZM104.431 28.4923V14.2191H106.67V28.4923H104.431ZM39.731 14.1077C39.7408 14.1437 39.7458 14.1808 39.7459 14.2181V20.0135C39.7457 20.088 39.7259 20.1612 39.6884 20.2256C39.6508 20.29 39.5969 20.3433 39.5321 20.3801L34.6332 23.1807V28.7316C34.633 28.806 34.6131 28.8791 34.5756 28.9434C34.538 29.0077 34.4841 29.0609 34.4194 29.0976L24.1941 34.9435C24.1708 34.9573 24.1448 34.9652 24.1198 34.9742C24.1098 34.9774 24.1007 34.9833 24.0912 34.9859C24.0196 35.0047 23.9443 35.0047 23.8726 34.9859C23.861 34.9827 23.8503 34.9764 23.8392 34.9721C23.8153 34.9642 23.7915 34.9562 23.7692 34.9435L13.5433 29.0987C13.4785 29.0618 13.4247 29.0084 13.3872 28.9439C13.3498 28.8794 13.33 28.8062 13.3301 28.7316V11.3453C13.3302 11.308 13.3352 11.2709 13.3449 11.2349C13.3481 11.2222 13.3555 11.2111 13.3598 11.1994C13.3683 11.1771 13.3757 11.1543 13.3874 11.1336C13.3953 11.1198 13.407 11.1087 13.416 11.0965C13.4288 11.0795 13.4394 11.0615 13.4542 11.0466C13.4664 11.0344 13.4823 11.0254 13.4961 11.0148C13.5115 11.0031 13.5253 10.9893 13.5428 10.9792L13.5433 10.9787L18.6565 8.05605C18.7212 8.01931 18.7943 8 18.8687 8C18.9431 8 19.0163 8.01931 19.0809 8.05605L24.1941 10.9787H24.1952C24.2122 10.9893 24.226 11.0031 24.2419 11.0148C24.2557 11.0254 24.271 11.0344 24.2832 11.0466C24.2981 11.0615 24.3087 11.0795 24.3214 11.0959C24.331 11.1087 24.3427 11.1198 24.3506 11.1336C24.3623 11.1543 24.3697 11.1771 24.3782 11.1994C24.3825 11.2111 24.3894 11.2222 24.3931 11.2349C24.4027 11.2709 24.4075 11.308 24.4074 11.3453V22.2046L28.6685 19.7689V14.2181C28.6685 14.1808 28.6733 14.1437 28.6829 14.1077C28.6866 14.095 28.6935 14.0844 28.6983 14.0722C28.7062 14.0499 28.7136 14.0271 28.7253 14.0064C28.7333 13.9926 28.7449 13.9815 28.7545 13.9693C28.7672 13.9523 28.7778 13.9342 28.7927 13.9199C28.8049 13.9077 28.8203 13.8987 28.8341 13.8881C28.85 13.8759 28.8638 13.8616 28.8813 13.852V13.8515L33.9945 10.9288C34.0592 10.8919 34.1324 10.8725 34.2069 10.8725C34.2815 10.8725 34.3547 10.8919 34.4194 10.9288L39.5321 13.8515C39.5501 13.8621 39.5644 13.8759 39.5803 13.8876C39.5936 13.8982 39.6095 13.9077 39.6217 13.9194C39.6366 13.9342 39.6472 13.9523 39.6594 13.9687C39.6689 13.9815 39.6806 13.9926 39.6886 14.0064C39.7008 14.0271 39.7077 14.0499 39.7161 14.0722C39.7209 14.0844 39.7278 14.095 39.731 14.1077ZM38.8938 19.7689V14.9497L37.1044 15.9725L34.6332 17.3853V22.2046L38.8938 19.7689ZM33.7812 28.487V23.6646L31.3493 25.0429L24.4074 28.9767V33.8442L33.7812 28.4859V28.487ZM14.1821 12.0769V28.487L23.5554 33.8453V28.9783L18.6586 26.227L18.6576 26.2254L18.6555 26.2249C18.6385 26.2153 18.6252 26.2015 18.6098 26.1898C18.596 26.1792 18.5812 26.1707 18.569 26.1591L18.5679 26.1575C18.5541 26.1442 18.5446 26.1278 18.5329 26.1129C18.5223 26.0991 18.5096 26.0869 18.5011 26.0721L18.5006 26.0705C18.491 26.0546 18.4852 26.0355 18.4783 26.0174C18.4714 26.002 18.4624 25.9872 18.4581 25.9702C18.4523 25.95 18.4517 25.9283 18.4491 25.9076C18.4475 25.8917 18.4427 25.8763 18.4427 25.8599V14.512L15.9721 13.0997L14.1821 12.0769ZM18.8687 8.91072L14.6102 11.3458L18.8687 13.7799L23.1278 11.3453L18.8687 8.91072ZM21.0842 24.1038L23.5554 22.6916V12.0769L21.7664 13.0997L19.2947 14.5125V25.1267L21.0842 24.1038ZM34.2072 11.784L29.9482 14.2181L34.2072 16.6526L38.4657 14.2181L34.2072 11.784ZM33.7812 17.3853L31.3095 15.9725L29.5206 14.9497V19.7689L31.9917 21.1817L33.7812 22.2046V17.3853ZM23.9808 28.2451L30.2278 24.7044L33.3504 22.9346L29.0946 20.5016L24.1941 23.3027L19.7282 25.8556L23.9808 28.2451Z" fill="#E0EEEE"/>
</svg>
