<svg width="120" height="43" viewBox="0 0 120 43" fill="none" xmlns="http://www.w3.org/2000/svg">
<path d="M32.8504 24.9361C32.8504 23.9238 32.1994 22.8392 30.3193 22.767V20.2365C32.1927 20.1643 32.8504 19.079 32.8504 18.0674C32.8504 16.2595 32.5614 15.1034 32.5614 13.0058C32.5614 9.82438 33.7189 8.81207 36.3216 8.81207H43.2633V11.1257H37.623C36.3939 11.1257 36.0319 11.5593 36.0319 13.1503L36.1764 17.9229C36.1764 20.1643 35.4538 21.032 34.0073 21.394V21.5385C35.4538 21.8998 36.1764 22.7676 36.1764 25.0097L36.0319 29.7822C36.0319 31.3733 36.3932 31.8791 37.623 31.8791H38.2017V34.1205H36.3283C33.7256 34.1205 32.5681 33.1082 32.5681 29.9267C32.5681 27.8298 32.8571 26.7453 32.8571 24.9374L32.8504 24.9361ZM38.9972 9.02751H43.3362V25.2974C43.3362 26.2374 43.7697 26.5265 44.1324 26.5265C44.2769 26.5265 44.4214 26.5265 44.6389 26.4542L45.1454 29.6357C44.6389 29.8524 43.9163 29.997 42.9762 29.997C40.0122 29.997 38.9992 28.0446 38.9992 25.0793L38.9972 9.02751ZM51.2179 14.6678C55.3394 14.6678 57.4369 17.7054 57.4369 21.6817C57.4369 22.4779 57.3647 23.1283 57.2924 23.4896H48.3977C48.759 25.731 50.2711 26.671 52.2302 26.671C53.3141 26.671 54.3271 26.382 55.4116 25.7309L56.8582 28.3337C55.3394 29.346 53.387 29.997 51.6514 29.997C47.4577 29.997 44.2756 27.1768 44.2756 22.3321C44.2033 17.6318 47.6745 14.6671 51.2172 14.6671L51.2179 14.6678ZM53.749 20.8146C53.749 19.1513 53.0264 17.9222 51.2901 17.9222C49.9165 17.9222 48.759 18.8622 48.47 20.8146H53.749ZM59.8958 25.2974C61.1971 26.3097 62.4269 26.8162 63.656 26.8162C64.9573 26.8162 65.5294 26.3097 65.5294 25.5871C65.5294 24.647 64.0828 24.1406 62.5654 23.5625C60.8298 22.9115 58.7329 21.6891 58.7329 19.2958C58.7329 16.6195 60.9743 14.7394 64.301 14.7394C66.5424 14.7394 68.2057 15.6794 69.4348 16.6128L67.4824 19.2155C66.3985 18.4193 65.4578 17.9864 64.3732 17.9864C63.2887 17.9864 62.7099 18.42 62.7099 19.1439C62.7099 20.084 64.0835 20.4453 65.6023 21.0173C67.4757 21.6683 69.5793 22.7529 69.5793 25.4285C69.5793 28.1042 67.4824 30.1288 63.5777 30.1288C61.7043 30.1288 59.4562 29.3326 58.0097 28.1042L59.8958 25.2974ZM71.6829 25.2974C72.9842 26.3097 74.214 26.8162 75.4431 26.8162C76.7444 26.8162 77.3165 26.3097 77.3165 25.5871C77.3165 24.647 75.8699 24.1406 74.3525 23.5625C72.6169 22.9115 70.52 21.6891 70.52 19.2958C70.52 16.6195 72.7614 14.7394 76.088 14.7394C78.3294 14.7394 79.9928 15.6794 81.2219 16.6128L79.2695 19.2155C78.1856 18.4193 77.2449 17.9864 76.1603 17.9864C75.0757 17.9864 74.497 18.42 74.497 19.1439C74.497 20.084 75.8706 20.4453 77.3171 21.0173C79.1905 21.6683 81.2941 22.7529 81.2941 25.4285C81.2941 28.1042 79.1972 30.1288 75.2925 30.1288C73.4191 30.1288 71.171 29.3326 69.7245 28.1042L71.6829 25.2974ZM82.384 31.8048C83.6131 31.8048 83.9751 31.3712 83.9751 29.7079C83.9751 28.1169 83.8306 26.6703 83.8306 24.9354C83.8306 22.694 84.5532 21.8262 85.9997 21.4643V21.3197C84.5532 20.9584 83.8306 20.0907 83.8306 17.8486C83.8306 16.113 83.9751 14.5949 83.9751 13.0761C83.9751 11.485 83.6861 11.0515 82.384 11.0515H81.8053V8.81006H83.6787C86.2814 8.81006 87.4389 9.82237 87.4389 13.0038C87.4389 15.0284 87.1499 16.1853 87.1499 18.0654C87.1499 19.0777 87.8009 20.1622 89.681 20.2345V22.7656C87.8076 22.8379 87.1499 23.9231 87.1499 24.9348C87.1499 26.8082 87.4389 27.8988 87.4389 29.9963C87.4389 33.1777 86.2814 34.1901 83.6787 34.1901H81.8053V31.8784L82.384 31.8048Z" fill="#E0EEEE"/>
</svg>
