<svg width="120" height="43" viewBox="0 0 120 43" fill="none" xmlns="http://www.w3.org/2000/svg">
<path d="M41.5171 11.399H54.7197V12.4484H42.7273V20.3462H54.0046V21.3956H42.7273V30.0666H54.8572V31.116H41.5171V11.399ZM55.9024 11.399H57.3052L63.5215 20.0701L69.8752 11.399L78.5174 0.384766L64.3191 20.9814L71.6356 31.116H70.1778L63.5215 21.8926L56.8376 31.116H55.4073L62.7788 20.9814L55.9024 11.399ZM72.1582 12.4484V11.399H87.2037V12.4484H80.2723V31.116H79.0621V12.4484H72.1582ZM25 11.399H26.5128L47.3735 42.615L38.7528 31.116L26.2653 12.8902L26.2102 31.116H25V11.399ZM87.0818 29.75C86.8345 29.75 86.649 29.5584 86.649 29.3108C86.649 29.0632 86.8345 28.8716 87.0818 28.8716C87.332 28.8716 87.5145 29.0632 87.5145 29.3108C87.5145 29.5584 87.332 29.75 87.0818 29.75ZM88.271 28.5946H88.9186C88.9274 28.9453 89.1835 29.1811 89.5603 29.1811C89.9812 29.1811 90.2196 28.9276 90.2196 28.4531V25.4467H90.879V28.456C90.879 29.3108 90.3845 29.803 89.5661 29.803C88.7979 29.803 88.271 29.3255 88.271 28.5946ZM91.7415 28.5563H92.3949C92.4509 28.9601 92.8453 29.2165 93.4134 29.2165C93.9433 29.2165 94.3318 28.9424 94.3318 28.5651C94.3318 28.2409 94.0845 28.0464 93.5223 27.9137L92.9748 27.7811C92.2065 27.6013 91.8563 27.2299 91.8563 26.6051C91.8563 25.8476 92.4744 25.3436 93.4016 25.3436C94.2641 25.3436 94.894 25.8476 94.9323 26.5638H94.2906C94.2288 26.1718 93.8873 25.9272 93.3928 25.9272C92.8718 25.9272 92.5244 26.1777 92.5244 26.5609C92.5244 26.8644 92.7482 27.0383 93.3016 27.168L93.7696 27.283C94.6409 27.4863 95 27.84 95 28.4796C95 29.2931 94.3701 29.803 93.3634 29.803C92.4214 29.803 91.7886 29.3167 91.7415 28.5563Z" fill="#E0EEEE"/>
</svg>
