<svg width="120" height="43" viewBox="0 0 120 43" fill="none" xmlns="http://www.w3.org/2000/svg">
<path d="M59.6369 41.0848C59.421 41.0848 59.205 41.0357 59.0283 40.9179L57.1044 39.7793C56.8099 39.6124 56.9572 39.5633 57.0553 39.5339C57.3694 39.4357 57.6443 39.3081 57.9289 39.1412C57.978 39.1216 58.0271 39.1216 58.0762 39.1609L59.5584 40.0345C59.6075 40.0639 59.686 40.0639 59.7351 40.0345L65.5069 36.6971C65.556 36.6676 65.5854 36.5989 65.5854 36.5498V29.8848C65.5854 29.8161 65.556 29.7572 65.5069 29.7179L59.7351 26.4001C59.686 26.3706 59.6173 26.3706 59.5584 26.4001L53.7866 29.7179C53.7375 29.7473 53.6884 29.8161 53.6884 29.8848V36.54C53.6884 36.6087 53.7179 36.6676 53.7866 36.6872L55.367 37.6099C56.221 38.0418 56.751 37.5314 56.751 37.0308V30.4345C56.751 30.3363 56.8296 30.2676 56.9179 30.2676H57.6443C57.7424 30.2676 57.8112 30.3363 57.8112 30.4345V37.0112C57.8112 38.1596 57.1829 38.8173 56.1032 38.8173C55.7694 38.8173 55.5142 38.8173 54.7682 38.4541L53.2565 37.5805C52.8737 37.3645 52.6479 36.9523 52.6479 36.5302V29.8651C52.6479 29.4332 52.8737 29.0308 53.2565 28.8148L59.0283 25.4774C59.4112 25.2614 59.8627 25.2614 60.2455 25.4774L66.0173 28.8148C66.4001 29.0308 66.6259 29.443 66.6259 29.8651V36.54C66.6259 36.9719 66.4001 37.3744 66.0173 37.5903L60.2455 40.9277C60.0688 41.0357 59.8529 41.0848 59.6369 41.0848Z" fill="#E0EEEE"/>
<path d="M61.4132 36.4918C58.8807 36.4918 58.3506 35.3433 58.3506 34.3519C58.3506 34.2538 58.4193 34.1851 58.5175 34.1851H59.2537C59.3322 34.1851 59.4009 34.2538 59.4205 34.3323C59.5383 35.0881 59.8622 35.4808 61.3935 35.4808C62.6107 35.4808 63.1408 35.2059 63.1408 34.5581C63.1408 34.1752 62.9935 33.92 61.0991 33.7237C59.5187 33.5765 58.5371 33.2133 58.5371 31.947C58.5371 30.7789 59.5285 30.0918 61.1678 30.0918C63.023 30.0918 63.9261 30.7298 64.0439 32.1139C64.0439 32.163 64.0242 32.2121 63.9948 32.2415C63.9653 32.2709 63.9162 32.2906 63.877 32.2906H63.1212C63.0426 32.2906 62.9739 32.2415 62.9543 32.163C62.7776 31.3581 62.3261 31.1127 61.1481 31.1127C59.8132 31.1127 59.6659 31.574 59.6659 31.9176C59.6659 32.3495 59.8426 32.4574 61.6389 32.693C63.4353 32.9286 64.25 33.2525 64.25 34.4992C64.2598 35.7556 63.2586 36.4918 61.4132 36.4918Z" fill="#E0EEEE"/>
<path d="M69.7571 29.505C69.7571 30.1136 69.2663 30.624 68.6381 30.624C68.0295 30.624 67.519 30.1332 67.519 29.505C67.519 28.8964 68.0098 28.386 68.6381 28.386C69.2467 28.386 69.7571 28.8866 69.7571 29.505ZM67.6957 29.505C67.6957 30.0154 68.108 30.4375 68.6283 30.4375C69.1387 30.4375 69.5608 30.0253 69.5608 29.505C69.5608 28.9946 69.1485 28.5725 68.6283 28.5725C68.1276 28.5725 67.6957 28.9848 67.6957 29.505ZM68.2258 28.8866H68.6577C68.8049 28.8866 69.0896 28.8866 69.0896 29.2203C69.1092 29.3676 69.0111 29.4952 68.8638 29.5345C69.0307 29.5541 69.0405 29.6621 69.0602 29.8289C69.0602 29.9467 69.0896 30.0547 69.1289 30.1627H68.854C68.854 30.094 68.8049 29.7799 68.8049 29.77C68.7853 29.7013 68.7559 29.6719 68.6773 29.6719H68.4614V30.1627H68.2356V28.8866H68.2258ZM68.4516 29.4265H68.6479C68.746 29.4461 68.8246 29.3774 68.8246 29.2792C68.8246 29.2596 68.8246 29.2596 68.8246 29.2498C68.8246 29.0829 68.7068 29.0829 68.6479 29.0829H68.4516V29.4265Z" fill="#E0EEEE"/>
<path fill-rule="evenodd" clip-rule="evenodd" d="M41.7521 15.0062C41.7521 14.7412 41.6049 14.4958 41.3693 14.3682L35.254 10.8443C35.1558 10.7755 35.038 10.7461 34.9202 10.7461H34.8417C34.7239 10.7461 34.6159 10.7755 34.4981 10.8443L28.3926 14.3584C28.1668 14.486 28.0098 14.7412 28.0098 14.9964L28.0294 24.4885C28.0294 24.6161 28.0981 24.7339 28.2061 24.8026C28.3141 24.8713 28.4515 24.8713 28.5693 24.8026L32.2208 22.7314C32.4466 22.6038 32.584 22.3486 32.6036 22.0934V17.6565C32.6036 17.3915 32.7509 17.1461 32.9668 17.0185L34.5079 16.1351C34.6257 16.0664 34.7533 16.0369 34.8908 16.0369C35.0184 16.0369 35.1558 16.0664 35.254 16.1351L36.7951 17.0185C37.0208 17.1461 37.1583 17.4013 37.1583 17.6565V22.0934C37.1583 22.3584 37.3055 22.6038 37.5411 22.7314L41.173 24.8222C41.2908 24.8909 41.438 24.8909 41.5558 24.8222C41.6736 24.7535 41.7325 24.6455 41.7325 24.5081L41.7521 15.0062Z" fill="#E0EEEE"/>
<path fill-rule="evenodd" clip-rule="evenodd" d="M71.2199 1.95997C71.0432 1.86181 70.8076 1.93053 70.7094 2.10721C70.68 2.15629 70.6604 2.22501 70.6604 2.2839V11.6876C70.6604 11.7858 70.6113 11.8643 70.5328 11.9134C70.4542 11.9625 70.3561 11.9625 70.2677 11.9134L68.7364 11.0299C68.5107 10.9023 68.226 10.9023 68.0002 11.0299L61.8652 14.5637C61.6395 14.6913 61.4824 14.9465 61.4824 15.2017V22.2692C61.4824 22.5343 61.6297 22.7797 61.8652 22.9073L68.0002 26.441C68.226 26.5686 68.5107 26.5686 68.7364 26.441L74.8714 22.9073C75.0972 22.7797 75.2346 22.5244 75.2542 22.2692V4.63974C75.2542 4.3747 75.107 4.12931 74.8714 4.0017L71.2199 1.95997ZM70.6407 19.9527C70.6407 20.0214 70.6113 20.0803 70.5426 20.1195L68.4419 21.3367C68.3732 21.3662 68.3143 21.3662 68.2653 21.3367L66.1646 20.1195C66.1156 20.0901 66.0665 20.0214 66.0665 19.9527V17.5183C66.0665 17.4496 66.0959 17.3907 66.1646 17.3514L68.2653 16.1342C68.3143 16.1048 68.3929 16.1048 68.4419 16.1342L70.5426 17.3514C70.5917 17.3809 70.6407 17.4496 70.6407 17.5183V19.9527Z" fill="#E0EEEE"/>
<path fill-rule="evenodd" clip-rule="evenodd" d="M91.6274 17.4458C91.8532 17.3182 91.9906 17.063 91.9906 16.8078V15.0998C91.9906 14.8347 91.8434 14.5893 91.6274 14.4617L85.5415 10.928C85.3157 10.8004 85.0311 10.8004 84.8053 10.928L78.69 14.4617C78.4642 14.5893 78.3071 14.8446 78.3071 15.0998V22.1673C78.3071 22.4323 78.4544 22.6777 78.69 22.8053L84.7759 26.2802C85.0016 26.4078 85.2667 26.4078 85.5022 26.2802L89.1832 24.2384C89.3599 24.1403 89.4286 23.9047 89.3305 23.728C89.301 23.6593 89.2519 23.6102 89.1832 23.5808L83.0188 20.047C82.901 19.9783 82.8421 19.8703 82.8421 19.7133V17.5047C82.8421 17.3771 82.9108 17.2593 83.0188 17.1906L84.9427 16.0912C85.0605 16.0225 85.1881 16.0225 85.3059 16.0912L87.2299 17.1906C87.3476 17.2593 87.4065 17.3673 87.4065 17.5047V19.2519C87.4065 19.4482 87.5734 19.6151 87.7697 19.6348C87.8384 19.6348 87.8973 19.6151 87.9464 19.5857L91.6274 17.4458Z" fill="#E0EEEE"/>
<path fill-rule="evenodd" clip-rule="evenodd" d="M85.0702 17.1258C85.1193 17.0964 85.1684 17.0964 85.2175 17.1258L86.4052 17.8031C86.4543 17.8326 86.4739 17.8719 86.4739 17.9308V19.2755C86.4739 19.3246 86.4444 19.3737 86.4052 19.3933L85.2371 20.0706C85.188 20.1001 85.1389 20.1001 85.0898 20.0706L83.9217 19.3933C83.8727 19.3639 83.853 19.3246 83.853 19.2755V17.9308C83.853 17.8817 83.8825 17.8326 83.9217 17.8031L85.0702 17.1258Z" fill="#E0EEEE"/>
<path fill-rule="evenodd" clip-rule="evenodd" d="M51.9905 10.95C51.7647 10.8223 51.48 10.8223 51.2543 10.95L45.1684 14.4739C44.9426 14.6015 44.8052 14.8567 44.8052 15.1119V22.15C44.8052 22.415 44.9524 22.6604 45.1684 22.788L51.2543 26.312C51.48 26.4396 51.7647 26.4396 51.9905 26.312L58.0764 22.788C58.3021 22.6604 58.4396 22.4052 58.4396 22.15V15.1119C58.4396 14.8469 58.2923 14.6015 58.0764 14.4739L51.9905 10.95Z" fill="#E0EEEE"/>
<path d="M58.0949 14.4706L51.9796 10.9467C51.9109 10.9172 51.852 10.878 51.7832 10.8682L44.9219 22.6081C44.9906 22.6768 45.0495 22.7357 45.1182 22.7749L51.2335 26.2989C51.4004 26.397 51.6164 26.4265 51.8127 26.3676L58.2422 14.5884C58.2127 14.5492 58.1636 14.5001 58.0949 14.4706Z" fill="#E0EEEE"/>
<path d="M51.0571 9.67554L50.9688 9.72462H51.0865L51.0571 9.67554Z" fill="#E0EEEE"/>
<path d="M58.095 22.78C58.2717 22.6819 58.4091 22.515 58.4582 22.3187L51.7637 10.8733C51.587 10.8438 51.4005 10.8733 51.2533 10.9518L45.187 14.4561L51.7441 26.3923C51.8422 26.3727 51.9208 26.3432 52.0091 26.2942L58.095 22.78Z" fill="#E0EEEE"/>
<path d="M58.674 22.6798L58.6348 22.6013V22.6995L58.674 22.6798Z" fill="#E0EEEE"/>
<path d="M58.0952 22.78L51.9896 26.3039C51.9111 26.353 51.813 26.3825 51.7246 26.4021L51.8424 26.6181L58.6154 22.7015V22.6033L58.4486 22.3088C58.4093 22.515 58.2719 22.6818 58.0952 22.78Z" fill="#E0EEEE"/>
<path d="M58.0952 22.78L51.9896 26.3039C51.9111 26.353 51.813 26.3825 51.7246 26.4021L51.8424 26.6181L58.6154 22.7015V22.6033L58.4486 22.3088C58.4093 22.515 58.2719 22.6818 58.0952 22.78Z" fill="#E0EEEE"/>
</svg>
