<svg width="120" height="43" viewBox="0 0 120 43" fill="none" xmlns="http://www.w3.org/2000/svg">
<path d="M29.9502 21.5C29.9502 30.2301 43.4043 37.3074 60.0001 37.3074C76.596 37.3074 90.0502 30.2301 90.0502 21.5C90.0502 12.77 76.596 5.69255 60.0001 5.69255C43.4043 5.69255 29.9502 12.77 29.9502 21.5Z" fill="#E0EEEE"/>
<path d="M46.2758 23.3178C47.5872 23.3178 48.5661 23.076 49.1855 22.5993C49.7983 22.1275 50.2215 21.31 50.4434 20.1698C50.6502 19.104 50.5714 18.3598 50.2092 17.9582C49.8389 17.548 49.0384 17.34 47.8297 17.34H45.7341L44.5724 23.3178H46.2758ZM39.4217 30.6814C39.3244 30.6814 39.232 30.6379 39.1702 30.5627C39.1082 30.4876 39.0831 30.3887 39.1017 30.2932L42.1806 14.4518C42.2104 14.2987 42.3446 14.1881 42.5007 14.1881H49.1365C51.222 14.1881 52.7743 14.7543 53.75 15.8713C54.7309 16.9941 55.0338 18.5637 54.6502 20.5363C54.4941 21.3399 54.2257 22.0863 53.8523 22.7545C53.4786 23.4235 52.9846 24.0424 52.3839 24.5946C51.6648 25.2676 50.8509 25.7556 49.9671 26.0427C49.0973 26.3261 47.9802 26.4698 46.6469 26.4698H43.9599L43.1926 30.4175C43.1628 30.5708 43.0287 30.6814 42.8726 30.6814H39.4217Z" fill="black"/>
<path d="M62.5627 26.4666C62.4653 26.4666 62.373 26.4231 62.3112 26.3479C62.2491 26.2728 62.224 26.174 62.2426 26.0783L63.6046 19.0692C63.7341 18.4026 63.7022 17.9241 63.5147 17.722C63.3999 17.5984 63.0551 17.3911 62.0358 17.3911H59.5683L57.856 26.2027C57.8262 26.3559 57.6919 26.4666 57.5359 26.4666H54.1122C54.0148 26.4666 53.9226 26.4231 53.8606 26.3479C53.7987 26.2728 53.7735 26.1739 53.7921 26.0783L56.871 10.237C56.9008 10.0839 57.035 9.97321 57.1911 9.97321H60.6148C60.7122 9.97321 60.8044 10.0167 60.8664 10.0918C60.9283 10.167 60.9534 10.2658 60.9349 10.3614L60.1919 14.1849H62.8462C64.8684 14.1849 66.2396 14.5413 67.0382 15.2748C67.8523 16.023 68.1063 17.2193 67.7933 18.8309L66.3608 26.2027C66.331 26.3559 66.1969 26.4666 66.0407 26.4666H62.5627Z" fill="black"/>
<path d="M73.2114 23.3178C74.5227 23.3178 75.5016 23.076 76.1211 22.5993C76.7338 22.1276 77.1571 21.3101 77.379 20.1698C77.5858 19.104 77.507 18.3598 77.1448 17.9582C76.7745 17.548 75.9739 17.34 74.7653 17.34H72.6697L71.5079 23.3178H73.2114ZM66.3573 30.6814C66.26 30.6814 66.1677 30.6379 66.1058 30.5627C66.0439 30.4876 66.0186 30.3887 66.0372 30.2932L69.1161 14.4518C69.146 14.2987 69.2801 14.1881 69.4363 14.1881H76.072C78.1576 14.1881 79.7098 14.7543 80.6856 15.8713C81.6665 16.994 81.9693 18.5636 81.5859 20.5363C81.4296 21.3399 81.1612 22.0863 80.7879 22.7545C80.4141 23.4235 79.9201 24.0424 79.3194 24.5946C78.6003 25.2676 77.7865 25.7556 76.9026 26.0427C76.0328 26.3261 74.9157 26.4698 73.5824 26.4698H70.8954L70.1283 30.4175C70.0985 30.5708 69.9643 30.6814 69.8081 30.6814H66.3573Z" fill="black"/>
</svg>
