<svg width="120" height="43" viewBox="0 0 120 43" fill="none" xmlns="http://www.w3.org/2000/svg">
<path d="M77.4963 24.1982C75.8011 24.2078 74.3335 24.6149 73.1021 25.2212C72.6473 24.3214 72.1926 23.5357 72.1171 22.9487C72.0319 22.2668 71.9274 21.8501 72.0319 21.0354C72.1364 20.2207 72.6099 19.0654 72.6099 18.9712C72.6002 18.8861 72.5067 18.4693 71.5301 18.4597C70.5534 18.45 69.711 18.6493 69.6168 18.9112C69.4478 19.3842 69.3118 19.8683 69.2098 20.36C69.0395 21.2502 67.2591 24.4046 66.2457 26.0611C65.9141 25.4173 65.6303 24.8484 65.5735 24.3943C65.4884 23.7124 65.3839 23.2957 65.4884 22.481C65.5929 21.6663 66.0664 20.511 66.0664 20.4168C66.0567 20.3316 65.9632 19.9149 64.9865 19.9053C64.0099 19.8956 63.1675 20.0949 63.0733 20.3568C62.9791 20.6187 62.8746 21.2186 62.6669 21.8056C62.4682 22.3862 60.1008 27.6583 59.4848 29.0303C59.1726 29.7309 58.9042 30.2901 58.6978 30.6688C58.4914 31.0475 58.6881 30.6972 58.6694 30.7352L58.4049 31.2371V31.2468C58.2721 31.4835 58.1301 31.7112 58.0631 31.7112C58.016 31.7112 57.9211 31.0765 58.0824 30.2056C58.4327 28.3782 59.2848 25.5276 59.2758 25.4231C59.2758 25.376 59.437 24.8748 58.7275 24.6181C58.036 24.3626 57.7902 24.7884 57.7341 24.7884C57.678 24.7884 57.6309 24.94 57.6309 24.94C57.6309 24.94 58.3985 21.7295 56.1627 21.7295C54.761 21.7295 52.829 23.2544 51.873 24.6465L47.0434 27.2887L46.9402 27.1751C44.2309 24.2865 39.222 22.2404 39.4304 18.3584C39.5058 16.9476 39.998 13.2256 49.0522 8.7179C56.4672 5.0249 62.405 6.03765 63.4371 8.29215C64.9053 11.511 60.2647 17.4972 52.5561 18.359C49.6211 18.6906 48.0768 17.554 47.6885 17.1282C47.2821 16.6767 47.224 16.6638 47.0731 16.7496C46.8267 16.8825 46.9783 17.2798 47.0731 17.5172C47.3002 18.1139 48.2471 19.175 49.8572 19.704C51.2679 20.1684 54.7145 20.4239 58.8816 18.8138C63.5474 16.985 67.1933 11.9729 66.1238 7.77675C65.0336 3.50578 57.9508 2.10469 51.255 4.48176C47.2685 5.90283 42.9505 8.11799 39.8439 11.0246C36.1509 14.4719 35.5632 17.483 35.8096 18.7332C36.6714 23.1938 42.8176 26.1011 45.2792 28.2505L44.9373 28.4401C43.7065 29.0465 39.0188 31.499 37.8442 34.0934C36.5185 37.0285 38.0525 39.1411 39.0749 39.4249C42.2377 40.3054 45.4766 38.7244 47.2286 36.1196C48.9702 33.5155 48.7625 30.1347 47.9575 28.5917L47.9291 28.5349L48.8948 27.9673C49.4822 27.6222 50.0758 27.2876 50.6751 26.9635C50.372 27.7873 50.1546 28.7633 50.0404 30.1824C49.9075 31.8493 50.5887 34.0077 51.4892 34.8604C51.8872 35.23 52.36 35.2391 52.6542 35.2391C53.696 35.2391 54.1701 34.3773 54.69 33.3452C55.3338 32.0854 55.9027 30.6275 55.9027 30.6275C55.9027 30.6275 55.1932 34.5766 57.1335 34.5766C57.8431 34.5766 58.554 33.658 58.8752 33.1845V33.1942C58.8752 33.1942 58.8945 33.1658 58.932 33.0994C59.0074 32.9859 59.0455 32.9188 59.0455 32.9188V32.8994C59.3293 32.4072 59.9641 31.2868 60.911 29.4141C62.1328 27.0081 63.3068 23.9975 63.3068 23.9975C63.3068 23.9975 63.4203 24.7361 63.7712 25.9482C63.9796 26.6681 64.4344 27.4538 64.784 28.2208L64.3292 28.8465L64.3389 28.8562C64.1118 29.1593 63.8551 29.4819 63.5906 29.8031C62.625 30.9578 61.4696 32.275 61.3181 32.6543C61.1374 33.1059 61.1761 33.431 61.5264 33.6961C61.7819 33.8857 62.236 33.9232 62.7198 33.8857C63.5906 33.829 64.2034 33.6109 64.5002 33.4793C65.0468 33.2845 65.5632 33.0135 66.0341 32.6743C66.9811 31.9738 67.5591 30.9791 67.5023 29.6535C67.4739 28.9245 67.2378 28.2047 66.9437 27.5228L67.1991 27.1442C68.6957 24.9574 69.8503 22.5513 69.8503 22.5513C69.8503 22.5513 69.9639 23.2899 70.3148 24.502C70.4954 25.1174 70.8547 25.7902 71.1766 26.4527C69.7749 27.5983 68.8943 28.9245 68.5912 29.7954C68.0325 31.4055 68.4686 32.1344 69.2917 32.3111C69.6613 32.3866 70.1916 32.2163 70.5883 32.0467C71.0805 31.8854 71.6771 31.6112 72.2267 31.2036C73.1737 30.503 74.0826 29.5277 74.0355 28.2105C74.0071 27.6041 73.8459 27.0081 73.6291 26.4398C74.8225 25.9476 76.3661 25.6631 78.3265 25.8998C82.5407 26.392 83.3741 29.0252 83.2128 30.1237C83.0516 31.2223 82.1711 31.8286 81.8776 32.0176C81.5841 32.1982 81.4892 32.264 81.5176 32.3963C81.5563 32.595 81.6879 32.5859 81.9434 32.5479C82.2936 32.4911 84.1592 31.648 84.2353 29.6219C84.3488 27.0177 81.8769 24.1775 77.4924 24.2053L77.4963 24.1982ZM44.996 35.1546C43.6039 36.6795 41.6436 37.2575 40.8095 36.7647C39.9096 36.2441 40.2612 33.9993 41.9745 32.3802C43.0163 31.3951 44.3703 30.4862 45.2605 29.9276L46.1223 29.4071C46.179 29.3683 46.2171 29.3503 46.2171 29.3503C46.2835 29.3116 46.359 29.2651 46.4351 29.2174C47.0699 31.528 46.4635 33.5548 44.9966 35.1552L44.996 35.1546ZM55.1764 28.2317C54.6926 29.4154 53.6708 32.4556 53.0554 32.2847C52.5252 32.1428 52.2039 29.8412 52.9522 27.5693C53.3309 26.4236 54.1359 25.0535 54.61 24.5291C55.3777 23.6776 56.2098 23.3925 56.4188 23.7434C56.6652 24.1982 55.4815 27.4938 55.1783 28.233L55.1764 28.2317ZM63.5758 32.2473C63.3674 32.3505 63.1778 32.4279 63.092 32.3698C63.0255 32.3311 63.1771 32.1892 63.1771 32.1892C63.1771 32.1892 64.2286 31.0623 64.6453 30.5417L65.469 29.4903V29.6038C65.469 30.9675 64.1621 31.8764 63.5751 32.246L63.5758 32.2473ZM70.0535 30.7636C69.9019 30.6501 69.9206 30.2992 70.4322 29.2013C70.6309 28.7659 71.0856 28.0363 71.8707 27.3454C71.9655 27.6293 72.0223 27.9041 72.0126 28.1601C72.0029 29.865 70.7908 30.4991 70.0516 30.7643L70.0535 30.7636Z" fill="#E0EEEE"/>
</svg>
