<svg width="120" height="43" viewBox="0 0 120 43" fill="none" xmlns="http://www.w3.org/2000/svg">
<path d="M33.1369 13.1138C33.1185 12.9797 33.0013 12.9053 32.9041 12.8972C32.8076 12.8891 30.9169 12.8604 30.9169 12.8604C30.9169 12.8604 29.3358 11.3249 29.1796 11.1687C29.0234 11.0125 28.7183 11.0596 28.5997 11.095C28.5983 11.0957 28.3028 11.1871 27.8055 11.3411C27.7222 11.0714 27.5999 10.7399 27.4253 10.4068C26.8624 9.33259 26.0379 8.76452 25.0417 8.76305C25.0403 8.76305 25.0395 8.76305 25.0381 8.76305C24.9688 8.76305 24.9003 8.76968 24.8311 8.77557C24.8016 8.74021 24.7721 8.70558 24.7412 8.67169C24.3072 8.20751 23.7509 7.98131 23.0841 8.00121C21.7977 8.03805 20.5164 8.96714 19.4775 10.6176C18.7466 11.7787 18.1903 13.2376 18.0327 14.3671C16.5554 14.8246 15.5224 15.1444 15.4996 15.1518C14.7539 15.3861 14.7304 15.4089 14.6331 16.1118C14.5609 16.643 12.6099 31.7296 12.6099 31.7296L28.96 34.5574L36.0465 32.7957C36.0465 32.7957 33.1553 13.2479 33.1369 13.1138ZM26.9869 11.5945C26.6104 11.711 26.1823 11.8436 25.7181 11.9873C25.7086 11.3359 25.6312 10.4297 25.3276 9.64646C26.3039 9.8314 26.7843 10.9359 26.9869 11.5945ZM24.8627 12.2525C24.0058 12.5177 23.0708 12.8073 22.1329 13.0976C22.3967 12.0875 22.897 11.0817 23.5115 10.4223C23.7399 10.177 24.0596 9.9036 24.4383 9.7474C24.7942 10.4901 24.8716 11.5415 24.8627 12.2525ZM23.1099 8.85736C23.412 8.85073 23.6662 8.91704 23.8835 9.05998C23.5358 9.24049 23.1998 9.49984 22.8844 9.83803C22.0673 10.7148 21.441 12.0757 21.1913 13.3886C20.4125 13.6296 19.6506 13.8661 18.9492 14.0827C19.3921 12.016 21.1242 8.91483 23.1099 8.85736Z" fill="#E0EEEE"/>
<path d="M32.905 12.8976C32.8085 12.8895 30.9179 12.8607 30.9179 12.8607C30.9179 12.8607 29.3367 11.3253 29.1805 11.1691C29.1223 11.1108 29.0435 11.0806 28.9609 11.0681L28.9617 34.5563L36.0474 32.7954C36.0474 32.7954 33.1563 13.2483 33.1378 13.1142C33.1194 12.9801 33.0015 12.9057 32.905 12.8976Z" fill="#E0EEEE"/>
<path d="M25.0329 16.5419L24.21 19.6209C24.21 19.6209 23.2919 19.2031 22.2037 19.2717C20.6078 19.3726 20.5908 20.3791 20.6071 20.6318C20.694 22.0088 24.3168 22.3095 24.5202 25.5351C24.68 28.0726 23.174 29.8085 21.0042 29.9456C18.3996 30.1099 16.9658 28.5736 16.9658 28.5736L17.5177 26.2262C17.5177 26.2262 18.961 27.3152 20.1163 27.2423C20.8708 27.1944 21.1405 26.5806 21.1132 26.1467C20.9998 24.3504 18.0496 24.4565 17.8632 21.5049C17.7063 19.0212 19.3376 16.5043 22.9368 16.2773C24.3234 16.1882 25.0329 16.5419 25.0329 16.5419Z" fill="#161616"/>
<path d="M45.3781 22.9886C44.5633 22.5464 44.1445 22.1738 44.1445 21.6615C44.1445 21.0096 44.7262 20.5908 45.6346 20.5908C46.692 20.5908 47.6362 21.033 47.6362 21.033L48.3808 18.7515C48.3808 18.7515 47.6961 18.2158 45.6806 18.2158C42.8758 18.2158 40.932 19.8221 40.932 22.0802C40.932 23.3605 41.8396 24.3383 43.0505 25.0362C44.0283 25.5945 44.3776 25.9906 44.3776 26.5723C44.3776 27.1774 43.8887 27.6663 42.9811 27.6663C41.6284 27.6663 40.351 26.9677 40.351 26.9677L39.5596 29.2492C39.5596 29.2492 40.7398 30.0406 42.7253 30.0406C45.6119 30.0406 47.6837 28.6207 47.6837 26.06C47.683 24.6876 46.6357 23.7098 45.3781 22.9886Z" fill="#E0EEEE"/>
<path d="M56.878 18.1934C55.4579 18.1934 54.3406 18.8687 53.4797 19.8925L53.4329 19.8691L54.6665 13.4214H51.454L48.335 29.8319H51.5475L52.6181 24.2224C53.0368 22.1038 54.1308 20.8009 55.1554 20.8009C55.8766 20.8009 56.1566 21.2897 56.1566 21.9884C56.1566 22.4305 56.1098 22.9662 56.017 23.4083L54.8068 29.8326H58.0195L59.2761 23.1985C59.416 22.4999 59.5093 21.6625 59.5093 21.1034C59.508 19.2874 58.5537 18.1934 56.878 18.1934Z" fill="#E0EEEE"/>
<path d="M66.7704 18.1934C62.9059 18.1934 60.3462 21.6851 60.3462 25.5721C60.3462 28.0626 61.8821 30.0643 64.7689 30.0643C68.5631 30.0643 71.1236 26.6661 71.1236 22.6855C71.1236 20.3813 69.7732 18.1934 66.7704 18.1934ZM65.1876 27.5978C64.0934 27.5978 63.6278 26.6668 63.6278 25.5027C63.6278 23.664 64.5825 20.6613 66.3282 20.6613C67.4689 20.6613 67.8407 21.639 67.8407 22.5934C67.8407 24.5717 66.8873 27.5978 65.1876 27.5978Z" fill="#E0EEEE"/>
<path d="M79.3408 18.1934C77.1724 18.1934 75.9419 20.1022 75.9419 20.1022H75.8958L76.0822 18.3797H73.2423C73.1029 19.5438 72.8462 21.3124 72.5908 22.6395L70.356 34.3941H73.5685L74.4524 29.6455H74.5228C74.5228 29.6455 75.1819 30.0643 76.4084 30.0643C80.1791 30.0643 82.6463 26.2006 82.6463 22.2894C82.6463 20.1256 81.6915 18.1934 79.3408 18.1934ZM76.2681 27.6439C75.4342 27.6439 74.9407 27.1784 74.9407 27.1784L75.4762 24.1756C75.8489 22.174 76.8962 20.8468 78.0138 20.8468C78.9915 20.8468 79.2939 21.7545 79.2939 22.6161C79.2939 24.6878 78.0603 27.6439 76.2681 27.6439Z" fill="#E0EEEE"/>
<path d="M87.2317 13.5847C86.2079 13.5847 85.3931 14.3995 85.3931 15.4467C85.3931 16.4012 85.9981 17.053 86.906 17.053H86.9524C87.9536 17.053 88.8145 16.3778 88.838 15.191C88.838 14.2599 88.2095 13.5847 87.2317 13.5847Z" fill="#E0EEEE"/>
<path d="M82.7397 29.8319H85.9514L88.1402 18.45H84.9042L82.7397 29.8319Z" fill="#E0EEEE"/>
<path d="M96.3104 18.4262H94.0756L94.1916 17.8906C94.3779 16.7966 95.0299 15.8188 96.1006 15.8188C96.6721 15.8188 97.1244 15.9818 97.1244 15.9818L97.7529 13.4679C97.7529 13.4679 97.1944 13.1887 96.0068 13.1887C94.8662 13.1887 93.7264 13.5146 92.8646 14.2593C91.7704 15.1904 91.2583 16.5401 91.0025 17.8906L90.91 18.4262H89.4197L88.954 20.8473H90.4444L88.7451 29.8323H91.9577L93.6569 20.8473H95.8683L96.3104 18.4262Z" fill="#E0EEEE"/>
<path d="M104.038 18.45C104.038 18.45 102.03 23.5092 101.128 26.2708H101.082C101.02 25.3815 100.29 18.45 100.29 18.45H96.9147L98.8476 28.9009C98.8945 29.1333 98.8711 29.2736 98.7777 29.4365C98.4045 30.1578 97.7764 30.8565 97.0315 31.3688C96.4264 31.8109 95.7514 32.09 95.2163 32.2764L96.1007 35C96.7527 34.8605 98.1022 34.3248 99.2429 33.2542C100.71 31.881 102.059 29.7625 103.456 26.8759L107.39 18.4492H104.038V18.45Z" fill="#E0EEEE"/>
</svg>
