<svg width="120" height="43" viewBox="0 0 120 43" fill="none" xmlns="http://www.w3.org/2000/svg">
<path fill-rule="evenodd" clip-rule="evenodd" d="M48.1976 24.2288L48.1835 24.0401H47.9944H46.8203H46.6079L46.6166 24.2523C46.7135 26.6163 48.3072 28.1821 51.1416 28.1821C53.8449 28.1821 55.6831 26.7776 55.6831 24.6516C55.6831 23.5021 55.2843 22.6886 54.5243 22.133C53.9397 21.7057 53.2408 21.4648 52.0817 21.2135C52.0042 21.1967 51.9235 21.1795 51.8268 21.1591C51.7694 21.1471 51.5633 21.1039 51.5742 21.1062C49.4693 20.6649 48.8016 20.2816 48.8016 19.1399C48.8016 17.9593 49.767 17.2075 51.3862 17.2075C52.9616 17.2075 53.9572 18.1697 54.0036 19.6843L54.0096 19.8819H54.2073H55.3651H55.5737L55.5689 19.6733C55.5144 17.3125 53.9304 15.7236 51.3699 15.7236C48.8604 15.7236 47.2035 17.2336 47.2035 19.1888C47.2035 20.3351 47.6019 21.1334 48.363 21.6668C48.9429 22.0731 49.6146 22.2885 50.7996 22.5277C50.8551 22.5389 50.913 22.5505 50.9819 22.5642C51.0246 22.5726 51.0728 22.5822 51.1632 22.6C52.2844 22.8219 52.7791 22.9588 53.2304 23.2212C53.7907 23.547 54.0687 24.0124 54.0687 24.7332C54.0687 25.9847 53.0164 26.6982 51.1742 26.6982C49.4106 26.6982 48.3161 25.8137 48.1976 24.2288ZM58.9853 15.5198V15.3159H58.7814H57.6236H57.4198V15.5198V27.75V27.9538H57.6236H58.7814H58.9853V27.75V25.5693L60.6331 23.9644L63.5759 27.8726L63.6371 27.9538H63.7387H65.1738H65.5844L65.3361 27.6267L61.7422 22.8929L65.0566 19.5942L65.4066 19.2459H64.9128H63.3637H63.2788L63.219 19.3061L58.9853 23.57V15.5198ZM73.6126 24.138H73.8041L73.816 23.9469C73.8181 23.9132 73.8213 23.8577 73.8244 23.7907C73.8268 23.7377 73.8289 23.6861 73.8303 23.6373C73.8319 23.5844 73.8328 23.5363 73.8328 23.4939C73.8328 20.9354 72.1381 19.0502 69.6337 19.0502C67.134 19.0502 65.3531 21.0569 65.3531 23.5917C65.3531 26.2001 67.0533 28.1495 69.65 28.1495C71.6135 28.1495 73.1304 26.9845 73.6769 25.2174L73.7586 24.9533H73.4821H72.2754H72.1315L72.0833 25.089C71.7401 26.0562 70.811 26.6982 69.6663 26.6982C68.1699 26.6982 67.1267 25.6705 66.9388 24.138H73.6126ZM66.9862 22.7845C67.2505 21.4123 68.2597 20.5015 69.6337 20.5015C71.0499 20.5015 72.0273 21.3824 72.2411 22.7845H66.9862ZM78.9694 20.632H79.1733V20.4281V19.4497V19.2459H78.9694H77.2654V17.0852V16.8814H77.0615H75.9037H75.6999V17.0852V19.2459H74.322H74.1181V19.4497V20.4281V20.632H74.322H75.6999V25.5159C75.6999 27.1181 76.5309 27.9864 78.0562 27.9864C78.3225 27.9864 78.552 27.9705 78.7447 27.9437C78.8638 27.9272 78.946 27.91 78.9914 27.8975L79.1407 27.856V27.7011V26.6574V26.4045L78.8935 26.4582C78.8836 26.4604 78.8636 26.4644 78.8351 26.4698C78.7866 26.4789 78.7327 26.488 78.6748 26.4965C78.5266 26.5183 78.3796 26.5323 78.2442 26.5347C78.2303 26.535 78.2166 26.5351 78.203 26.5351C77.5348 26.5351 77.2654 26.2212 77.2654 25.4344V20.632H78.9694ZM83.8371 28.1495C86.0039 28.1495 87.5339 26.7783 87.9181 24.838L87.9663 24.5946H87.7181H86.544H86.3873L86.347 24.746C86.0179 25.9843 85.1245 26.6982 83.8371 26.6982C82.2304 26.6982 81.122 25.4308 81.122 23.608C81.122 21.7711 82.2285 20.5015 83.8371 20.5015C85.1245 20.5015 86.0179 21.2154 86.347 22.4537L86.3873 22.6051H86.544H87.7181H87.9663L87.9181 22.3617C87.5339 20.4214 86.0039 19.0502 83.8371 19.0502C81.32 19.0502 79.5402 21.0711 79.5402 23.608C79.5402 26.131 81.3224 28.1495 83.8371 28.1495ZM90.8491 15.5198V15.3159H90.6452H89.4874H89.2836V15.5198V27.75V27.9538H89.4874H90.6452H90.8491V27.75V22.8416C90.8491 21.3461 91.7593 20.4689 93.1402 20.4689C94.459 20.4689 95.1215 21.2324 95.1215 22.6785V27.75V27.9538H95.3253H96.4831H96.687V27.75V22.4502C96.687 20.4075 95.4221 19.0502 93.3359 19.0502C92.2626 19.0502 91.3999 19.4434 90.8491 20.0078V15.5198Z" fill="#E0EEEE"/>
<path d="M24.0149 17.9406L23.313 18.8855H26.7471L27.009 13.9259L24.0149 17.9406ZM38.0096 13.5199L33.1297 13L38.279 18.5857L38.0096 13.5199ZM27.229 20.0694L26.804 19.2346H23.3472L31.8813 29.1652L27.229 20.0694ZM27.3049 18.8855H38.0817L34.9891 15.5273L32.6971 13.038L27.3049 18.8855ZM38.5863 19.2308L33.5054 29.1652L42.0357 19.2346H38.5863V19.2308ZM38.7343 14.404L38.3776 13.9259L38.4118 14.5824L38.6433 18.8855H42.0699L38.7343 14.404ZM27.2784 15.3337L27.1039 18.5819L32.257 13L27.377 13.5199L27.2784 15.3337ZM38.1955 19.2308H27.1911L28.8 22.3765L32.6971 30L38.1955 19.2308Z" fill="#E0EEEE"/>
</svg>
