<svg width="120" height="43" viewBox="0 0 120 43" fill="none" xmlns="http://www.w3.org/2000/svg">
<path d="M46.567 5.83521C42.9048 5.83521 40.616 7.66629 39.7006 11.3287C41.074 9.49737 42.6763 8.81068 44.5074 9.26864C45.5521 9.52956 46.2988 10.2879 47.1254 11.1267C48.4718 12.4933 50.0302 14.0752 53.4341 14.0752C57.0963 14.0752 59.385 12.2441 60.3007 8.5817C58.9273 10.413 57.325 11.0997 55.4939 10.6418C54.4492 10.3808 53.7025 9.6225 52.8759 8.78368C51.5293 7.41705 49.9711 5.83521 46.567 5.83521ZM39.7006 14.0752C36.0384 14.0752 33.7497 15.9063 32.834 19.5687C34.2074 17.7374 35.8095 17.0507 37.6405 17.5086C38.6855 17.7701 39.4319 18.5279 40.2585 19.3667C41.6049 20.7333 43.1636 22.3152 46.5672 22.3152C50.2296 22.3152 52.5184 20.4841 53.4341 16.8217C52.0607 18.653 50.4584 19.3397 48.6273 18.8818C47.5826 18.6208 46.8359 17.8625 46.0093 17.0239C44.6629 15.657 43.1044 14.0752 39.7006 14.0752Z" fill="#E0EEEE"/>
<path d="M17.2679 29.2594H14.8713V33.8982C14.8713 35.1353 15.6829 35.1158 17.2679 35.0384V36.9134C14.0595 37.3 12.7837 36.4108 12.7837 33.8982V29.2594H11.0054V27.2491H12.7837V24.653L14.8711 24.0346V27.2491H17.2679V29.2594ZM26.4043 27.2491H28.4916V36.9136H26.4043V35.5221C25.6696 36.5463 24.5294 37.165 23.0215 37.165C20.3931 37.165 18.209 34.9421 18.209 32.0817C18.209 29.2017 20.3931 26.9983 23.0218 26.9983C24.5294 26.9983 25.6698 27.6168 26.4043 28.6217V27.2491ZM23.3502 35.1742C25.0896 35.1742 26.4043 33.879 26.4043 32.0817C26.4043 30.2843 25.0899 28.9891 23.3502 28.9891C21.6105 28.9891 20.2963 30.2841 20.2963 32.0817C20.2963 33.8792 21.6107 35.1742 23.3502 35.1742ZM31.9708 25.7994C31.236 25.7994 30.6371 25.1808 30.6371 24.4655C30.6378 24.112 30.7785 23.7732 31.0285 23.5232C31.2784 23.2733 31.6173 23.1326 31.9708 23.1319C32.3243 23.1326 32.6631 23.2733 32.913 23.5232C33.163 23.7732 33.3037 24.112 33.3044 24.4655C33.3044 25.1808 32.7052 25.7994 31.9708 25.7994ZM30.9271 36.9131V27.2491H33.0144V36.9136L30.9271 36.9131ZM35.4304 36.9131V22.8037H37.518V36.9134L35.4304 36.9131ZM51.0672 27.2489H53.2705L50.2361 36.9136H48.1872L46.177 30.3999L44.1476 36.9136H42.0989L39.0643 27.2494H41.2677L43.1426 33.9177L45.172 27.2494H47.1628L49.173 33.9177L51.0672 27.2489ZM55.8607 25.7994C55.126 25.7994 54.5271 25.1808 54.5271 24.4655C54.5278 24.112 54.6685 23.7732 54.9185 23.5232C55.1684 23.2733 55.5072 23.1326 55.8607 23.1319C56.2142 23.1326 56.5531 23.2733 56.803 23.5232C57.053 23.7732 57.1937 24.112 57.1944 24.4655C57.1944 25.1808 56.5952 25.7994 55.8607 25.7994ZM54.8171 36.9131V27.2491H56.9044V36.9136L54.8171 36.9131ZM64.4037 26.9976C66.5687 26.9976 68.1149 28.4667 68.1149 30.9793V36.9131H66.0276V31.1922C66.0276 29.7233 65.1768 28.9501 63.8624 28.9501C62.4903 28.9501 61.408 29.762 61.408 31.7332V36.9136H59.3207V27.2491H61.408V28.4862C62.0459 27.4812 63.0895 26.9978 64.404 26.9978L64.4037 26.9976ZM78.0113 23.3834H80.0986V36.9136H78.0113V35.5221C77.2766 36.5463 76.1363 37.165 74.6287 37.165C72.0001 37.165 69.8159 34.9421 69.8159 32.0817C69.8159 29.2017 72.0001 26.9983 74.6287 26.9983C76.1363 26.9983 77.2768 27.6168 78.0113 28.6217V23.3834ZM74.9571 35.1742C76.6966 35.1742 78.011 33.879 78.011 32.0817C78.011 30.2843 76.6966 28.9891 74.9571 28.9891C73.2177 28.9891 71.9033 30.2841 71.9033 32.0817C71.9033 33.8792 73.2174 35.1742 74.9571 35.1742ZM87.0953 37.165C84.1767 37.165 81.9928 34.9421 81.9928 32.0817C81.9928 29.2017 84.1767 26.9983 87.0953 26.9983C88.9895 26.9983 90.6326 27.9839 91.4057 29.4915L89.6081 30.5351C89.1829 29.627 88.2358 29.047 87.0761 29.047C85.3751 29.047 84.0801 30.342 84.0801 32.0817C84.0801 33.8213 85.3751 35.1161 87.0761 35.1161C88.2358 35.1161 89.1829 34.5169 89.6468 33.6279L91.4441 34.6521C90.6326 36.1792 88.9895 37.165 87.0956 37.165H87.0953ZM94.8846 29.9167C94.8846 31.6756 100.084 30.6125 100.084 34.1884C100.084 36.1213 98.4024 37.165 96.3151 37.165C94.3822 37.165 92.9904 36.2952 92.372 34.9037L94.1696 33.8598C94.4788 34.7295 95.2519 35.2513 96.3151 35.2513C97.2427 35.2513 97.9579 34.9424 97.9579 34.169C97.9579 32.4487 92.7586 33.4153 92.7586 29.9554C92.7586 28.1386 94.3241 26.9983 96.2956 26.9983C97.8806 26.9983 99.195 27.7325 99.8713 29.0083L98.1127 29.9941C97.7648 29.2404 97.0882 28.8923 96.2956 28.8923C95.5419 28.8923 94.8846 29.2209 94.8846 29.9167ZM103.795 29.9167C103.795 31.6756 108.995 30.6125 108.995 34.1884C108.995 36.1213 107.313 37.165 105.225 37.165C103.293 37.165 101.901 36.2952 101.282 34.9037L103.08 33.8598C103.389 34.7295 104.163 35.2513 105.225 35.2513C106.153 35.2513 106.868 34.9424 106.868 34.169C106.868 32.4487 101.669 33.4153 101.669 29.9554C101.669 28.1386 103.234 26.9983 105.206 26.9983C106.791 26.9983 108.105 27.7325 108.782 29.0083L107.023 29.9941C106.675 29.2404 105.999 28.8923 105.206 28.8923C104.452 28.8923 103.795 29.2209 103.795 29.9167Z" fill="#E0EEEE"/>
</svg>
