<svg width="120" height="43" viewBox="0 0 120 43" fill="none" xmlns="http://www.w3.org/2000/svg">
<path d="M69.5977 18.6062H64.874V19.1073C66.3515 19.1073 66.5891 19.424 66.5891 21.2978V24.6758C66.5891 26.5493 66.3517 26.8924 64.874 26.8924C63.7395 26.7342 62.9739 26.1271 61.9184 24.966L60.7046 23.6466C62.3406 23.356 63.2113 22.3271 63.2113 21.1658C63.2113 19.7146 61.9713 18.6062 59.6488 18.6062H55.0044V19.1073C56.482 19.1073 56.7195 19.424 56.7195 21.2978V24.6758C56.7195 26.5493 56.482 26.8924 55.0044 26.8924V27.3938H60.2557V26.8924C58.7782 26.8924 58.5406 26.5493 58.5406 24.6758V23.726H58.9891L61.9184 27.3938H69.5977C73.3713 27.3938 75.0075 25.3884 75.0075 22.9866C75.0075 20.5853 73.3715 18.6062 69.5977 18.6062ZM58.5408 22.9073V19.398H59.6226C60.8099 19.398 61.3379 20.216 61.3379 21.166C61.3379 22.0898 60.8099 22.9075 59.6226 22.9075L58.5408 22.9073ZM69.6771 26.5758H69.4922C68.5424 26.5758 68.4104 26.3384 68.4104 25.1244V19.398C68.4104 19.398 69.5715 19.398 69.6771 19.398C72.4215 19.398 72.9226 21.4033 72.9226 22.9604C72.9226 24.57 72.4213 26.5758 69.6771 26.5758Z" fill="#E0EEEE"/>
<path d="M40.3064 23.8802L42.1272 18.4965C42.6552 16.9396 42.4177 16.4911 40.7288 16.4911V15.9631H45.6899V16.4911C44.0275 16.4911 43.6317 16.8869 42.9719 18.8134L39.9632 27.8385H39.6204L36.9284 19.5785L34.1841 27.8385H33.841L30.9119 18.8134C30.2786 16.8869 29.8564 16.4911 28.3257 16.4911V15.9631H34.1841V16.4911C32.627 16.4911 32.2046 16.8605 32.759 18.4965L34.527 23.8802L37.1924 15.9631H37.6939L40.3064 23.8802Z" fill="#E0EEEE"/>
<path d="M49.2783 27.7323C46.3756 27.7323 44.0005 25.595 44.0005 22.9821C44.0005 20.3961 46.3758 18.2583 49.2783 18.2583C52.1812 18.2583 54.556 20.3961 54.556 22.9821C54.556 25.595 52.1812 27.7323 49.2783 27.7323ZM49.2783 19.077C46.8507 19.077 46.006 21.267 46.006 22.9823C46.006 24.7243 46.8507 26.8881 49.2783 26.8881C51.7327 26.8881 52.5772 24.7243 52.5772 22.9823C52.5772 21.267 51.7327 19.077 49.2783 19.077Z" fill="#E0EEEE"/>
<path d="M81.525 26.8622V27.39H75.4819V26.8622C77.2502 26.8622 77.5668 26.4138 77.5668 23.7745V19.5525C77.5668 16.9131 77.2502 16.4911 75.4819 16.4911V15.9631H80.9444C83.6624 15.9631 85.167 17.3618 85.167 19.2358C85.167 21.0567 83.6624 22.4816 80.9444 22.4816H79.4402V23.7742C79.4402 26.4138 79.7568 26.8622 81.525 26.8622ZM80.9444 16.9131H79.4402V21.5051H80.9444C82.4224 21.5051 83.1084 20.476 83.1084 19.2358C83.1084 17.9691 82.4224 16.9131 80.9444 16.9131Z" fill="#E0EEEE"/>
<path d="M103.296 24.9133L103.164 25.3882C102.927 26.2591 102.636 26.5758 100.762 26.5758H100.393C99.0208 26.5758 98.7833 26.2591 98.7833 24.3855V23.1718C100.842 23.1718 101 23.3562 101 24.7286H101.501V20.7964H101C101 22.1686 100.842 22.3533 98.7833 22.3533V19.398H100.234C102.108 19.398 102.398 19.7146 102.636 20.5855L102.768 21.0866H103.19L103.006 18.6062H95.247V19.1073C96.7246 19.1073 96.9624 19.424 96.9624 21.2978V24.6758C96.9624 26.3898 96.7606 26.8215 95.5955 26.8831C94.4881 26.714 93.7279 26.11 92.6877 24.966L91.4737 23.6466C93.1099 23.356 93.9808 22.3271 93.9808 21.1658C93.9808 19.7146 92.7406 18.6062 90.4184 18.6062H85.7739V19.1073C87.2515 19.1073 87.489 19.424 87.489 21.2978V24.6758C87.489 26.5493 87.2517 26.8924 85.7739 26.8924V27.3938H91.0255V26.8924C89.5479 26.8924 89.3101 26.5493 89.3101 24.6758V23.726H89.7588L92.6879 27.3938H103.534L103.692 24.9135L103.296 24.9133ZM89.3099 22.9073V19.398H90.3917C91.5793 19.398 92.1073 20.216 92.1073 21.166C92.1073 22.0898 91.5793 22.9075 90.3917 22.9075L89.3099 22.9073Z" fill="#E0EEEE"/>
<path d="M108.653 27.7321C107.598 27.7321 106.674 27.1781 106.278 26.8347C106.146 26.967 105.909 27.3627 105.856 27.7321H105.354V24.0907H105.882C106.094 25.8323 107.307 26.8614 108.864 26.8614C109.709 26.8614 110.395 26.3865 110.395 25.595C110.395 24.909 109.788 24.381 108.706 23.8796L107.202 23.1672C106.146 22.6654 105.354 21.7945 105.354 20.6336C105.354 19.367 106.542 18.2852 108.178 18.2852C109.049 18.2852 109.788 18.6019 110.237 18.9712C110.368 18.8656 110.5 18.5752 110.58 18.2583H111.081V21.3725H110.527C110.342 20.1321 109.656 19.103 108.258 19.103C107.519 19.103 106.832 19.5252 106.832 20.1852C106.832 20.8712 107.386 21.2405 108.653 21.8212L110.104 22.5336C111.371 23.1405 111.872 24.1174 111.872 24.909C111.872 26.5712 110.421 27.7321 108.653 27.7321Z" fill="#E0EEEE"/>
<path d="M116.781 27.7321C115.725 27.7321 114.801 27.1781 114.406 26.8347C114.274 26.967 114.036 27.3627 113.984 27.7321H113.482V24.0907H114.01C114.221 25.8323 115.435 26.8614 116.992 26.8614C117.836 26.8614 118.523 26.3865 118.523 25.595C118.523 24.909 117.916 24.381 116.833 23.8796L115.329 23.1672C114.274 22.6654 113.482 21.7945 113.482 20.6336C113.482 19.367 114.669 18.2852 116.306 18.2852C117.177 18.2852 117.915 18.6019 118.364 18.9712C118.496 18.8656 118.628 18.5752 118.707 18.2583H119.208V21.3725H118.654C118.469 20.1321 117.783 19.103 116.385 19.103C115.646 19.103 114.96 19.5252 114.96 20.1852C114.96 20.8712 115.514 21.2405 116.781 21.8212L118.232 22.5336C119.499 23.1405 120 24.1174 120 24.909C120 26.5712 118.549 27.7321 116.781 27.7321Z" fill="#E0EEEE"/>
<path d="M1.93506 21.4985C1.93506 26.1212 4.6215 30.116 8.51706 32.0092L2.94617 16.7456C2.29817 18.198 1.93506 19.8054 1.93506 21.4985Z" fill="#E0EEEE"/>
<path d="M21.4977 20.9097C21.4977 19.4664 20.9793 18.4668 20.5346 17.6888C19.9426 16.7268 19.3877 15.9121 19.3877 14.9501C19.3877 13.8766 20.202 12.8772 21.3488 12.8772C21.4006 12.8772 21.4497 12.8837 21.5002 12.8866C19.4224 10.983 16.6542 9.8208 13.6137 9.8208C9.53374 9.8208 5.94418 11.9141 3.85596 15.0848C4.12996 15.093 4.38818 15.0988 4.60751 15.0988C5.82907 15.0988 7.71996 14.9506 7.71996 14.9506C8.34951 14.9135 8.42374 15.8381 7.79485 15.9126C7.79485 15.9126 7.16218 15.987 6.45818 16.0239L10.7111 28.6739L13.2668 21.0088L11.4473 16.0235C10.8184 15.9866 10.2226 15.9121 10.2226 15.9121C9.59329 15.8752 9.66707 14.913 10.2964 14.9501C10.2964 14.9501 12.2251 15.0984 13.3726 15.0984C14.594 15.0984 16.4851 14.9501 16.4851 14.9501C17.1151 14.913 17.1891 15.8377 16.56 15.9121C16.56 15.9121 15.926 15.9866 15.2233 16.0235L19.4437 28.5777L20.6086 24.685C21.1135 23.0697 21.4977 21.9095 21.4977 20.9097Z" fill="#E0EEEE"/>
<path d="M13.8185 22.522L10.3145 32.704C11.3607 33.0115 12.4671 33.1797 13.6136 33.1797C14.9736 33.1797 16.2778 32.9446 17.4918 32.5177C17.4605 32.4677 17.432 32.4146 17.4087 32.3569L13.8185 22.522Z" fill="#E0EEEE"/>
<path d="M23.8615 15.8965C23.9118 16.2685 23.9402 16.6678 23.9402 17.0974C23.9402 18.2825 23.7189 19.6147 23.0522 21.2805L19.4849 31.5945C22.9569 29.5698 25.2922 25.8083 25.2922 21.4998C25.2924 19.4694 24.7738 17.56 23.8615 15.8965Z" fill="#E0EEEE"/>
<path d="M13.6138 7.88623C6.10733 7.88623 0 13.9931 0 21.4996C0 29.0069 6.10733 35.1136 13.6138 35.1136C21.12 35.1136 27.2282 29.0069 27.2282 21.4996C27.228 13.9931 21.12 7.88623 13.6138 7.88623ZM13.6138 34.4896C6.45156 34.4896 0.624222 28.6622 0.624222 21.4996C0.624222 14.3373 6.45133 8.51045 13.6138 8.51045C20.7758 8.51045 26.6027 14.3373 26.6027 21.4996C26.6027 28.6622 20.7758 34.4896 13.6138 34.4896Z" fill="#E0EEEE"/>
</svg>
