<svg width="120" height="43" viewBox="0 0 120 43" fill="none" xmlns="http://www.w3.org/2000/svg">
<path d="M48.7392 4.5H71.2605C74.6751 4.5 77.4358 7.26068 77.4358 10.6752V32.3248C77.4358 35.7393 74.6751 38.5 71.2605 38.5H48.7392C45.3246 38.5 42.564 35.7393 42.564 32.3248V10.6752C42.564 7.26068 45.3246 4.5 48.7392 4.5Z" fill="#E0EEEE"/>
<path d="M60.9005 13.4338L56.5416 20.6261L61.1911 28.2543C61.2202 28.3124 61.2347 28.3705 61.2202 28.4286C61.2057 28.4868 61.1475 28.4432 61.0604 28.4577H57.733C57.5005 28.4577 57.3407 28.4432 57.239 28.2979C56.9339 27.6876 56.6142 27.0919 56.3091 26.4816C56.004 25.8859 55.6698 25.2757 55.3211 24.6509C54.9723 24.0261 54.6236 23.4013 54.2749 22.762H54.2458C53.9407 23.3868 53.6065 24.0115 53.2723 24.6363C52.9381 25.2611 52.604 25.8859 52.2843 26.4962C51.9501 27.1064 51.6159 27.7312 51.2817 28.3269C51.2236 28.4722 51.1074 28.4868 50.9475 28.4868H47.751C47.6928 28.4868 47.6493 28.5158 47.6493 28.4432C47.6347 28.3851 47.6493 28.3269 47.6783 28.2833L52.1971 20.8731L47.7946 13.4192C47.751 13.3611 47.7364 13.303 47.7655 13.2739C47.7946 13.2304 47.8527 13.2158 47.9108 13.2158H51.2091C51.2817 13.2158 51.3544 13.2304 51.4125 13.2449C51.4706 13.2739 51.5142 13.3175 51.5578 13.3756C51.8339 14.0004 52.1535 14.6252 52.4877 15.25C52.8364 15.8748 53.1706 16.4851 53.5339 17.0953C53.8826 17.7056 54.2022 18.3158 54.5074 18.9406H54.5364C54.8416 18.3013 55.1612 17.6765 55.4809 17.0662C55.8005 16.456 56.1347 15.8457 56.4689 15.2355C56.8031 14.6252 57.1228 14.0004 57.4424 13.4047C57.4569 13.3466 57.486 13.2885 57.5296 13.2594C57.5877 13.2304 57.6458 13.2158 57.7185 13.2304H60.7843C60.8569 13.2158 60.9296 13.2594 60.9441 13.3321C60.9587 13.3466 60.9296 13.4047 60.9005 13.4338Z" fill="black"/>
<path d="M67.6132 28.7645C66.538 28.7791 65.4628 28.5611 64.4893 28.1107C63.5739 27.6893 62.8184 26.9919 62.2953 26.1346C61.7577 25.2483 61.4962 24.144 61.4962 22.8218C61.4816 21.7466 61.7577 20.6859 62.2953 19.756C62.8474 18.8115 63.6466 18.0269 64.6056 17.5039C65.6226 16.9372 66.8432 16.6611 68.2816 16.6611C68.3543 16.6611 68.456 16.6611 68.5867 16.6757C68.7175 16.6902 68.8628 16.6902 69.0372 16.7047V12.1133C69.0372 12.0116 69.0808 11.9534 69.1825 11.9534H72.132C72.2047 11.9389 72.2628 11.997 72.2773 12.0551C72.2773 12.0697 72.2773 12.0842 72.2773 12.0842V25.9167C72.2773 26.1782 72.2919 26.4688 72.3064 26.7885C72.3355 27.0936 72.35 27.3842 72.3645 27.6312C72.3645 27.7329 72.3209 27.8201 72.2192 27.8637C71.4637 28.1833 70.6645 28.4158 69.8509 28.5611C69.1098 28.6919 68.3688 28.7645 67.6132 28.7645ZM69.0372 25.8586V19.4654C68.9064 19.4363 68.7756 19.4073 68.6449 19.3927C68.485 19.3782 68.3252 19.3637 68.1654 19.3637C67.5987 19.3637 67.032 19.4799 66.5235 19.7415C66.0295 19.9885 65.6081 20.3517 65.2885 20.8167C64.9688 21.2816 64.809 21.9064 64.809 22.662C64.7944 23.1705 64.8816 23.6791 65.056 24.1586C65.2013 24.5509 65.4192 24.8996 65.7098 25.1902C65.9859 25.4517 66.3201 25.6551 66.6979 25.7714C67.0902 25.9021 67.497 25.9603 67.9038 25.9603C68.1218 25.9603 68.3252 25.9457 68.5141 25.9312C68.703 25.9457 68.8628 25.9167 69.0372 25.8586Z" fill="black"/>
</svg>
