<svg width="200" height="60" viewBox="0 0 200 60" fill="none" xmlns="http://www.w3.org/2000/svg">
<path d="M8.23655 19.6225C9.26628 19.0746 10.4444 18.8012 11.7721 18.8012C13.3509 18.8012 14.7801 19.2011 16.0622 19.9996C17.343 20.7993 18.3563 21.9408 19.0994 23.4239C19.8425 24.9082 20.2154 26.6317 20.2154 28.5957C20.2154 30.5597 19.8438 32.2895 19.0994 33.784C18.3563 35.2797 17.343 36.4326 16.0622 37.2424C14.7801 38.0536 13.3509 38.4585 11.7721 38.4585C10.4215 38.4585 9.24345 38.1902 8.23655 37.6537C7.22965 37.1172 6.4396 36.4034 5.86894 35.5138V38.1852H0V12.8423H5.86894V21.7801C6.41677 20.8892 7.20682 20.1704 8.23655 19.6225ZM13.0238 25.1537C12.2109 24.3211 11.2103 23.9035 10.0208 23.9035C8.85413 23.9035 7.86372 24.3261 7.05211 25.1702C6.23923 26.0155 5.83343 27.1683 5.83343 28.6286C5.83343 30.0902 6.23923 31.243 7.05211 32.087C7.86372 32.9324 8.85413 33.3537 10.0208 33.3537C11.1875 33.3537 12.183 32.926 13.006 32.0693C13.8303 31.2139 14.2412 30.0548 14.2412 28.5932C14.2424 27.1341 13.8354 25.9864 13.0238 25.1537Z" fill="#E0EEEE"/>
<path d="M39.3978 30.0345H26.1166C26.2079 31.2215 26.5909 32.1301 27.2668 32.7577C27.9415 33.3854 28.7708 33.6992 29.7549 33.6992C31.2184 33.6992 32.2367 33.0829 32.8099 31.8504H39.0554C38.7346 33.1057 38.1576 34.237 37.3219 35.2405C36.4862 36.2453 35.44 37.0336 34.182 37.6031C32.924 38.1738 31.5164 38.4598 29.9604 38.4598C28.0835 38.4598 26.4134 38.0599 24.9499 37.2614C23.4852 36.4629 22.3414 35.3215 21.5184 33.8371C20.6953 32.3528 20.2832 30.6179 20.2832 28.6311C20.2832 26.6444 20.689 24.9095 21.5019 23.4251C22.3135 21.942 23.4523 20.8006 24.917 20.0009C26.3804 19.2024 28.0632 18.8025 29.9616 18.8025C31.8144 18.8025 33.4617 19.191 34.9036 19.9667C36.3454 20.7437 37.4715 21.8497 38.2844 23.2885C39.096 24.7273 39.5031 26.4052 39.5031 28.3224C39.5018 28.8703 39.4663 29.441 39.3978 30.0345ZM33.4959 26.7811C33.4959 25.7763 33.1523 24.9778 32.4662 24.3843C31.7801 23.7908 30.9216 23.4935 29.8919 23.4935C28.9078 23.4935 28.0784 23.7795 27.4038 24.3502C26.7291 24.9209 26.3107 25.732 26.1509 26.7811H33.4959Z" fill="#E0EEEE"/>
<path d="M51.4088 33.2179V38.1834H48.4236C46.2957 38.1834 44.637 37.6646 43.4475 36.6257C42.258 35.5868 41.6632 33.8924 41.6632 31.5399V23.9372H39.3298V19.0741H41.6632V14.416H47.5321V19.0741H51.3759V23.9372H47.5309V31.6082C47.5309 32.1789 47.6678 32.5902 47.943 32.8408C48.2169 33.0926 48.6747 33.2179 49.3151 33.2179H51.4088Z" fill="#E0EEEE"/>
<path d="M63.4873 33.2179V38.1834H60.5021C58.3742 38.1834 56.7155 37.6646 55.526 36.6257C54.3365 35.5868 53.7417 33.8924 53.7417 31.5399V23.9372H51.4083V19.0741H53.7417V14.416H59.6106V19.0741H63.4544V23.9372H59.6106V31.6082C59.6106 32.1789 59.7476 32.5902 60.0228 32.8408C60.2967 33.0926 60.7545 33.2179 61.3949 33.2179H63.4873Z" fill="#E0EEEE"/>
<path d="M82.8438 30.0345H69.5626C69.6539 31.2215 70.0369 32.1301 70.7128 32.7577C71.3875 33.3854 72.2168 33.6992 73.2009 33.6992C74.6643 33.6992 75.6827 33.0829 76.2559 31.8504H82.5027C82.1819 33.1057 81.6049 34.237 80.7692 35.2405C79.9335 36.2453 78.8872 37.0336 77.6292 37.6031C76.3713 38.1738 74.9636 38.4598 73.4076 38.4598C71.5308 38.4598 69.8606 38.0599 68.3972 37.2614C66.9325 36.4629 65.7887 35.3215 64.9656 33.8371C64.1426 32.3528 63.7305 30.6179 63.7305 28.6311C63.7305 26.6444 64.1363 24.9095 64.9491 23.4251C65.7608 21.942 66.8995 20.8006 68.3642 20.0009C69.8277 19.2024 71.5092 18.8025 73.4089 18.8025C75.2616 18.8025 76.9089 19.191 78.3508 19.9667C79.7927 20.7437 80.9188 21.8497 81.7317 23.2885C82.5433 24.7273 82.9504 26.4052 82.9504 28.3224C82.9466 28.8703 82.9123 29.441 82.8438 30.0345ZM76.9407 26.7811C76.9407 25.7763 76.597 24.9778 75.9109 24.3843C75.2249 23.7908 74.3663 23.4935 73.3366 23.4935C72.3525 23.4935 71.5232 23.7795 70.8485 24.3502C70.1739 24.9209 69.7554 25.732 69.5956 26.7811H76.9407Z" fill="#E0EEEE"/>
<path d="M92.6261 19.7774C93.6558 19.1726 94.7997 18.8701 96.0577 18.8701V25.0682H94.4446C92.9799 25.0682 91.8817 25.3821 91.15 26.0097C90.417 26.6374 90.0518 27.7396 90.0518 29.315V38.1845H84.1829V19.0751H90.0518V22.2602C90.7391 21.2099 91.5964 20.3823 92.6261 19.7774Z" fill="#E0EEEE"/>
<path d="M104.089 19.8977C105.232 19.3042 106.525 19.0068 107.967 19.0068C109.614 19.0068 111.118 19.4118 112.48 20.2229C113.841 21.0341 114.911 22.1692 115.688 23.6307C116.466 25.0923 116.855 26.7703 116.855 28.6646C116.855 30.5603 116.466 32.2547 115.688 33.7504C114.911 35.2462 113.841 36.4104 112.48 37.243C111.118 38.077 109.614 38.4933 107.967 38.4933C106.525 38.4933 105.244 38.2022 104.123 37.6201C103.002 37.038 102.086 36.3129 101.377 35.4449V47.1577H97.4651V19.3169H101.377V22.0907C102.041 21.2226 102.943 20.4925 104.089 19.8977ZM112.068 25.2923C111.53 24.3444 110.82 23.6257 109.94 23.1347C109.058 22.6437 108.115 22.3982 107.108 22.3982C106.124 22.3982 105.192 22.65 104.31 23.1511C103.429 23.6535 102.72 24.3837 102.183 25.3429C101.645 26.3021 101.376 27.4321 101.376 28.733C101.376 30.0338 101.645 31.1702 102.183 32.1408C102.72 33.1114 103.429 33.8479 104.31 34.349C105.191 34.8514 106.124 35.1019 107.108 35.1019C108.115 35.1019 109.058 34.845 109.94 34.3313C110.82 33.8175 111.53 33.0696 112.068 32.0877C112.605 31.1069 112.874 29.9643 112.874 28.6634C112.874 27.3638 112.605 26.2401 112.068 25.2923Z" fill="#E0EEEE"/>
<path d="M136.074 30.206H121.626C121.74 31.7131 122.3 32.9228 123.307 33.8365C124.314 34.7501 125.549 35.2057 127.014 35.2057C129.119 35.2057 130.606 34.3275 131.475 32.5685H135.697C135.125 34.3034 134.089 35.7245 132.591 36.8318C131.092 37.939 129.233 38.4933 127.014 38.4933C125.207 38.4933 123.588 38.0884 122.158 37.2772C120.728 36.4673 119.607 35.3246 118.795 33.8529C117.982 32.38 117.577 30.6742 117.577 28.733C117.577 26.7931 117.971 25.086 118.761 23.613C119.55 22.1401 120.66 21.005 122.09 20.2052C123.519 19.4067 125.161 19.0068 127.015 19.0068C128.8 19.0068 130.39 19.3953 131.786 20.171C133.181 20.948 134.268 22.0376 135.047 23.4422C135.824 24.8468 136.213 26.4615 136.213 28.2875C136.211 28.9962 136.165 29.6365 136.074 30.206ZM132.127 27.0563C132.104 25.6175 131.59 24.4659 130.583 23.5978C129.576 22.7298 128.329 22.297 126.842 22.297C125.491 22.297 124.336 22.7247 123.376 23.5814C122.415 24.4368 121.843 25.596 121.66 27.0575H132.127V27.0563Z" fill="#E0EEEE"/>
<path d="M151.74 19.9328C152.918 20.5491 153.839 21.4627 154.504 22.6725C155.167 23.8835 155.499 25.3438 155.499 27.0559V38.1855H151.62V27.6381C151.62 25.9487 151.196 24.6529 150.35 23.7506C149.503 22.8496 148.348 22.3979 146.885 22.3979C145.42 22.3979 144.26 22.8484 143.401 23.7506C142.542 24.6529 142.114 25.9487 142.114 27.6381V38.1855H138.202V19.3165H142.114V21.4741C142.754 20.6984 143.572 20.0923 144.568 19.6595C145.563 19.2267 146.621 19.009 147.742 19.009C149.229 19.0078 150.561 19.3165 151.74 19.9328Z" fill="#E0EEEE"/>
<path d="M172.158 19.9328C173.337 20.5491 174.257 21.4627 174.922 22.6725C175.585 23.8835 175.917 25.3438 175.917 27.0559V38.1855H172.039V27.6381C172.039 25.9487 171.616 24.6529 170.77 23.7506C169.923 22.8496 168.767 22.3979 167.304 22.3979C165.839 22.3979 164.679 22.8484 163.82 23.7506C162.962 24.6529 162.533 25.9487 162.533 27.6381V38.1855H158.621V19.3165H162.533V21.4741C163.174 20.6984 163.992 20.0923 164.987 19.6595C165.983 19.2267 167.04 19.009 168.161 19.009C169.648 19.0078 170.98 19.3165 172.158 19.9328Z" fill="#E0EEEE"/>
<path d="M196.063 19.3145L184.464 47.0541H180.414L184.258 37.8759L176.81 19.3145H181.169L186.489 33.6974L192.014 19.3145H196.063Z" fill="#E0EEEE"/>
<path d="M199.093 13.4695C199.378 13.6265 199.602 13.8466 199.76 14.1301C199.92 14.4136 200 14.7388 200 15.1058C200 15.4689 199.92 15.7942 199.76 16.0789C199.6 16.3636 199.378 16.5876 199.093 16.7483C198.808 16.909 198.479 16.99 198.108 16.99C197.736 16.99 197.407 16.9103 197.117 16.7483C196.828 16.5876 196.604 16.3649 196.444 16.0789C196.284 15.7942 196.204 15.4702 196.204 15.1058C196.204 14.7388 196.284 14.4136 196.444 14.1301C196.604 13.8466 196.828 13.6265 197.117 13.4695C197.407 13.3126 197.736 13.2329 198.108 13.2329C198.479 13.2342 198.808 13.3126 199.093 13.4695ZM198.973 16.5256C199.22 16.3914 199.41 16.2016 199.543 15.9561C199.677 15.7119 199.744 15.4284 199.744 15.1058C199.744 14.7767 199.677 14.4908 199.543 14.2453C199.41 14.001 199.221 13.8112 198.975 13.6758C198.73 13.5417 198.441 13.4733 198.108 13.4733C197.774 13.4733 197.485 13.5391 197.238 13.672C196.991 13.8049 196.8 13.9947 196.667 14.2415C196.534 14.4882 196.467 14.7755 196.467 15.1045C196.467 15.4297 196.533 15.7144 196.667 15.9574C196.8 16.2004 196.991 16.3889 197.238 16.5243C197.485 16.6584 197.776 16.7268 198.108 16.7268C198.438 16.7268 198.725 16.6597 198.973 16.5256ZM198.902 15.0146C198.807 15.1323 198.667 15.2095 198.481 15.2475L199.069 16.1966H198.559L198.003 15.2728H197.809V16.1966H197.341V13.9213H198.223C198.5 13.9213 198.706 13.9846 198.841 14.1124C198.975 14.2402 199.044 14.4022 199.044 14.5971C199.044 14.759 198.997 14.897 198.902 15.0146ZM197.809 14.9704H198.181C198.441 14.9704 198.571 14.8666 198.571 14.6603C198.571 14.5591 198.542 14.4806 198.482 14.4275C198.422 14.3731 198.322 14.3465 198.183 14.3465H197.81V14.9704H197.809Z" fill="#E0EEEE"/>
</svg>
