<svg width="200" height="60" viewBox="0 0 200 60" fill="none" xmlns="http://www.w3.org/2000/svg">
<path fill-rule="evenodd" clip-rule="evenodd" d="M102.112 26.129V21.5021V16.875H104.678H107.245V29.7321V42.5892H104.75H102.254V41.5395V40.4896L101.506 41.2395C100.569 42.1781 99.7296 42.6558 98.5449 42.925C97.3816 43.1895 96.1909 43.1917 94.9107 42.9321C91.9508 42.3317 89.8301 40.2455 88.7611 36.8826C88.3903 35.7167 88.3677 35.4939 88.3677 33.0323C88.3677 30.572 88.3905 30.3478 88.7602 29.1858C89.267 27.5926 89.8823 26.492 90.7962 25.5435C92.2011 24.0854 93.9818 23.3612 96.1997 23.3459C98.3146 23.3312 99.8492 23.9268 101.277 25.316L102.112 26.129ZM116.799 42.5892V29.7321V16.875H119.366H121.933V21.479V26.083L122.825 25.2261C124.248 23.8587 125.594 23.3473 127.785 23.3412C129.828 23.3356 131.385 23.8825 132.788 25.0986C135.475 27.4277 136.507 32.5933 135.171 37.0201C133.905 41.2147 130.235 43.6266 126.054 43.0117C124.639 42.8035 123.6 42.2943 122.61 41.3236L121.79 40.5196V41.5545V42.5892H119.295H116.799ZM137.476 42.5892V29.7321V16.875H140.042H142.609V29.7321V42.5892H140.042H137.476ZM37.2693 29.5259C38.2272 26.136 40.2975 24.1942 43.6475 23.5438C44.9199 23.2967 47.1055 23.2965 48.4436 23.5434C51.5794 24.122 53.998 26.283 54.6934 29.1275C54.8453 29.749 54.9718 30.0887 54.8544 30.2736C54.6908 30.5314 54.0536 30.4884 52.3514 30.4884H49.7901L49.6438 29.9728C49.2092 28.4415 47.8374 27.4827 46.0614 27.4693C44.3529 27.4563 43.1481 28.2821 42.4883 29.9182C42.0078 31.1097 41.9374 34.0133 42.3506 35.5899C42.7089 36.9563 43.3127 37.8944 44.2028 38.4678C44.9446 38.9458 45.5579 39.0784 46.5181 38.9688C47.6415 38.8405 48.6282 38.2492 49.1643 37.3827C49.4154 36.9772 49.6402 36.4822 49.6642 36.2827L49.7078 35.92L52.1927 35.8824C53.5593 35.8616 54.7302 35.8954 54.7948 35.9577C54.8592 36.0199 54.8145 36.439 54.6953 36.8892C53.9315 39.7746 51.3541 42.1553 48.2106 42.8793C47.2086 43.11 44.684 43.1078 43.5762 42.8751C40.4171 42.2118 38.3121 40.0921 37.2833 36.5386C36.912 35.2561 36.9033 30.8216 37.2693 29.5259ZM63.0171 24.1774C63.388 23.9479 64.0424 23.6692 64.4712 23.5581C64.9 23.447 65.7801 23.352 66.4272 23.347L67.6036 23.3379L67.6029 25.8475L67.6022 28.357L66.07 28.3646C64.2589 28.3734 63.3562 28.6743 62.5459 29.5392C62.3185 29.7819 62.1432 29.9627 62.0071 30.1694C61.536 30.8849 61.5352 31.91 61.473 36.8826L61.4007 42.658L58.7983 42.6955L56.1959 42.7329V33.2418V23.7505H58.6201H61.0442V24.8505C61.0442 25.4923 61.1037 25.9506 61.1868 25.9506C61.2652 25.9506 61.3294 25.8889 61.3294 25.8135C61.3294 25.5703 62.3231 24.6069 63.0171 24.1774ZM69.4682 27.8977C70.5137 25.7298 72.6917 24.07 75.1714 23.5515C76.3973 23.2952 79.1189 23.2921 80.3659 23.5457C83.1976 24.1216 85.462 26.23 86.3452 29.1133C86.699 30.2683 86.9955 32.2249 86.996 33.4105L86.9966 34.4762H80.2747H73.5527L73.6361 35.2555C73.8116 36.8957 75.0026 38.4736 76.4153 38.9378C78.2565 39.5427 80.5633 38.8883 81.2081 37.5779L81.4488 37.0889H84.0897H86.7307L86.6406 37.3983C86.5909 37.5685 86.3193 38.1718 86.0368 38.739C85.0887 40.6432 83.0062 42.235 80.7047 42.8153C79.4848 43.1228 76.6169 43.1126 75.1612 42.7955C70.6765 41.8186 68.407 38.5434 68.3959 33.0323C68.3914 30.8824 68.6686 29.5556 69.4682 27.8977ZM144.523 30.3421C145.244 26.8607 147.746 24.2516 151.03 23.5593C151.535 23.4528 152.725 23.3594 153.673 23.3517C156.676 23.3278 158.563 24.0024 160.214 25.6903C161.299 26.799 162.01 28.1262 162.419 29.8064C162.674 30.8508 163 33.2895 163 34.147V34.4762H156.227C150.403 34.4762 149.454 34.5041 149.454 34.6757C149.454 35.1281 149.793 36.3691 150.057 36.8826C150.425 37.599 151.233 38.4114 151.949 38.7846C152.782 39.2188 154.969 39.2156 155.817 38.779C156.441 38.4574 157.075 37.821 157.225 37.3646C157.311 37.1014 157.438 37.0889 160.009 37.0889H162.702L162.491 37.6667C161.58 40.1575 159.307 42.1379 156.583 42.815C155.237 43.1499 152.313 43.1114 150.837 42.7397C147.603 41.9251 145.628 39.9817 144.735 36.7371C144.303 35.1679 144.196 31.9255 144.523 30.3421ZM109.384 42.5892V33.9949C109.384 29.268 109.408 23.6506 109.437 23.6506C109.467 23.6506 109.754 23.7402 110.076 23.8497C111.329 24.2761 113.032 24.2276 114.375 23.7273C114.564 23.6569 114.589 24.6589 114.589 33.9934V42.5892H111.987H109.384ZM81.6671 30.6603C81.4525 29.1399 80.3284 27.7844 78.9559 27.3913C76.7132 26.7491 74.6376 27.8833 73.946 30.129C73.8053 30.5856 73.6711 30.8674 73.7566 31.041C73.9131 31.3588 74.8066 31.3135 77.7473 31.3135H81.7594L81.6671 30.6603ZM157.538 30.6367C157.357 29.1591 156.225 27.7945 154.855 27.4022C153.199 26.928 151.872 27.2842 150.761 28.5009C150.218 29.0956 149.883 29.8186 149.666 30.8666L149.573 31.3135H153.597H157.621L157.538 30.6367ZM102.288 33.4432C102.288 30.5133 101.404 28.5643 99.7589 27.8661C98.6759 27.4066 96.8588 27.4313 95.895 27.9188C95.3667 28.186 94.51 29.0538 94.2135 29.622C93.5743 30.8473 93.3152 33.7023 93.7043 35.2325C94.1318 36.9134 95.4906 38.5627 96.7119 38.8831C98.403 39.3267 99.9573 38.8462 101.063 37.538C101.948 36.491 102.289 35.3536 102.288 33.4432ZM130.486 33.2441C130.482 30.4866 129.626 28.6569 127.999 27.9262C127.418 27.6656 127.046 27.6042 126.068 27.6075C124.661 27.6121 124.101 27.8008 123.311 28.5359C122.647 29.1535 122.308 29.762 122.027 30.8404C121.509 32.8251 121.611 35.0723 122.284 36.4941C123.506 39.0806 126.591 39.8661 128.619 38.1078C129.889 37.0069 130.49 35.4411 130.486 33.2441ZM112.135 22.6063C113.684 22.6063 114.939 21.3233 114.939 19.7406C114.939 18.158 113.684 16.875 112.135 16.875C110.587 16.875 109.331 18.158 109.331 19.7406C109.331 21.3233 110.587 22.6063 112.135 22.6063Z" fill="#E0EEEE"/>
</svg>
