<svg width="200" height="60" viewBox="0 0 200 60" fill="none" xmlns="http://www.w3.org/2000/svg">
<path d="M119.815 0.505064H100.091V35.4715C100.141 35.4087 100.165 35.3773 100.187 35.346C101.051 34.0619 101.914 32.7779 102.772 31.4876C102.85 31.3715 102.887 31.2051 102.887 31.0638C102.906 27.4441 102.918 23.8244 102.924 20.2047C102.943 14.626 102.965 9.04733 102.987 3.46864C102.987 3.40272 102.993 3.33679 102.999 3.2583H109.627V22.9203C109.699 22.8418 109.73 22.8104 109.755 22.779C110.578 21.6834 111.404 20.5908 112.217 19.4889C112.299 19.379 112.342 19.2127 112.342 19.0714C112.348 13.8914 112.348 8.71142 112.345 3.53143V3.26458H118.802V10.3627C119.123 9.92322 119.419 9.46487 119.693 8.99396C119.765 8.87466 119.805 8.73653 119.812 8.59526C119.818 5.99271 119.821 3.39016 119.818 0.787609V0.505064H119.815ZM76.7224 0.778191C76.7224 3.39958 76.7224 6.01782 76.7224 8.63607C76.7224 8.71142 76.7161 8.79932 76.7504 8.85897C77.0559 9.37069 77.3739 9.87613 77.6857 10.3816C77.7044 10.3784 77.7231 10.3721 77.7418 10.3659V3.30853H84.7716V3.60678C84.7716 8.77106 84.7716 13.9322 84.7747 19.0965C84.7778 19.2378 84.8246 19.3728 84.9056 19.4858C85.3358 20.0823 85.7816 20.6662 86.2243 21.2533C86.6358 21.7995 87.0473 22.3458 87.4588 22.892C87.4806 22.8857 87.5025 22.8826 87.5212 22.8763V3.3054H93.6189C93.6189 3.39958 93.6189 3.47492 93.6189 3.54713C93.6251 7.14172 93.6313 10.7363 93.6407 14.3309C93.65 19.9253 93.6594 25.5228 93.6687 31.1172C93.6719 31.2742 93.7217 31.428 93.8059 31.5567C94.5167 32.6084 95.2431 33.6475 95.9632 34.693C96.1378 34.9441 96.3155 35.1953 96.5181 35.4841V0.533319H76.7317C76.7286 0.624361 76.7224 0.699706 76.7224 0.778191ZM121.769 0.492507H120.928V0.693427H121.239V1.67292H121.458V0.693427H121.769V0.492507ZM122.882 0.454834H122.826L122.524 1.2177L122.224 0.454834H122.168L121.769 1.66978H121.994L122.215 0.982251L122.499 1.70745H122.552L122.835 0.982251L123.057 1.66978H123.278L122.882 0.454834Z" fill="#E0EEEE"/>
<path d="M52.5775 59.2047H58.9925V57.4485H54.5127V54.8457H58.8279V53.0895H54.5127V50.5852H58.9925V48.8291H52.5775V59.2047ZM71.066 55.2489L64.9536 48.4841H64.4643V59.2002H66.3994V52.7849L72.5029 59.5451H73.0012V48.8291H71.066V55.2489ZM43.9561 52.8834C43.2443 52.6998 42.7594 52.5295 42.4925 52.3727C42.2389 52.2383 42.0877 51.9695 42.0965 51.6828C42.0921 51.3513 42.2523 51.0422 42.5236 50.854C42.8306 50.63 43.2043 50.5135 43.5868 50.527C44.4988 50.527 45.0504 51.0377 45.2417 52.0547L47.0835 51.6515C46.9723 50.8227 46.5719 50.0611 45.958 49.5011C45.3574 48.9724 44.5833 48.7081 43.6313 48.7081C43.0219 48.7036 42.4213 48.838 41.8741 49.1024C41.3581 49.3488 40.9177 49.7296 40.5929 50.2C40.2815 50.6569 40.1125 51.199 40.1169 51.7545C40.0991 52.422 40.3616 53.0671 40.8376 53.533C41.318 54.0034 42.1144 54.3663 43.2265 54.6261C43.9872 54.8053 44.5122 54.9935 44.8102 55.1906C45.0994 55.3833 45.2684 55.7193 45.2506 56.0687C45.2595 56.4719 45.0816 56.8527 44.7702 57.1036C44.4187 57.3813 43.9828 57.5247 43.5335 57.5068C43.053 57.5247 42.5859 57.3544 42.23 57.0274C41.8919 56.7093 41.7095 56.2255 41.6917 55.5759L39.85 55.9791C39.8811 56.8975 40.2726 57.7711 40.9444 58.3938C41.6161 59.0165 42.4613 59.3256 43.489 59.3256C44.4588 59.3525 45.4063 59.021 46.1448 58.3848C46.8432 57.8159 47.2392 56.9557 47.2303 56.0552C47.2303 55.2444 46.9767 54.5858 46.4696 54.0751C45.9713 53.5734 45.1305 53.1746 43.9561 52.8834ZM83.3621 50.527C84.1495 50.527 84.9725 50.8406 85.831 51.4633L86.9654 50.0476C85.8533 49.1561 84.661 48.7081 83.3932 48.7081C82.7214 48.7081 82.0542 48.8336 81.4269 49.0755C80.8041 49.3129 80.2347 49.6624 79.7364 50.1059C79.2248 50.5718 78.8156 51.1452 78.5486 51.7859C77.9525 53.2105 77.9525 54.8188 78.5486 56.2434C78.82 56.884 79.2248 57.4575 79.7364 57.9234C80.2347 58.3669 80.8085 58.7163 81.4269 58.9538C82.0542 59.2002 82.7214 59.3256 83.3932 59.3211C84.661 59.3211 85.8533 58.8731 86.9654 57.9816L85.831 56.566C84.968 57.1887 84.145 57.5023 83.3621 57.5023C82.1876 57.5157 81.0977 56.8751 80.5327 55.8357C79.9233 54.6978 79.9233 53.3225 80.5327 52.1846C81.1021 51.1542 82.1876 50.5135 83.3621 50.527ZM16.6504 59.2047H23.0653V57.4485H18.5855V54.8457H22.9007V53.0895H18.5855V50.5852H23.0653V48.8291H16.6504V59.2047ZM31.9403 52.8834C31.2285 52.6998 30.7437 52.5295 30.4812 52.3727C30.2276 52.2383 30.0764 51.9695 30.0853 51.6828C30.0808 51.3513 30.241 51.0422 30.5123 50.854C30.8193 50.63 31.193 50.5135 31.5755 50.527C32.4875 50.527 33.0391 51.0377 33.2304 52.0547L35.0722 51.6515C34.961 50.8227 34.5606 50.0611 33.9467 49.5011C33.3461 48.9724 32.572 48.7081 31.62 48.7081C31.0106 48.7036 30.41 48.838 29.8628 49.1024C29.3468 49.3488 28.9064 49.7296 28.5816 50.2C28.2702 50.6569 28.1012 51.199 28.1056 51.7545C28.0878 52.422 28.3503 53.0671 28.8263 53.533C29.3067 54.0034 30.103 54.3663 31.2152 54.6261C31.9759 54.8053 32.5009 54.9935 32.7989 55.1906C33.0881 55.3833 33.2571 55.7193 33.2393 56.0687C33.2482 56.4719 33.0703 56.8527 32.7589 57.1036C32.4074 57.3813 31.9715 57.5247 31.5222 57.5068C31.0417 57.5247 30.5746 57.3544 30.2187 57.0274C29.8806 56.7093 29.6982 56.2255 29.6804 55.5759L27.8387 55.9791C27.8698 56.8975 28.2613 57.7711 28.9331 58.3938C29.6048 59.0165 30.45 59.3256 31.4777 59.3256C32.4475 59.3525 33.395 59.021 34.1335 58.3848C34.8319 57.8159 35.2279 56.9557 35.219 56.0552C35.219 55.2444 34.9654 54.5858 34.4583 54.0751C33.9511 53.5734 33.1103 53.1746 31.9403 52.8834ZM181.103 48.8291L178.505 52.646L175.885 48.8291H173.647L177.531 54.6261V59.2047H179.466V54.6261L183.349 48.8291H181.103ZM155.852 48.8291H153.917V59.2047H160.332V57.4485H155.852V48.8291ZM162.921 50.5852H165.68V59.2047H167.615V50.5852H170.351V48.8291H162.926V50.5852H162.921ZM144.379 48.4886L139.424 59.2047H141.515L142.671 56.6511H146.537L147.698 59.2047H149.789L144.833 48.4886H144.379ZM143.481 54.8905L144.606 52.3817L145.741 54.8905H143.481ZM129.196 59.2047H135.611V57.4485H131.131V54.8457H135.447V53.0895H131.131V50.5852H135.611V48.8291H129.196V59.2047ZM122.799 53.9362C123.248 53.4076 123.493 52.7356 123.489 52.0367C123.511 51.1676 123.16 50.3299 122.528 49.7385C121.887 49.1292 121.024 48.8246 119.948 48.8246H115.975V59.2002H117.91V50.5852H119.845C120.286 50.5673 120.717 50.7062 121.06 50.9795C121.371 51.2393 121.545 51.6291 121.527 52.0367C121.54 52.4354 121.367 52.8207 121.06 53.0761C120.713 53.3494 120.281 53.4882 119.845 53.4658H118.137V53.8914L122.377 59.2002H124.765L121.175 54.8725C121.812 54.7919 122.399 54.4559 122.799 53.9362ZM93.8341 54.8457H98.1493V53.0895H93.8341V50.5852H98.3139V48.8291H91.899V59.2047H98.3139V57.4485H93.8341V54.8457Z" fill="#E0EEEE"/>
</svg>
