<svg width="200" height="60" viewBox="0 0 200 60" fill="none" xmlns="http://www.w3.org/2000/svg">
<path d="M59.3499 23.1555L26.1702 23.1399C25.7348 23.1396 25.3094 23.2706 24.9493 23.5158C24.5892 23.761 24.3112 24.1091 24.1514 24.5148C23.9916 24.9205 23.9575 25.3649 24.0534 25.7903C24.1493 26.2157 24.3709 26.6023 24.6893 26.8998L33.8125 35.428C34.0302 35.6327 34.2033 35.8802 34.3211 36.1551C34.4389 36.4299 34.4987 36.7261 34.4969 37.0252L34.4338 49.5273C34.4316 49.9634 34.5605 50.3901 34.8037 50.7518C35.047 51.1135 35.3934 51.3935 35.7977 51.5553C36.2021 51.7171 36.6457 51.7532 37.0709 51.659C37.496 51.5647 37.883 51.3445 38.1814 51.0269L60.9299 26.8218C61.222 26.5133 61.4173 26.1257 61.4915 25.707C61.5658 25.2883 61.5156 24.8571 61.3474 24.4666C61.1792 24.0762 60.9002 23.7439 60.5451 23.5108C60.19 23.2777 59.7744 23.1542 59.3499 23.1555Z" fill="#E0EEEE"/>
<path d="M66.0979 8H37.4701C36.2902 8 35.1587 8.46942 34.3244 9.305C33.4902 10.1406 33.0215 11.2739 33.0215 12.4556C33.0215 13.6372 33.4902 14.7705 34.3244 15.6061C35.1587 16.4417 36.2902 16.9111 37.4701 16.9111H66.0979C67.2777 16.9111 68.4092 16.4417 69.2435 15.6061C70.0778 14.7705 70.5465 13.6372 70.5465 12.4556C70.5465 11.2739 70.0778 10.1406 69.2435 9.305C68.4092 8.46942 67.2777 8 66.0979 8V8Z" fill="#E0EEEE"/>
<path d="M84.8697 18.7472H92.4738V15.5428H84.8697V11.2039H93.6114V8H81.5685V26.29H84.8697V18.7472Z" fill="#E0EEEE"/>
<path d="M101.211 26.5426C102.233 26.5618 103.239 26.2929 104.115 25.7666C104.606 25.4702 105.062 25.1188 105.473 24.7194V26.2898H108.674V12.4298H105.473V13.7243C105.094 13.3669 104.675 13.0556 104.223 12.7969C103.435 12.3565 102.544 12.1339 101.642 12.1519C100.42 12.1331 99.216 12.4489 98.1604 13.0654C97.1397 13.6733 96.3072 14.5528 95.7555 15.606C95.161 16.7528 94.8618 18.0301 94.8852 19.322C94.8635 20.6131 95.1518 21.8904 95.7258 23.0466C96.2463 24.0901 97.0355 24.9755 98.0119 25.6113C98.9646 26.2279 100.077 26.5516 101.211 26.5426ZM99.9008 15.6646C100.474 15.3026 101.14 15.1159 101.818 15.1275C102.512 15.1119 103.196 15.3023 103.783 15.6748C104.348 16.0467 104.804 16.5633 105.102 17.171C105.424 17.8416 105.586 18.5781 105.575 19.3222C105.588 20.0789 105.425 20.8281 105.1 21.5115C104.806 22.1246 104.351 22.6457 103.783 23.0188C103.196 23.3921 102.513 23.5831 101.818 23.568C101.139 23.5787 100.473 23.3872 99.9027 23.0179C99.3347 22.6453 98.8792 22.1245 98.5852 21.5115C98.2606 20.8282 98.0986 20.0788 98.112 19.3222C98.0979 18.5702 98.2593 17.8253 98.5834 17.1468C98.8788 16.5413 99.3345 16.0286 99.9008 15.6646Z" fill="#E0EEEE"/>
<path d="M116.45 26.5428C117.283 26.5448 118.108 26.3779 118.875 26.0522C119.623 25.7417 120.279 25.246 120.783 24.6118C121.29 23.9534 121.557 23.1406 121.538 22.3091C121.587 21.4451 121.337 20.5906 120.829 19.8902C120.366 19.3188 119.768 18.8723 119.089 18.5911C118.418 18.3077 117.728 18.0705 117.025 17.8811C116.362 17.7218 115.715 17.4994 115.094 17.2169C114.892 17.1316 114.721 16.9872 114.604 16.8026C114.486 16.6181 114.427 16.4021 114.435 16.1833C114.422 16.0397 114.44 15.8951 114.486 15.7585C114.532 15.622 114.605 15.4964 114.702 15.3897C114.909 15.1927 115.166 15.0554 115.444 14.992C115.765 14.9136 116.094 14.874 116.424 14.8739C116.959 14.895 117.482 15.0404 117.951 15.2986C118.517 15.5854 119.034 15.9609 119.482 16.4109L119.694 16.6237L121.553 14.5728L121.397 14.3824C120.759 13.6033 119.921 13.0129 118.974 12.6743C118.118 12.3466 117.213 12.1699 116.298 12.1522C115.461 12.1471 114.631 12.3144 113.861 12.6438C113.131 12.9473 112.488 13.429 111.991 14.0451C111.501 14.6777 111.244 15.4594 111.261 16.2594C111.217 17.1327 111.487 17.993 112.024 18.6829C112.525 19.2723 113.159 19.7336 113.874 20.0285C114.584 20.3282 115.312 20.5824 116.054 20.7895C116.498 20.8952 116.936 21.0233 117.367 21.1733C117.688 21.2776 117.984 21.4461 118.239 21.6686C118.335 21.7656 118.409 21.8818 118.456 22.0097C118.504 22.1375 118.524 22.274 118.515 22.4102C118.535 22.7025 118.441 22.9912 118.252 23.2149C118.058 23.4244 117.815 23.5813 117.545 23.6712C117.266 23.7687 116.973 23.8193 116.678 23.8208C115.986 23.843 115.299 23.7016 114.672 23.4082C114.113 23.1203 113.614 22.7264 113.204 22.2485L113.019 22.0338L110.827 23.9138L110.994 24.1293C111.638 24.9806 112.51 25.6312 113.509 26.0055C114.449 26.358 115.445 26.54 116.45 26.5428Z" fill="#E0EEEE"/>
<path d="M125.488 26.2898H128.663V15.5325H131.745V12.4297H128.663V9.0376H125.488V12.4297H122.735V15.5325H125.488V26.2898Z" fill="#E0EEEE"/>
<path d="M94.2544 42.509C94.9042 41.5972 95.2538 40.5052 95.2546 39.385C95.2808 38.267 94.9789 37.1659 94.3862 36.2181C93.8387 35.3586 93.0804 34.6541 92.1836 34.1718C91.3242 33.7033 90.3618 33.4568 89.3834 33.4546H81.5675V51.7441H84.8687V45.0869H88.4575L92.1984 51.7433L96.173 51.773L91.9588 44.4987C92.8818 44.0436 93.6723 43.3584 94.2544 42.509ZM84.8687 36.6583H88.9288C89.6998 36.6375 90.4522 36.8977 91.0461 37.3906C91.3321 37.6291 91.5583 37.9313 91.7069 38.2731C91.8554 38.6148 91.9221 38.9866 91.9016 39.3588C91.9099 40.0031 91.6948 40.6304 91.2929 41.1337C91.0978 41.3835 90.8451 41.5823 90.5565 41.7129C90.2679 41.8435 89.952 41.9021 89.6359 41.8836H84.8687L84.8687 36.6583Z" fill="#E0EEEE"/>
<path d="M107.398 38.4446C106.438 37.8692 105.338 37.5705 104.219 37.5813C102.996 37.5724 101.792 37.8763 100.719 38.4641C99.6442 39.058 98.7512 39.9341 98.1362 40.9983C97.4595 42.2038 97.1221 43.5707 97.1601 44.9532C97.1408 46.2218 97.4592 47.4727 98.0824 48.5773C98.693 49.636 99.5837 50.5052 100.656 51.0892C101.71 51.6351 102.87 51.9429 104.056 51.9907C105.241 52.0386 106.422 51.8253 107.516 51.3661C108.317 51.0663 109.045 50.6001 109.652 49.9982H110.19L108.418 47.3879L108.175 47.5979C107.745 47.9595 107.286 48.2843 106.802 48.569C106.157 48.9145 105.431 49.0794 104.7 49.0467C103.618 49.0891 102.556 48.7397 101.71 48.0625C101.001 47.4668 100.529 46.6352 100.382 45.7199H110.486L110.519 44.3213C110.544 43.0991 110.252 41.8913 109.673 40.8152C109.136 39.8384 108.351 39.0207 107.398 38.4446ZM101.766 41.2083C102.505 40.7625 103.356 40.5362 104.219 40.5559C104.716 40.554 105.207 40.6686 105.652 40.8906C106.097 41.1127 106.484 41.436 106.782 41.8346C107.05 42.1973 107.217 42.6253 107.266 43.0743H100.511C100.677 42.3151 101.126 41.6478 101.766 41.2083Z" fill="#E0EEEE"/>
<path d="M116.482 40.4462C116.802 40.3679 117.131 40.3282 117.461 40.3282C117.996 40.3486 118.518 40.494 118.987 40.7528C119.554 41.0394 120.071 41.4149 120.52 41.8652L120.731 42.077L122.59 40.027L122.434 39.8365C121.796 39.0581 120.958 38.4678 120.011 38.1285C119.156 37.8007 118.251 37.624 117.335 37.6063C116.498 37.6012 115.669 37.7685 114.899 38.0979C114.168 38.4018 113.525 38.8835 113.028 39.4992C112.539 40.1319 112.281 40.9138 112.299 41.7139C112.255 42.5876 112.525 43.4481 113.062 44.1384C113.564 44.7265 114.198 45.1873 114.912 45.483C115.622 45.7832 116.35 46.0374 117.093 46.2441C117.569 46.3603 118.006 46.4876 118.405 46.6279C118.726 46.7328 119.022 46.9012 119.277 47.1232C119.373 47.2201 119.447 47.3363 119.495 47.4641C119.542 47.5919 119.562 47.7284 119.553 47.8645C119.573 48.1569 119.479 48.4455 119.29 48.6693C119.096 48.8779 118.853 49.0347 118.583 49.1255C118.304 49.223 118.011 49.2736 117.716 49.2752C117.024 49.2973 116.337 49.1559 115.71 48.8625C115.15 48.5748 114.651 48.1806 114.241 47.7019L114.055 47.4882L111.865 49.369L112.032 49.5837C112.676 50.4349 113.548 51.0855 114.547 51.4598C115.488 51.8123 116.484 51.9942 117.488 51.997C118.321 51.999 119.145 51.8325 119.911 51.5072C120.66 51.1972 121.317 50.7008 121.821 50.065C122.327 49.4062 122.593 48.5941 122.574 47.7632C122.624 46.8989 122.373 46.044 121.865 45.3434C121.403 44.772 120.804 44.3257 120.125 44.0452C119.455 43.7617 118.766 43.5245 118.063 43.3353C117.4 43.176 116.753 42.9535 116.131 42.671C115.93 42.5858 115.759 42.4414 115.642 42.2569C115.524 42.0724 115.465 41.8565 115.473 41.6377C115.46 41.4941 115.478 41.3495 115.524 41.213C115.57 41.0764 115.643 40.9508 115.74 40.8441C115.947 40.6472 116.203 40.5097 116.482 40.4462Z" fill="#E0EEEE"/>
<path d="M133.93 46.1687C133.956 46.577 133.889 46.9859 133.736 47.365C133.582 47.7441 133.345 48.0838 133.043 48.3588C132.445 48.8825 131.673 49.1638 130.879 49.1478C130.307 49.1732 129.741 49.0115 129.268 48.6869C128.848 48.3693 128.529 47.9346 128.354 47.437C128.152 46.8673 128.051 46.2665 128.057 45.6621V37.8843H124.884V46.3705C124.884 48.1092 125.344 49.4938 126.248 50.4853C126.698 50.9817 127.251 51.374 127.867 51.6351C128.484 51.8961 129.15 52.0197 129.82 51.9973C130.822 52.023 131.81 51.7567 132.664 51.2306C133.13 50.9365 133.556 50.5822 133.93 50.1768V51.7445H137.105V37.8843H133.93V46.1687Z" fill="#E0EEEE"/>
<path d="M158.676 38.4636C157.841 37.8841 156.837 37.6002 155.823 37.657C155.108 37.654 154.402 37.8105 153.754 38.1152C153.144 38.4001 152.582 38.7803 152.09 39.2415C151.805 39.5071 151.544 39.7972 151.311 40.1085C151.02 39.4592 150.571 38.8931 150.006 38.4618C149.186 37.8933 148.202 37.6106 147.206 37.6571C146.276 37.648 145.364 37.9151 144.586 38.4247C144.123 38.7231 143.699 39.0769 143.322 39.4785V37.8847H140.121V51.7447H143.322V43.4603C143.316 42.9646 143.45 42.4774 143.708 42.0543C143.976 41.6236 144.351 41.2693 144.795 41.0256C145.278 40.7581 145.822 40.6225 146.373 40.6326C146.709 40.5982 147.048 40.6526 147.356 40.7904C147.664 40.9282 147.931 41.1445 148.13 41.4177C148.528 42.0692 148.723 42.8246 148.69 43.5876V51.7447H151.888V43.5114C151.881 43.1306 151.954 42.7525 152.102 42.4018C152.251 42.051 152.471 41.7354 152.749 41.4753C153.042 41.1923 153.39 40.9718 153.77 40.8269C154.151 40.6821 154.557 40.6159 154.964 40.6325C155.894 40.6325 156.501 40.8861 156.818 41.4074C157.19 42.0899 157.367 42.8612 157.332 43.6377V51.7447H160.531V43.4854C160.542 42.5102 160.406 41.539 160.127 40.6046C159.878 39.7566 159.371 39.0078 158.676 38.4636Z" fill="#E0EEEE"/>
<path d="M175.998 44.3213C176.024 43.0989 175.733 41.8907 175.154 40.8143C174.616 39.8383 173.832 39.0212 172.879 38.4446C171.919 37.8692 170.819 37.5705 169.7 37.5813C168.477 37.5722 167.272 37.8761 166.199 38.4641C165.124 39.0585 164.231 39.9345 163.616 40.9983C162.94 42.2041 162.602 43.5708 162.64 44.9532C162.62 46.2221 162.939 47.4731 163.564 48.5773C164.173 49.6368 165.064 50.5063 166.137 51.0892C167.191 51.6351 168.351 51.9428 169.536 51.9907C170.721 52.0385 171.902 51.8253 172.996 51.3661C173.797 51.0666 174.525 50.6003 175.133 49.9982H175.672L173.9 47.3879L173.658 47.597C173.227 47.958 172.766 48.2831 172.281 48.569C171.636 48.9145 170.91 49.0795 170.179 49.0467C169.097 49.0884 168.036 48.7395 167.19 48.0635C166.481 47.4666 166.01 46.6351 165.861 45.7199H175.967L175.998 44.3213ZM167.247 41.2083C167.987 40.7625 168.837 40.5362 169.7 40.5559C170.199 40.5544 170.692 40.6702 171.138 40.8942C171.582 41.1144 171.967 41.4367 172.263 41.8346C172.532 42.1974 172.699 42.6253 172.747 43.0743H165.991C166.157 42.3148 166.606 41.6474 167.247 41.2083Z" fill="#E0EEEE"/>
</svg>
