<svg width="200" height="60" viewBox="0 0 200 60" fill="none" xmlns="http://www.w3.org/2000/svg">
<path fill-rule="evenodd" clip-rule="evenodd" d="M171.105 19.3958H172.307L172.307 38.6025C172.307 39.5518 172.307 40.153 172.339 40.6279C172.402 41.6721 172.814 41.9252 174.174 41.7671V42.7163C173.789 42.795 173.396 42.8269 173.003 42.8113C171.959 42.8113 171.199 42.4001 171.136 40.9441C171.105 40.3116 171.105 39.7418 171.105 38.6344V19.3958ZM178.381 19.3958H177.178V38.6344C177.178 39.7418 177.178 40.3116 177.21 40.9441C177.273 42.4001 178.032 42.8113 179.077 42.8113C179.469 42.8269 179.863 42.795 180.248 42.7163V41.7671C178.887 41.9252 178.476 41.6721 178.412 40.6279C178.381 40.153 178.381 39.5518 178.381 38.6025V19.3958ZM187.968 25.5345C184.835 25.5345 182.652 27.433 182.652 30.1226C182.652 32.9703 184.962 34.0782 187.683 34.7426C191.385 35.6287 192.682 36.5779 192.682 38.6977C192.682 40.913 190.657 42.0835 188.253 42.0835C185.689 42.0835 183.633 40.9443 183.127 37.7171H181.892C182.304 41.5141 184.962 43.0959 188.158 43.0959C191.48 43.0959 193.916 41.4191 193.916 38.6345C193.916 35.8186 192.018 34.5526 188.189 33.6665C185.626 33.0653 183.886 32.211 183.886 30.0276C183.886 27.8442 185.689 26.5474 187.905 26.5474C190.436 26.5474 191.892 27.876 192.524 30.5656H193.758C193.315 27.7179 191.512 25.5345 187.968 25.5345ZM160.028 42.0836C156.484 42.0836 153.415 39.489 153.415 34.3315C153.415 29.1422 156.484 26.5475 160.028 26.5475C163.572 26.5475 166.674 29.1422 166.674 34.3315C166.674 39.489 163.573 42.0836 160.028 42.0836ZM152.087 34.3304C152.087 29.1724 155.093 25.5335 160.029 25.5335C164.965 25.5335 167.971 29.1724 167.971 34.3304C167.971 39.456 164.965 43.0949 160.029 43.0949C155.093 43.0949 152.087 39.456 152.087 34.3304ZM141.455 41.4508C140.564 41.5696 139.665 41.6227 138.766 41.6095H133.671V21.8649H138.829C139.622 21.8391 140.415 21.8709 141.202 21.9598C144.715 22.3392 148.607 25.2506 148.607 31.6105C148.607 37.8127 144.968 41.0085 141.455 41.451V41.4508ZM138.861 20.8202C139.905 20.8202 140.411 20.8202 141.297 20.8833H141.297C145.062 21.2314 149.935 24.1741 149.935 31.61C149.935 38.9827 145.062 42.1154 141.613 42.5266C140.689 42.6307 139.759 42.6731 138.829 42.6535H132.469V20.8202H138.861Z" fill="#E0EEEE"/>
<path d="M115.48 30.0947C114.999 28.8605 114.487 28.0709 113.943 27.726C113.518 27.3761 112.9 27.3961 112.499 27.7727C112.248 27.9923 112.059 28.2736 111.951 28.5888C111.814 28.9494 111.744 29.3322 111.746 29.7179C111.75 30.1173 111.814 30.5138 111.935 30.8943C112.066 31.3125 112.267 31.7052 112.531 32.0552C112.827 32.4439 113.188 32.7783 113.598 33.0438C114.078 33.354 114.609 33.5769 115.166 33.7022C115.611 33.785 116.066 33.8009 116.515 33.7495C116.907 33.704 117.292 33.6092 117.66 33.4672C117.982 33.343 118.291 33.1906 118.586 33.0119C118.83 32.865 119.061 32.697 119.276 32.51C119.318 32.4686 119.349 32.4527 119.37 32.4633C119.405 32.5908 119.416 32.7239 119.401 32.8554C118.702 34.1523 118.115 35.5061 117.645 36.9023C117.324 37.8326 117.144 38.8054 117.111 39.7888C117.111 41.0856 117.451 42.0267 118.131 42.6121C118.821 43.2018 119.687 43.5442 120.594 43.5847C121.38 43.6485 122.17 43.5249 122.9 43.2239C123.667 42.9059 124.389 42.4894 125.049 41.985C125.759 41.4426 126.407 40.8216 126.978 40.1337C127.576 39.421 128.136 38.6774 128.656 37.9062C129.161 37.1622 129.627 36.3925 130.053 35.6002C130.46 34.8372 130.81 34.1313 131.103 33.4826C131.253 33.2169 131.241 32.8896 131.072 32.6357C130.899 32.4017 130.658 32.2265 130.382 32.1338C130.1 32.0312 129.803 31.9781 129.504 31.9767C129.281 31.9487 129.058 32.0306 128.907 32.1964C128.125 33.6724 127.25 35.0975 126.288 36.463C125.555 37.5125 124.742 38.5038 123.856 39.428C123.266 40.0686 122.571 40.6043 121.801 41.0124C121.355 41.2918 120.806 41.3496 120.311 41.1689C120.131 41.0693 120 40.8986 119.951 40.6982C119.87 40.4128 119.833 40.1167 119.841 39.8201C119.876 38.856 120.061 37.9033 120.39 36.9962C120.808 35.7733 121.349 34.596 122.006 33.4826V33.5139C122.149 33.2901 122.245 33.0393 122.288 32.7769C122.33 32.5122 122.351 32.2447 122.35 31.9767C122.351 31.4579 122.261 30.9431 122.084 30.4555C121.93 30.0056 121.69 29.59 121.378 29.2319C121.118 28.926 120.756 28.7251 120.359 28.6668C119.909 28.6366 119.468 28.8027 119.15 29.1221C118.588 29.6612 117.979 30.1493 117.331 30.5807C117.017 30.8089 116.65 30.9545 116.264 31.0041C116.082 30.996 115.917 30.8956 115.825 30.7378C115.683 30.5278 115.567 30.3014 115.48 30.0634V30.0947Z" fill="#E0EEEE"/>
<path d="M100.735 27.6306C99.9329 28.131 99.2395 28.7872 98.6958 29.5604C98.1778 30.3029 97.7954 31.1312 97.5661 32.007C97.346 32.8151 97.23 33.648 97.2212 34.4855C97.1937 35.323 97.3435 36.1569 97.6606 36.9326C97.7651 37.1838 97.9428 37.5395 98.1938 37.9997C98.4917 38.5191 98.8673 38.9899 99.3076 39.3957C99.8709 39.9136 100.518 40.3325 101.221 40.6347C102.161 41.0218 103.17 41.2139 104.186 41.1992C105.672 41.2324 107.147 40.9491 108.515 40.3683C109.805 39.8219 111.017 39.1101 112.123 38.2507C113.129 37.4722 114.049 36.5887 114.868 35.6151C115.516 34.8534 116.108 34.046 116.641 33.1993C116.778 32.9591 116.858 32.6909 116.876 32.4151C116.891 32.1865 116.842 31.9582 116.735 31.7561C116.633 31.5717 116.488 31.4154 116.311 31.3013C116.139 31.1882 115.937 31.1282 115.731 31.1289C115.204 31.1565 114.735 31.4693 114.507 31.9444C114.366 32.1646 114.208 32.3744 114.037 32.5721C113.765 32.9069 113.404 33.3148 112.955 33.7957C112.448 34.3303 111.914 34.8381 111.354 35.3169C110.707 35.873 110.02 36.3816 109.299 36.8387C108.526 37.3302 107.707 37.7452 106.853 38.0777C105.979 38.422 105.059 38.6386 104.123 38.7208C103.731 38.7188 103.341 38.6662 102.962 38.5642C102.566 38.4601 102.182 38.3128 101.817 38.1249C101.461 37.9437 101.133 37.7111 100.845 37.4346C100.567 37.1695 100.347 36.8488 100.202 36.4933C100.01 36.0647 99.8833 35.6102 99.8249 35.1445C100.329 35.3902 100.861 35.5746 101.409 35.6937C102.063 35.8342 102.734 35.8817 103.402 35.8348C104.707 35.7292 105.952 35.2377 106.978 34.4229C107.494 34.0128 107.925 33.5069 108.249 32.9329C108.579 32.3328 108.746 31.6567 108.735 30.9718C108.704 29.5393 107.978 28.2113 106.79 27.4109C106.361 27.1243 105.89 26.9072 105.394 26.7679C104.868 26.6208 104.319 26.5783 103.778 26.6426C102.7 26.73 101.658 27.0684 100.735 27.6306Z" fill="#E0EEEE"/>
<path d="M105.424 29.341C105.632 29.4558 105.768 29.6683 105.785 29.9055C105.94 30.7919 105.666 31.6991 105.048 32.3527C104.417 32.9527 103.581 33.2893 102.711 33.294C102.326 33.312 101.94 33.275 101.566 33.1841C101.158 33.0897 100.776 32.9903 100.421 32.8859L100.044 32.792C100.709 30.856 102.408 29.4602 104.436 29.1839C104.774 29.1071 105.127 29.1634 105.424 29.341Z" fill="#161616"/>
<path d="M83.8101 27.5068C83.4758 27.6731 83.2096 27.9503 83.0571 28.2911C82.8992 28.6405 82.8241 29.0216 82.8375 29.4048C82.837 29.7498 82.9063 30.0912 83.0412 30.4087C83.1035 30.6548 83.1351 30.9078 83.1351 31.1616C83.1564 31.5591 83.1878 32.0297 83.2296 32.5736C83.2922 33.4517 83.3758 34.4348 83.4806 35.5227C83.5748 36.5488 83.7478 37.5661 83.9979 38.5657C84.1971 39.4083 84.5309 40.2133 84.9864 40.9497C85.314 41.5452 85.9378 41.9172 86.6175 41.9223C87.8377 41.7944 88.9992 41.3331 89.9746 40.5889C91.013 39.8109 91.9053 38.855 92.6101 37.7655C93.3523 36.6244 93.928 35.3832 94.3197 34.0794C94.7187 32.7994 94.9249 31.4672 94.9315 30.1264C94.9323 29.4066 94.8746 28.688 94.7591 27.9775C94.6541 27.3108 94.4588 26.6616 94.1786 26.0477C93.975 25.5732 93.7056 25.1296 93.3784 24.7302C93.1723 24.4828 92.9225 24.2755 92.6414 24.1184C92.4396 24.0097 92.211 23.9607 91.9824 23.9773C91.7993 23.9918 91.6195 24.0342 91.4492 24.103C90.9317 24.3577 90.6302 24.9102 90.6962 25.4831C90.707 25.9565 90.8026 26.4241 90.9785 26.8638C91.2437 27.6747 91.4533 28.5027 91.6057 29.3422C91.7475 30.108 91.821 30.8848 91.8254 31.6636C91.8335 32.6282 91.7069 33.5892 91.4492 34.5188C91.2227 35.3429 90.868 36.1263 90.398 36.8402C89.9625 37.4949 89.4157 38.0683 88.7823 38.5344C88.1625 38.9909 87.4591 39.3214 86.7119 39.507C86.5443 39.5489 86.424 39.3292 86.3511 38.848C86.2704 38.2555 86.2337 37.6578 86.2413 37.0598C86.2413 36.4947 86.2675 35.8987 86.3198 35.2717C86.3718 34.644 86.4293 34.0635 86.4923 33.5303C86.5552 32.997 86.618 32.5368 86.6806 32.1496C86.7432 31.7633 86.785 31.5177 86.8058 31.4126C86.8538 31.2374 86.8905 31.0593 86.9157 30.8794C86.9497 30.6299 86.9655 30.3782 86.9629 30.1264C86.9575 29.6004 86.8397 29.0815 86.6175 28.6047C86.3229 28.0401 85.7956 27.633 85.1748 27.4909C84.7349 27.3199 84.2459 27.3256 83.8101 27.5068Z" fill="#E0EEEE"/>
<path d="M69.1746 27.6306C68.3726 28.131 67.6792 28.7872 67.1355 29.5604C66.6177 30.3031 66.2353 31.1313 66.0058 32.0071C65.7857 32.8151 65.6697 33.648 65.6609 34.4855C65.6334 35.323 65.7832 36.157 66.1003 36.9326C66.2048 37.1838 66.3825 37.5395 66.6335 37.9997C66.9314 38.5191 67.307 38.9899 67.7472 39.3957C68.3106 39.9136 68.9575 40.3325 69.6606 40.6347C70.6005 41.0218 71.6092 41.2139 72.6256 41.1992C74.1113 41.2324 75.587 40.9492 76.9548 40.3683C78.2443 39.822 79.4572 39.1102 80.5629 38.2507C81.569 37.4722 82.4891 36.5887 83.3077 35.6152C83.9557 34.8534 84.5482 34.046 85.0805 33.1993C85.2172 32.9591 85.2976 32.6909 85.3155 32.4151C85.331 32.1865 85.2821 31.9582 85.1744 31.7561C85.0732 31.5717 84.9277 31.4154 84.751 31.3013C84.5786 31.1882 84.3767 31.1282 84.1705 31.1289C83.6442 31.1567 83.1751 31.4694 82.9469 31.9444C82.8053 32.1646 82.6482 32.3743 82.4768 32.5721C82.2046 32.907 81.8438 33.3148 81.3944 33.7957C80.8879 34.3305 80.3538 34.8382 79.7941 35.317C79.1467 35.8731 78.4599 36.3817 77.739 36.8387C76.9657 37.3302 76.1463 37.7452 75.2924 38.0777C74.4182 38.422 73.499 38.6386 72.563 38.7208C72.1709 38.7188 71.7807 38.6662 71.402 38.5643C71.0055 38.4601 70.6215 38.3128 70.257 38.1249C69.9007 37.9437 69.573 37.7111 69.2844 37.4346C69.0063 37.1695 68.7872 36.8488 68.6413 36.4933C68.4501 36.0647 68.3232 35.6102 68.2646 35.1445C68.7689 35.3902 69.3008 35.5746 69.849 35.6937C70.5032 35.8342 71.1739 35.8817 71.8414 35.8348C73.1471 35.7292 74.392 35.2378 75.4177 34.4229C75.9333 34.0128 76.3649 33.5069 76.6885 32.933C77.0186 32.3328 77.1862 31.6567 77.1745 30.9718C77.1433 29.5393 76.4178 28.2113 75.2293 27.411C74.8008 27.1243 74.3296 26.9072 73.8333 26.7679C73.3081 26.6208 72.7592 26.5783 72.2176 26.6426C71.1401 26.7301 70.098 27.0685 69.1746 27.6306Z" fill="#E0EEEE"/>
<path d="M73.8649 29.341C74.0732 29.4558 74.209 29.6683 74.2258 29.9055C74.3803 30.7919 74.1071 31.6991 73.4887 32.3527C72.8581 32.9529 72.022 33.2896 71.1514 33.294C70.7665 33.3119 70.3809 33.275 70.0064 33.1841C69.5984 33.0897 69.2167 32.9903 68.8613 32.8859L68.4846 32.792C69.1494 30.856 70.8487 29.4602 72.877 29.1839C73.2142 29.1071 73.5681 29.1634 73.8649 29.341Z" fill="#161616"/>
<path d="M52.7046 30.0947C52.2238 28.8605 51.7114 28.071 51.1674 27.7261C50.7432 27.3761 50.1249 27.3961 49.7242 27.7728C49.4731 27.9922 49.2838 28.2736 49.175 28.5888C49.0385 28.9495 48.9694 29.3323 48.9712 29.7179C48.9747 30.1173 49.0382 30.5138 49.1596 30.8943C49.2901 31.3126 49.4917 31.7053 49.7555 32.0553C50.0516 32.4438 50.4125 32.7782 50.8225 33.0438C51.3024 33.3541 51.8334 33.5771 52.391 33.7023C52.8357 33.785 53.2903 33.8009 53.7398 33.7495C54.1318 33.7041 54.5166 33.6092 54.8848 33.4672C55.2063 33.3431 55.5161 33.1907 55.8107 33.0119C56.0548 32.865 56.2856 32.697 56.5005 32.51C56.5424 32.4686 56.5737 32.4527 56.5949 32.4633C56.6302 32.5908 56.6408 32.7239 56.6262 32.8554C55.9273 34.1523 55.3395 35.5061 54.8694 36.9023C54.549 37.8326 54.3692 38.8055 54.3362 39.7888C54.3362 41.0856 54.6759 42.0267 55.3554 42.6122C56.0451 43.2018 56.912 43.5441 57.8185 43.5847C58.6049 43.6485 59.3952 43.5249 60.1245 43.2239C60.8915 42.9059 61.6139 42.4894 62.2735 41.985C62.9842 41.4425 63.6314 40.8215 64.2027 40.1337C64.8003 39.4207 65.3605 38.6772 65.881 37.9062C66.3861 37.1623 66.8521 36.3926 67.2771 35.6002C67.6851 34.8372 68.0355 34.1313 68.3282 33.4826C68.4778 33.2169 68.4657 32.8897 68.2969 32.6357C68.1235 32.4018 67.8826 32.2266 67.6066 32.1338C67.3251 32.0312 67.028 31.9781 66.7284 31.9767C66.5057 31.9487 66.2833 32.0306 66.132 32.1964C65.3496 33.6724 64.4746 35.0974 63.5124 36.463C62.7796 37.5125 61.9668 38.5038 61.0812 39.428C60.4906 40.0685 59.7958 40.6042 59.0262 41.0124C58.5803 41.2918 58.0304 41.3496 57.5362 41.1689C57.3554 41.0694 57.2245 40.8987 57.1754 40.6983C57.0945 40.4128 57.0575 40.1167 57.0656 39.8201C57.1008 38.856 57.2859 37.9033 57.6142 36.9962C58.0328 35.7735 58.5742 34.5963 59.2299 33.4826V33.5139C59.3738 33.2903 59.4701 33.0394 59.5127 32.7769C59.5546 32.5122 59.5755 32.2447 59.5753 31.9767C59.5759 31.458 59.4856 30.9431 59.3084 30.4555C59.1548 30.0057 58.9151 29.5902 58.6027 29.2319C58.3427 28.926 57.9802 28.7251 57.5829 28.6668C57.1335 28.6367 56.693 28.8027 56.3753 29.1221C55.8132 29.6612 55.2043 30.1494 54.5558 30.5807C54.2412 30.809 53.8743 30.9546 53.4888 31.0041C53.3067 30.996 53.1413 30.8956 53.05 30.7378C52.9079 30.5278 52.7919 30.3014 52.7046 30.0634V30.0947Z" fill="#E0EEEE"/>
<path d="M33.0656 31.0983C32.7547 31.7588 32.5229 32.4537 32.3753 33.1687C32.2309 33.8602 32.1573 34.5646 32.1556 35.271C32.1445 35.9468 32.2183 36.6213 32.3753 37.2788V37.2469C32.5381 38.0418 32.8409 38.8014 33.2694 39.4903C33.6542 40.1035 34.1487 40.6406 34.728 41.0747C35.2964 41.495 35.9333 41.8135 36.6106 42.016C37.3128 42.2266 38.0423 42.3322 38.7754 42.3296C39.5978 42.3238 40.4118 42.1642 41.1754 41.8589C41.8505 41.5826 42.4718 41.1897 43.0107 40.698C43.5295 40.2218 43.9689 39.6658 44.3123 39.051C44.6558 38.4386 44.9345 37.792 45.1437 37.1217C46.1155 37.0109 47.0759 36.8167 48.0143 36.5412C48.9358 36.2785 49.8331 35.9375 50.6965 35.5219C51.44 35.17 52.1401 34.7331 52.7829 34.2198C53.2693 33.8671 53.6449 33.3828 53.8653 32.8238C53.9491 32.5559 53.9149 32.2649 53.7714 32.0237C53.6321 31.7709 53.4394 31.5514 53.2068 31.3806C52.9945 31.2195 52.7358 31.1314 52.4693 31.1296C52.2033 31.1317 51.9584 31.275 51.8262 31.5058L51.8575 31.4745C51.5542 31.8833 51.1952 32.2476 50.791 32.5569C50.3238 32.9198 49.825 33.24 49.3005 33.5136C48.7316 33.8132 48.1388 34.065 47.5283 34.2665C46.9019 34.4755 46.2626 34.6434 45.6144 34.769C45.655 34.5517 45.676 34.3311 45.677 34.11V33.4823C45.6838 33.083 45.6524 32.6839 45.5831 32.2905C45.4327 31.5583 45.1454 30.8611 44.7362 30.2355C44.3648 29.6683 43.904 29.1649 43.3715 28.7451C42.8825 28.3613 42.3376 28.0546 41.7558 27.8356C41.2453 27.6368 40.7034 27.5305 40.1555 27.5215C39.5355 27.5889 38.9368 27.7867 38.3987 28.102C37.9236 28.3801 37.5163 28.7606 37.2064 29.2157C37.0702 28.9377 36.8902 28.6835 36.6732 28.4628C36.3715 28.079 35.8832 27.8923 35.4024 27.9767C35.0019 28.1008 34.6472 28.3409 34.3831 28.6665C34.0862 29.0186 33.8381 29.4091 33.6456 29.8275C33.4471 30.2567 33.2955 30.5863 33.1908 30.816L33.0338 31.2548L33.0656 31.0983Z" fill="#E0EEEE"/>
<path d="M39.2775 31.8195C39.2992 31.564 39.3796 31.3171 39.5125 31.0978C39.6626 30.8522 39.8599 30.6389 40.093 30.4701C40.3698 30.2722 40.6951 30.153 41.0343 30.1252C41.6054 30.1354 42.1109 30.4973 42.3046 31.0347C42.6501 31.7499 42.8375 32.5312 42.8537 33.3253C42.8956 33.8396 42.864 34.3572 42.7598 34.8625C42.0177 34.777 41.3045 34.5248 40.6735 34.1249C40.0626 33.7207 39.5958 33.1331 39.3401 32.4466C39.2734 32.2447 39.2521 32.0306 39.2775 31.8195Z" fill="#161616"/>
<path d="M36.7052 31.9445C36.8326 32.4422 37.0223 32.9217 37.2698 33.3718C37.5609 33.9119 37.9194 34.4127 38.3368 34.8623C38.8069 35.3687 39.3453 35.807 39.9366 36.1644C40.6063 36.5681 41.3376 36.8596 42.1014 37.0272C41.7372 37.7847 41.2189 38.4579 40.5797 39.0037C39.9273 39.5537 39.1234 39.8927 38.2742 39.9757C37.4602 39.9649 36.6807 39.6454 36.0934 39.0817C35.487 38.5269 35.0932 37.778 34.9797 36.964C34.9164 36.6226 34.885 36.2761 34.8858 35.9288C34.8935 35.372 34.9725 34.8185 35.1208 34.2818C35.2845 33.67 35.5327 33.0841 35.8584 32.5409C35.896 32.5041 35.9276 32.4617 35.9523 32.4152C35.9933 32.3526 36.0467 32.2991 36.1093 32.2581L36.3603 32.0071L36.6426 31.7249L36.7052 31.9445Z" fill="#161616"/>
<path d="M17.7872 8.54106C17.5345 8.66831 17.3225 8.86391 17.1754 9.10562C17.0078 9.38229 16.886 9.68419 16.8146 9.99969C16.6283 10.7811 16.6498 11.5978 16.8772 12.3683C14.6941 13.6138 12.6669 15.1146 10.8384 16.8392C8.99466 18.5829 7.44287 20.6114 6.24235 22.8472C6.05538 23.2014 6.03232 23.6196 6.17921 23.9922C6.33202 24.3886 6.56135 24.751 6.85414 25.0588C7.14885 25.3764 7.4868 25.6509 7.85804 25.8743C8.12705 26.0567 8.43184 26.1797 8.7521 26.2351H8.93994C9.19091 26.2775 9.53156 26.3402 9.95976 26.4235C10.4386 26.5229 10.9063 26.6701 11.3558 26.8628C11.8973 27.0928 12.4171 27.3711 12.9089 27.6943C13.4797 28.0727 13.9921 28.5325 14.4301 29.059L14.9952 29.8119C14.8068 31.3597 14.6291 32.9126 14.4619 34.4706C14.2948 36.0286 14.1483 37.5502 14.0226 39.0354C13.8968 40.5205 13.7974 41.9427 13.7244 43.302C13.6513 44.6612 13.6147 45.9056 13.6146 47.0353C13.6146 48.0392 13.6506 48.9386 13.7228 49.7334C13.7722 50.4029 13.8919 51.0654 14.0799 51.7099V51.6786C14.2571 52.325 14.5994 52.9142 15.0732 53.3882C15.4308 53.7627 15.9209 53.9823 16.4384 54C16.9169 53.974 17.3657 53.7598 17.6869 53.4041C18.1763 52.8612 18.519 52.2025 18.6829 51.4902C18.6912 51.441 18.7071 51.3934 18.7301 51.3491C18.7528 51.3046 18.7689 51.2571 18.7779 51.208L18.746 51.2706C18.8723 50.8732 19.0357 50.345 19.2363 49.6862C19.4363 49.0272 19.6312 48.2534 19.821 47.3648C20.011 46.4755 20.1744 45.4925 20.3113 44.4157C20.452 43.2761 20.5205 42.1288 20.5166 40.9806C20.5132 39.8424 20.4398 38.7054 20.297 37.5762C20.1394 36.3406 19.8877 35.1187 19.5441 33.9214C19.8783 33.5452 20.2183 33.1793 20.5639 32.8236C20.909 32.4679 21.2931 32.1521 21.7089 31.8823C22.148 31.6009 22.6226 31.3792 23.1203 31.2233C23.7104 31.0465 24.3243 30.9618 24.9403 30.9723C25.8714 30.9984 26.797 31.1247 27.701 31.3491C28.0851 31.4773 28.5087 31.3805 28.7988 31.0981C29.0542 30.8151 29.1894 30.4438 29.1756 30.0629C29.1722 29.8158 29.1244 29.5714 29.0344 29.3413C28.9415 29.0929 28.8031 28.864 28.6264 28.6663C28.4314 28.4554 28.1969 28.2848 27.9361 28.1644C27.6263 28.023 27.2886 27.9533 26.9481 27.9606C26.5412 27.9663 26.1381 28.0406 25.7558 28.1803C25.5882 28.2015 25.2065 28.2434 24.6108 28.306C23.9354 28.3822 23.265 28.4974 22.603 28.6509C21.828 28.8285 21.0676 29.0644 20.3283 29.3566C19.6111 29.6272 18.9433 30.0141 18.3518 30.5017L17.9443 29.5922C18.0902 28.0864 18.2365 26.6065 18.3831 25.1527C18.5295 23.6993 18.6709 22.3242 18.807 21.0272C18.9423 19.731 19.0677 18.5389 19.1832 17.451C19.2979 16.3638 19.4077 15.4225 19.5127 14.6271C20.9254 13.8495 22.3813 13.1531 23.8732 12.5413C25.5725 11.8459 27.3179 11.2693 29.097 10.8158C31.126 10.2984 33.1847 9.90533 35.2616 9.63888C37.6338 9.33673 40.0233 9.19015 42.4147 9.20007H43.4812C43.8367 9.20007 44.1924 9.21051 44.5482 9.23138C44.9722 9.23504 45.3939 9.29299 45.8031 9.40382C46.0612 9.48424 46.3129 9.58392 46.556 9.70202C46.7232 9.76463 46.8905 9.82211 47.058 9.87447C47.2515 9.93055 47.4524 9.95702 47.6538 9.953C48.0586 9.96708 48.4545 9.83314 48.7676 9.57627C49.003 9.35829 49.1343 9.05022 49.1284 8.72943C49.0842 8.17183 48.8323 7.65112 48.4227 7.27027C47.9196 6.74155 47.2489 6.40348 46.5247 6.31359H46.556C45.9128 6.19677 45.2633 6.11828 44.6108 6.07853C43.8579 6.02653 43.0213 6.00035 42.1011 6C40.6578 6 39.063 6.07835 37.3166 6.23506C35.5702 6.39176 33.7455 6.65317 31.8424 7.01929C29.874 7.40142 27.9263 7.88312 26.0068 8.46253C24.0121 9.06159 22.0623 9.80079 20.1718 10.6746C20.1251 10.1997 19.9922 9.73718 19.7796 9.30991C19.568 8.86621 19.1514 8.55522 18.6659 8.47845C18.3752 8.39129 18.0626 8.41356 17.7872 8.54106Z" fill="#E0EEEE"/>
<path d="M17.2131 46.0004C17.0237 47.395 16.7546 48.7775 16.4071 50.1412C16.3864 49.66 16.3974 48.9752 16.44 48.0867C16.4835 47.1975 16.5431 46.1621 16.6188 44.9806C16.6945 43.7991 16.7922 42.4972 16.9117 41.0748C17.0311 39.6528 17.1558 38.1678 17.2858 36.6199C17.4749 38.0132 17.5692 39.4177 17.5681 40.8238C17.5742 42.5557 17.4555 44.2856 17.2131 46.0004Z" fill="#161616"/>
<path d="M15.3208 26.8933C14.6792 26.4453 14.0143 26.0315 13.3289 25.6538C12.628 25.267 11.9847 24.9324 11.3991 24.6499C10.8135 24.3675 10.322 24.1427 9.92459 23.9755C9.71183 23.8752 9.49169 23.7913 9.26611 23.7245C9.36996 23.4983 9.49598 23.2829 9.64231 23.0815C10.0375 22.4929 10.4726 21.9322 10.9444 21.4032C11.6712 20.5788 12.441 19.7933 13.2504 19.0499C14.327 18.0651 15.4765 17.1631 16.6893 16.3518C16.6038 17.0846 16.503 17.8898 16.3868 18.7676C16.2701 19.6463 16.148 20.5874 16.0207 21.591L15.3208 26.8933Z" fill="#161616"/>
</svg>
