<svg width="200" height="60" viewBox="0 0 200 60" fill="none" xmlns="http://www.w3.org/2000/svg">
<path d="M52.2001 45.1026C52.7194 46.1367 48.1328 48.106 44.0442 43.8944C41.322 41.091 43.212 36.0883 46.894 28.1576H43.7504C42.7607 30.43 39.5533 37.5954 38.7743 39.599C38.7424 39.8205 38.7232 40.0183 38.7254 40.1902C38.7296 40.6224 38.2848 40.6503 37.7037 40.4138C37.0503 40.1494 35.9265 39.5302 35.1561 38.7627C34.7985 38.4059 34.3388 37.6814 34.5325 37.1676C34.8794 36.241 36.6502 32.1606 38.4699 28.0028C37.8697 27.8673 37.1035 27.5148 37.1738 26.5989C37.2334 25.8271 39.3554 25.9841 39.3554 25.9841C41.1283 21.9424 42.7352 18.3048 42.865 18.0125C43.9952 15.4499 38.0954 15.0887 34.1281 22.3809C31.8422 26.5817 32.9341 29.512 33.0745 29.6797C33.2044 29.8387 33.2256 30.2924 32.1593 30.2171C28.3751 30.3031 25.7465 26.6548 26.981 22.9012C28.0367 19.6979 30.3119 17.4514 33.232 15.9336C36.399 14.2911 40.8984 13.0915 44.2272 13.702C46.9898 14.2094 49.0927 15.8712 46.7451 21.2716C46.3258 22.2369 45.7149 23.6386 44.6976 25.9819H45.4084H45.4872H47.8944C48.6627 24.2126 53.2345 13.702 53.2345 13.702C53.2345 13.702 58.8598 13.5558 57.736 16.1378C57.0719 17.6663 54.569 23.4193 51.9383 29.4711C48.103 38.2898 47.4879 39.4227 48.0051 42.8754C48.3456 45.1499 50.4442 45.3219 50.4442 45.3219C50.4442 45.3219 51.6808 44.0685 52.2001 45.1026ZM91.36 25.8228C91.3451 26.2313 91.1195 26.8225 90.7726 27.575C90.4576 28.1511 90.1319 28.7337 90.1319 28.7337C88.8932 31.421 86.9224 35.7917 86.4669 37.4169C86.3817 37.7459 86.1178 38.6209 86.7414 38.9132C86.8351 38.9562 86.9458 38.9863 87.082 39.0014C87.148 39.0745 87.2161 39.1411 87.2799 39.2013C87.4247 39.3389 87.3693 39.5947 87.1735 39.6807C87.1607 39.6872 87.1458 39.6915 87.1309 39.6979C87.099 39.7409 87.0586 39.7775 87.0032 39.8011C86.4456 40.0462 84.4556 40.6159 83.1104 39.9495C82.3783 39.7538 81.7483 39.1519 81.7355 38.3414C81.7355 37.8276 81.9271 37.0923 82.1952 36.3055C82.523 35.2778 82.9849 34.2072 83.119 33.8289C83.2765 33.3946 83.4446 32.9668 83.6212 32.5432C82.7891 33.7149 78.2982 40.0118 77.632 40.2633C77.0233 40.4934 74.382 40.5665 74.0031 38.0834C72.2302 40.087 70.1316 40.13 69.5506 40.0999C68.9738 40.1236 68.38 40.0268 67.8585 39.8914C67.1966 39.7237 66.6155 39.2228 66.4878 38.537C64.6447 40.3644 62.5738 40.259 62.2311 40.2268C61.6224 40.2676 60.9903 40.1687 60.4369 40.0247C59.6941 39.8355 59.0513 39.2293 59.0385 38.4102C59.0385 37.0472 60.3964 34.0997 60.9434 32.8292C60.9541 32.8034 60.9796 32.7496 61.0158 32.6722C59.2705 34.8586 57.3656 37.4836 55.2011 39.5711C54.3029 40.4353 52.8663 40.3171 51.7595 40.0247C51.0167 39.8355 50.3739 39.2293 50.3612 38.4102C50.3612 37.0472 51.7191 34.0997 52.2661 32.8292C52.4278 32.4573 55.5459 25.797 56.0631 24.7028C56.2078 24.3953 56.2972 24.2062 56.2972 24.2062C56.2972 24.2062 57.9765 24.06 58.6065 24.0557C58.7023 24.06 58.8002 24.0664 58.8981 24.0772C59.4408 24.1374 60.0133 24.3223 60.2347 24.8447C60.3964 25.5434 60.007 26.2442 59.7111 26.8806C59.411 27.4718 58.7555 28.7982 58.7555 28.7982C57.5168 31.4855 55.5459 35.8562 55.0904 37.4814C56.7271 36.5205 60.3879 32.0294 62.4354 29.3722C62.6334 29.1164 62.7994 28.8412 62.9356 28.551C63.7273 26.8591 64.5042 25.2015 64.7405 24.7006C64.8852 24.3932 64.9746 24.204 64.9746 24.204C64.9746 24.204 66.6539 24.0578 67.2839 24.0535C67.3796 24.0578 67.4775 24.0643 67.5754 24.075C67.8883 24.1094 68.2118 24.1868 68.4715 24.3459C68.6609 24.462 68.8184 24.6232 68.9121 24.8425C69.0738 25.5412 68.6843 26.2421 68.3885 26.8784C68.0884 27.4696 67.4328 28.7961 67.4328 28.7961C66.1941 31.4834 64.2233 35.854 63.7678 37.4793C63.6805 37.8168 63.4081 38.7176 64.0828 38.9906C65.1065 38.6423 66.1814 37.2858 66.988 36.041C67.4307 34.7877 68.0394 33.444 68.3651 32.6916L70.3572 28.4155C71.149 26.7236 75.2461 17.9544 75.4802 17.4535C75.625 17.1461 75.7143 16.9569 75.7143 16.9569C75.7143 16.9569 77.3936 16.8107 78.0236 16.8064C78.1194 16.8107 78.2173 16.8171 78.3152 16.8279C78.6281 16.8623 78.9516 16.9397 79.2113 17.0988C79.4007 17.2149 79.5582 17.3761 79.6518 17.5954C79.8136 18.2941 79.4241 18.9949 79.1283 19.6313C78.8282 20.2225 74.8523 28.6606 74.8523 28.6606C73.6136 31.3479 71.6428 35.7186 71.1873 37.3438C71.1043 37.6642 70.8531 38.4962 71.4086 38.8122C72.3707 38.4166 73.3646 37.1762 74.1308 36.0088C75.0801 31.6403 78.2918 26.1346 80.7437 24.6275C82.5762 23.5032 84.347 23.3914 85.2729 24.0772C86.0965 24.6856 86.5414 25.4552 86.3264 26.9773C86.386 26.8612 86.4797 26.6914 86.5925 26.4936C86.9798 25.8013 87.5736 24.7673 87.6311 24.5351C89.1657 24.2664 91.3962 24.9951 91.36 25.8228ZM84.9047 25.9927C83.8873 25.2123 79.2325 28.1941 78.0598 37.4707C83.1807 31.6618 86.1114 26.9193 84.9047 25.9927ZM123.309 35.3488C124.607 31.3436 129.241 21.1211 130.422 18.4403C127.042 17.0235 126.265 16.9074 124.98 18.7262C120.334 25.3026 117.469 29.4733 112.863 36.0754C112.688 36.327 112.505 36.5721 112.327 36.8214C112.203 36.2861 113.38 31.335 114.023 29.383C115.025 26.3388 116.502 22.6776 117.624 19.5324C117.928 18.6768 119.04 16.7591 117.13 16.0325C116.298 15.7164 114.37 15.3252 113.176 15.1037C112.067 17.1719 111.299 18.5693 109.534 21.9015C109.507 21.951 102.962 35.1596 101.981 37.6061C101.774 38.0339 101.568 38.4618 101.359 38.8874C101.057 39.5001 100.676 40.0892 100.263 40.6417C99.6522 41.4608 98.9753 41.3812 98.622 40.4762C98.4922 40.1429 98.3943 39.7904 98.3389 39.4313C97.9409 36.8752 98.0346 34.2975 98.7412 31.7177C99.335 29.5464 100.529 27.8093 102.672 26.8376C100.414 23.8837 95.7168 24.232 93.5459 27.489C91.7495 30.1806 91.326 33.0463 92.0092 35.9894C92.752 39.1798 94.9208 42.3422 97.5004 44.2599C99.6415 45.8529 101.685 46.0249 103.826 44.0987C104.022 43.9224 104.362 43.2731 104.486 42.9743C106.518 38.0189 112.986 22.9034 112.986 22.9034C113.023 23.1441 108.813 35.9314 108.921 38.681C108.949 39.4012 109.128 40.1709 109.47 40.775C110.126 41.9338 111.718 41.822 112.482 40.6525C115.609 35.8669 118.735 31.0792 121.864 26.2937C121.979 26.1195 122.106 25.954 122.23 25.7841C122.221 26.0335 122.134 26.2464 122.038 26.4549C120.357 30.0881 118.761 33.7493 117.85 37.619C117.533 38.967 117.281 40.3235 117.588 41.6672C117.756 42.4067 118.12 42.9807 118.899 43.157C120.753 43.5762 122.56 42.9055 124.154 41.7295C122.113 40.3923 122.92 36.5506 123.309 35.3488ZM148.766 22.9786C150.188 22.5422 151.257 21.5296 152.036 20.2418C152.617 19.2809 152.476 18.5757 151.499 18.1715C150.614 17.8039 149.631 17.647 148.801 17.4277C148.126 19.2787 147.513 20.962 146.772 22.9915C147.449 22.9979 148.149 23.1678 148.766 22.9786ZM173.23 25.9346C172.845 27.6717 171.595 29.1637 170.369 30.5009C170.731 32.4293 171.227 34.3405 171.532 36.2969C171.532 36.2969 172.07 40.2504 167.558 40.416C167.171 40.431 166.77 40.4181 166.304 40.4181C163.997 40.4181 162.724 39.5625 162.118 38.3758C161.007 39.3733 159.843 39.7108 159.044 39.8162C158.31 39.9967 157.276 40.13 156.399 39.8742C156.254 39.8463 156.114 39.814 155.977 39.7775C155.235 39.5883 154.592 38.982 154.579 38.1629C154.579 38.1027 154.583 38.0382 154.588 37.9716C154.615 37.4685 154.796 36.787 155.043 36.0604C155.371 35.0328 155.833 33.9621 155.967 33.5838C156.124 33.1495 156.292 32.7217 156.471 32.2982C155.639 33.4698 151.148 39.7667 150.482 40.0182C149.89 40.2418 147.37 40.3171 146.887 38.0318C145.023 39.9817 142.875 39.8807 142.511 39.8484C141.898 39.8914 141.262 39.7925 140.704 39.6463C140.091 39.4894 139.549 39.0508 139.37 38.4424C138.674 39.0487 137.963 39.3991 137.335 39.6012C136.665 39.8635 134.819 40.3343 133.549 39.7065C132.816 39.5109 132.186 38.9089 132.174 38.0984C132.174 37.5846 132.365 36.8494 132.633 36.0625C132.961 35.0349 133.423 33.9643 133.557 33.5859C133.713 33.1517 133.883 32.7238 134.059 32.3003C133.227 33.472 128.736 39.7689 128.07 40.0204C127.336 40.2977 123.637 40.3493 124.535 35.9529C125.433 31.5565 128.7 25.9174 131.188 24.391C133.021 23.2667 134.792 23.1549 135.717 23.8407C136.541 24.4491 136.986 25.2187 136.771 26.7408C136.831 26.6247 136.924 26.4549 137.037 26.2571C137.424 25.5649 138.018 24.5308 138.076 24.2986C139.602 24.0213 141.832 24.7501 141.796 25.5778C141.781 25.9862 141.556 26.5774 141.209 27.3299C140.894 27.906 140.568 28.4886 140.568 28.4886C139.329 31.1759 137.358 35.5466 136.903 37.1719C136.82 37.4965 136.562 38.3478 137.152 38.6531C137.986 38.4338 138.863 37.5094 139.606 36.4968C140.038 35.0758 140.826 33.3473 141.213 32.453L143.205 28.1769C143.997 26.485 144.542 25.3628 144.776 24.864C144.921 24.5566 145.01 24.3674 145.01 24.3674C145.01 24.3674 146.689 24.2212 147.319 24.2169C147.415 24.2212 147.513 24.2277 147.611 24.2384C147.924 24.2728 148.247 24.3502 148.507 24.5093C148.696 24.6254 148.854 24.7866 148.947 25.0059C149.109 25.7046 148.72 26.4054 148.424 27.0418C148.124 27.633 147.7 28.422 147.7 28.422C146.461 31.1093 144.491 35.4799 144.035 37.1052C143.948 37.4427 143.675 38.3457 144.352 38.6187C145.231 38.322 146.146 37.2836 146.9 36.2087C146.915 36.1249 146.928 36.041 146.945 35.9529C147.843 31.5565 151.112 25.9174 153.598 24.391C155.43 23.2667 157.201 23.1549 158.127 23.8407C158.951 24.4491 159.396 25.2187 159.181 26.7408C159.232 26.6441 159.306 26.5065 159.393 26.3496C160.873 23.1828 163.418 17.7373 163.601 17.3482C163.746 17.0407 163.835 16.8515 163.835 16.8515C163.835 16.8515 165.515 16.7054 166.145 16.7011C166.24 16.7054 166.338 16.7118 166.436 16.7226C166.749 16.757 167.073 16.8343 167.332 16.9934C167.522 17.1095 167.679 17.2708 167.773 17.4901C167.935 18.1887 167.545 18.8896 167.249 19.526C167.051 19.9151 162.973 28.5553 162.973 28.5553C161.735 31.2426 159.764 35.6132 159.308 37.2385C159.272 37.3782 159.206 37.6126 159.185 37.8598C159.17 38.1801 159.247 38.5091 159.587 38.6681C159.604 38.6767 159.621 38.6832 159.64 38.6896C160.334 38.5972 161.064 37.978 161.733 37.1934C161.29 34.6178 162.875 31.4275 163.874 31.3544C164.133 31.335 164.393 31.4705 164.653 31.535C164.559 31.793 164.525 32.0982 164.361 32.2982C164.001 32.7303 163.64 33.644 163.554 34.5018C163.497 35.093 163.571 35.6562 163.872 36.0152C164.076 36.2603 164.384 36.4087 164.825 36.4087C165.591 36.4087 166.685 35.8347 166.383 33.5666C166.313 33.1581 165.651 29.684 165.634 28.0415C165.63 26.9537 165.808 25.7497 166.583 24.8017C167.877 23.1484 170.206 22.568 171.925 23.1097C173.058 23.4365 173.522 24.7587 173.23 25.9346ZM135.339 25.7433C134.321 24.9629 129.666 27.9447 128.494 37.2213C133.612 31.4124 136.543 26.6699 135.339 25.7433ZM157.75 25.7433C156.733 24.9629 152.078 27.9447 150.905 37.2213C156.024 31.4124 158.955 26.6699 157.75 25.7433ZM170.993 24.3179C169.65 25.7196 169.925 27.661 170.129 29.226C170.695 28.6585 171.048 27.8996 171.359 27.188C171.798 26.1754 171.742 24.9801 170.993 24.3179ZM55.1372 47.3815C55.8673 46.1818 55.9332 44.7329 55.316 43.5053C55.3118 43.4967 55.3075 43.4881 55.3032 43.4795C56.2312 43.1936 56.9208 42.7421 57.4018 42.325C58.0254 42.8539 58.764 43.2366 59.5706 43.4451C60.4858 43.6837 61.3712 43.7934 62.2077 43.7654C62.3162 43.7697 62.429 43.774 62.544 43.774C63.24 43.774 64.5893 43.6687 66.1026 43.0022C66.3899 43.1312 66.6858 43.2366 66.9901 43.314C67.8692 43.544 68.7226 43.6536 69.5378 43.6364C69.6059 43.6386 69.6783 43.6407 69.7592 43.6407C70.4487 43.6407 71.779 43.5397 73.2688 42.8947C74.3011 43.5569 75.5334 43.9052 76.8594 43.9052C77.3745 43.9052 78.1386 43.8471 78.8601 43.5762C79.3156 43.4043 79.7157 43.2129 80.4074 42.5164C80.8522 42.8367 81.3481 43.0904 81.8866 43.2688C82.7124 43.6192 83.6404 43.7977 84.6492 43.7977C86.1561 43.7977 87.5821 43.4064 88.4143 43.0388C88.6761 42.9227 88.9273 42.7765 89.1593 42.6002C89.6105 42.2992 89.9872 41.9037 90.2724 41.4479C91.3025 43.0194 93.1223 45.7562 94.8952 47.0762C96.4915 48.265 98.7561 49.0325 100.661 49.0325C102.608 49.0325 104.454 48.2607 106.144 46.7365C106.991 45.9755 107.555 44.7006 107.708 44.3265C107.738 44.2556 107.768 44.1803 107.8 44.1051C108.666 44.7587 109.728 45.122 110.841 45.122C112.227 45.122 113.544 44.5738 114.549 43.6149C115.23 45.1671 116.488 46.2313 118.124 46.6032C118.744 46.743 119.38 46.8139 120.014 46.8139C122.115 46.8139 124.197 46.0636 126.206 44.5824L127.464 43.6536C127.97 43.6407 128.651 43.5698 129.296 43.3247C129.752 43.1527 130.152 42.9614 130.843 42.2648C131.288 42.5852 131.784 42.8388 132.321 43.0173C133.146 43.3677 134.076 43.5461 135.083 43.5461C136.656 43.5461 137.978 43.1205 138.486 42.9313C138.646 42.8775 138.806 42.8216 138.963 42.7572C139.244 42.8818 139.536 42.985 139.834 43.0603C140.755 43.3011 141.647 43.4085 142.492 43.3785C142.598 43.3828 142.707 43.3849 142.818 43.3849C143.477 43.3849 144.748 43.2903 146.189 42.6948C147.202 43.3204 148.409 43.6472 149.707 43.6472C150.222 43.6472 150.986 43.5891 151.708 43.3183C152.157 43.1484 152.551 42.9614 153.221 42.2928C153.783 42.7077 154.426 43.0151 155.111 43.1914C155.262 43.2301 155.422 43.2688 155.59 43.3054C156.186 43.4623 156.827 43.5418 157.497 43.5418C158.374 43.5418 159.172 43.4021 159.696 43.2839C160.349 43.1828 160.992 43.0087 161.611 42.7657C162.907 43.5483 164.485 43.9439 166.309 43.9439C166.428 43.9439 166.541 43.9439 166.651 43.946H166.736C167.073 43.9482 167.383 43.9503 167.688 43.9396C170.757 43.8278 172.502 42.482 173.426 41.3748C175.373 39.0358 175.043 36.1356 174.999 35.8046L174.99 35.7444C174.792 34.4781 174.528 33.2613 174.275 32.0832C174.232 31.8897 174.192 31.6962 174.152 31.507C175.052 30.3977 176.18 28.7746 176.638 26.7473C177.382 23.6537 175.761 20.5686 172.945 19.7216C172.349 19.5367 171.725 19.4249 171.082 19.3884C171.302 18.6273 171.423 17.7029 171.183 16.6731L171.112 16.3743L170.993 16.0905C170.618 15.2091 169.982 14.4738 169.152 13.9643C168.484 13.5558 167.7 13.3 166.821 13.2033C166.649 13.1839 166.47 13.171 166.289 13.1646L166.208 13.1624H166.125C165.389 13.1689 163.842 13.3 163.54 13.3258L161.541 13.4999L160.451 15.8218C160.349 16.0389 159.513 17.8297 158.536 19.9215L158.44 20.1258C157.635 19.8936 156.752 19.8226 155.831 19.9215C155.956 19.0573 155.826 18.3371 155.66 17.8297C155.36 16.9053 154.626 15.6455 152.832 14.9038C151.942 14.5362 151.101 14.3427 150.361 14.1707C150.12 14.1148 149.892 14.0632 149.697 14.0116L146.623 13.1947L144.784 18.2382C144.231 19.756 142.735 20.6976 141.141 20.5256C137.141 20.0957 134.813 19.8785 134.219 19.8785C134.017 19.8785 133.813 19.8871 133.608 19.9043C133.612 19.8957 133.617 19.885 133.621 19.8764L135.079 16.5678L131.767 15.179C129.894 14.3943 128.455 13.8375 126.983 13.8375C124.143 13.8375 122.688 15.8992 122.141 16.6753C121.998 16.8752 121.86 17.073 121.721 17.2708C121.7 16.6946 121.585 16.0862 121.319 15.4692C120.94 14.5878 120.121 13.3968 118.365 12.7282C117.279 12.3154 115.287 11.9048 113.808 11.6317L111.314 11.1717L110.107 13.4225C109.777 14.0374 109.477 14.5942 109.172 15.1596C108.453 16.4947 107.708 17.8749 106.459 20.2332C106.433 20.2805 105.678 21.8048 104.688 23.817C103.07 22.1961 100.87 21.2867 98.4943 21.2867C96.715 21.2867 94.9995 21.7854 93.499 22.7335C92.1071 21.4243 89.9595 20.9513 88.3633 20.9513C87.9269 20.9513 87.5013 20.9857 87.0969 21.0545C86.1625 20.4461 85.026 20.1258 83.7915 20.1258C83.4425 20.1258 83.0892 20.1516 82.7316 20.201C83.0721 19.3475 83.3914 18.1565 83.0721 16.7914L83.0019 16.4925L82.8827 16.2109C82.5081 15.3273 81.8717 14.5921 81.0417 14.0826C80.3734 13.6719 79.588 13.4161 78.709 13.3194C78.5366 13.3 78.3578 13.2871 78.1769 13.2807L78.096 13.2785H78.013C77.2766 13.285 75.7292 13.4161 75.427 13.4419L73.4285 13.616L72.3387 15.9379C72.2174 16.198 71.1234 18.5349 69.9188 21.1147C69.3399 20.8266 68.6865 20.6417 67.9692 20.5643C67.7968 20.545 67.6159 20.5321 67.4371 20.5256L67.3562 20.5235H67.2732C66.8859 20.5256 64.4169 20.5278 62.2545 20.5299C61.6926 20.5299 61.1882 20.2612 60.8689 19.7925C60.5518 19.3239 60.4858 18.752 60.688 18.221L60.9498 17.5373C61.6224 15.9787 61.5117 14.3169 60.6455 12.9754C59.4387 11.1093 57.0038 10.1634 53.4047 10.1634C53.2409 10.1634 53.1493 10.1655 53.1493 10.1655L50.9316 10.23L49.7801 12.8765C48.6798 11.5092 47.0324 10.617 44.8636 10.2193C44.0718 10.0731 43.2183 10 42.3266 10C38.9957 10 35.0028 11.0405 31.6443 12.784C27.6344 14.8651 24.9527 17.8899 23.6735 21.7768C22.7264 24.6533 23.1606 27.6717 24.8654 30.0602C26.534 32.3992 29.1477 33.7386 32.0359 33.7386H32.087C32.1146 33.7407 32.1423 33.7407 32.17 33.7429C31.4761 35.3703 31.3399 35.7358 31.2739 35.9077C30.4822 38.0167 31.5527 40.1128 32.7084 41.2652C33.8514 42.4067 35.371 43.2624 36.4139 43.6859C37.6527 44.1868 38.8573 44.2083 39.8789 43.7805C40.2578 44.7393 40.8197 45.6035 41.5561 46.3603C43.8356 48.7079 46.6642 50 49.5205 50C51.9979 50.0064 54.1539 49.0003 55.1372 47.3815ZM39.8385 42.1036C39.4149 42.4304 38.8914 42.6045 38.3231 42.6045C37.8953 42.6045 37.4356 42.5056 36.9545 42.31C36.0457 41.9424 34.7219 41.1985 33.7364 40.2139C32.8936 39.3733 32.104 37.8813 32.6446 36.4388C32.7191 36.241 32.8915 35.7809 33.9961 33.2097L34.5644 31.8875L33.1682 32.1842C32.8553 32.2509 32.5105 32.2745 32.1317 32.2552L32.1082 32.253H32.0274C29.618 32.253 27.4407 31.1373 26.0509 29.1916C24.627 27.1966 24.2652 24.6641 25.0612 22.2476C26.2148 18.7434 28.6539 16.0045 32.3083 14.1083C35.4689 12.468 39.2106 11.4898 42.318 11.4898C43.1204 11.4898 43.8867 11.5565 44.5911 11.6855C46.811 12.0939 48.3499 13.085 49.165 14.6351C49.1884 14.6802 49.2118 14.7254 49.2353 14.7726L49.9334 16.2044L51.8957 11.6919L53.1834 11.6532C53.1898 11.6532 53.2664 11.6511 53.3984 11.6511C56.4696 11.6511 58.4894 12.3691 59.4068 13.788C60.0006 14.706 60.0665 15.8583 59.5898 16.9547L59.3088 17.6814C58.9321 18.6617 59.0598 19.7624 59.6473 20.631C60.2347 21.4974 61.2074 22.0155 62.246 22.0155C64.4106 22.0155 66.8837 22.0133 67.2732 22.009H67.3222L67.369 22.0112C67.5159 22.0176 67.6606 22.0284 67.8011 22.0434C68.4651 22.1165 69.0462 22.3035 69.5293 22.6002C69.6166 22.654 69.7038 22.7142 69.789 22.7765L70.5105 23.3183L70.8936 22.497C72.2281 19.6399 73.5264 16.8644 73.6605 16.5785L74.3884 15.0285L75.5462 14.9274C75.725 14.9124 77.3213 14.7726 78.013 14.7683H78.0619L78.1088 14.7705C78.2535 14.777 78.4004 14.7877 78.5408 14.8027C79.2049 14.8758 79.7859 15.0629 80.2669 15.3574C80.8331 15.7035 81.2651 16.2023 81.5184 16.7978L81.5865 16.9612L81.627 17.1332C81.9356 18.4553 81.4077 19.5711 81.0587 20.3085C81.0331 20.3622 80.9714 20.4955 80.9523 20.5364L80.9331 20.5729C80.9054 20.6267 80.8437 20.7557 80.7522 20.9448L79.9988 22.5164L81.6419 21.9768C82.3719 21.7381 83.0892 21.6156 83.7787 21.6156C84.8195 21.6156 85.7539 21.9015 86.4818 22.4411L86.7372 22.6303L87.2799 22.5314C87.6162 22.4712 87.978 22.439 88.3526 22.439C89.7616 22.439 91.6282 22.9077 92.6179 23.9546C92.6817 24.0213 92.7435 24.0922 92.8009 24.1675L93.2394 24.7264L93.8098 24.3094C95.1804 23.3054 96.798 22.7744 98.4837 22.7744C100.791 22.7744 102.9 23.7998 104.266 25.5907L104.986 26.5344L105.509 25.4681C106.772 22.8969 107.71 21.005 107.744 20.9362C108.991 18.5822 109.734 17.2041 110.454 15.8712C110.76 15.3037 111.06 14.7469 111.39 14.132L112.088 12.8292L113.531 13.0958C115.568 13.472 117.058 13.8267 117.835 14.1212C119.11 14.605 119.693 15.4434 119.957 16.0604C120.608 17.5782 119.997 19.0594 119.633 19.9452L119.61 20.0032C119.576 20.0849 119.546 20.1602 119.521 20.2268C119.472 20.3622 119.423 20.4977 119.374 20.6353L117.496 25.8379L120.666 21.3189C121.496 20.1344 122.37 18.8917 123.326 17.5395C123.835 16.8214 124.89 15.3252 126.97 15.3252C128.17 15.3252 129.477 15.8347 131.19 16.5527L133.108 17.3568L132.263 19.2723C132.118 19.599 131.925 20.0376 131.688 20.5643L131.061 21.9746L132.544 21.5877C133.112 21.4393 133.672 21.3641 134.206 21.3641C134.511 21.3641 135.796 21.4479 140.972 22.0026C143.239 22.2455 145.367 20.9083 146.153 18.7499L147.53 14.9747L149.309 15.4477C149.52 15.5036 149.763 15.5595 150.02 15.6197C150.705 15.7788 151.484 15.9572 152.261 16.2797C153.534 16.8064 154.045 17.6663 154.249 18.2941C154.483 19.0164 154.441 19.7861 154.121 20.5837L153.577 21.9445L154.986 21.5833C156.284 21.2523 157.518 21.306 158.525 21.736L159.176 22.0133L159.857 20.5579C160.834 18.4682 161.669 16.6817 161.773 16.4624L162.501 14.9102L163.659 14.8092C163.837 14.7941 165.434 14.6544 166.125 14.6501H166.174L166.221 14.6523C166.368 14.6587 166.513 14.6695 166.653 14.6845C167.315 14.7576 167.896 14.9425 168.379 15.2392C168.946 15.5874 169.38 16.0841 169.631 16.6796L169.701 16.8429L169.742 17.0171C170.001 18.135 169.663 19.111 169.339 19.8355L168.829 20.9728L170.063 20.8825C170.238 20.8696 170.416 20.8632 170.593 20.8632C171.261 20.8632 171.906 20.9577 172.508 21.1448L172.515 21.1469C174.579 21.7682 175.761 24.0729 175.197 26.4076C174.865 27.8738 174.122 29.2389 172.787 30.8298L172.553 31.1093L172.63 31.4662C172.696 31.7736 172.762 32.0832 172.832 32.4014C173.083 33.558 173.341 34.7533 173.53 35.9701L173.536 36.0152C173.571 36.2711 173.832 38.5693 172.294 40.4181C171.561 41.2974 170.161 42.3637 167.63 42.454C167.349 42.4648 167.081 42.4626 166.73 42.4583H166.66C166.545 42.4562 166.428 42.4562 166.304 42.4562C164.616 42.4562 163.201 42.0713 162.092 41.3146L161.756 41.0846L161.383 41.2501C160.762 41.5253 160.111 41.7166 159.447 41.8155L159.391 41.8263C158.942 41.9295 158.248 42.0541 157.495 42.0541C156.944 42.0541 156.422 41.9897 155.945 41.8607L155.907 41.8521C155.756 41.8198 155.613 41.7876 155.475 41.751C154.794 41.5769 154.17 41.2265 153.675 40.7406L153.128 40.2031L152.617 40.775C151.793 41.6973 151.527 41.7983 151.191 41.9252C150.676 42.1186 150.099 42.1595 149.705 42.1595C148.56 42.1595 147.517 41.8435 146.687 41.2458L146.338 40.9943L145.951 41.177C144.614 41.8026 143.414 41.8972 142.818 41.8972C142.72 41.8972 142.624 41.8951 142.53 41.8908L142.498 41.8886L142.467 41.8908C141.756 41.9187 140.996 41.8263 140.2 41.6199C139.895 41.5403 139.602 41.4285 139.325 41.2824L139.014 41.119L138.693 41.2609C138.472 41.3576 138.244 41.4457 138.018 41.521L137.993 41.5296C137.567 41.6887 136.435 42.0563 135.085 42.0563C134.266 42.0563 133.521 41.9144 132.872 41.6328L132.81 41.6091C132.227 41.4178 131.716 41.1147 131.288 40.7062L130.739 40.1816L130.235 40.7492C129.392 41.6973 129.124 41.7983 128.783 41.9273C128.27 42.1208 127.698 42.1616 127.291 42.1616C127.289 42.1616 127.287 42.1616 127.285 42.1616L126.991 42.1595L125.344 43.3742C123.592 44.6662 121.802 45.3198 120.021 45.3198C119.495 45.3198 118.967 45.2617 118.452 45.1435C117.009 44.8167 115.973 43.7138 115.611 42.1165C115.596 42.0541 115.583 41.994 115.57 41.9316L115.215 40.173L114.168 41.7747C113.41 42.9356 112.167 43.63 110.845 43.63C109.762 43.63 108.787 43.1742 108.098 42.3487L107.323 41.4199L106.857 42.54C106.669 42.9915 106.501 43.4 106.354 43.7547C106.301 43.8858 105.814 45.0446 105.171 45.6229C103.758 46.8956 102.242 47.5427 100.667 47.5427C99.3478 47.5427 97.3216 47.0267 95.7743 45.8766C94.1546 44.6705 92.3689 41.9445 91.409 40.4805C90.6598 39.3367 90.4831 39.068 89.9425 39.182L89.4445 39.298L89.3593 39.7947C89.2487 40.4375 88.8762 41.0115 88.3377 41.3662L88.2973 41.3963C88.1504 41.5081 87.9929 41.6005 87.829 41.6736C87.165 41.966 85.9348 42.3078 84.6535 42.3078C83.8341 42.3078 83.0892 42.1659 82.44 41.8843L82.3761 41.8607C81.793 41.6693 81.2822 41.3662 80.8544 40.9577L80.3052 40.4332L79.8008 41.0007C78.958 41.9488 78.6898 42.0499 78.3493 42.1788C77.8363 42.3745 77.2595 42.4153 76.8658 42.4153C75.6973 42.4153 74.6331 42.0799 73.786 41.4436L73.4263 41.1749L73.0241 41.3727C71.6406 42.052 70.387 42.153 69.7634 42.153C69.6932 42.153 69.6272 42.1509 69.5697 42.1487H69.5484H69.5272C68.8418 42.1702 68.1203 42.0713 67.3626 41.8736C67.0497 41.7919 66.7454 41.6758 66.4623 41.5231L66.1324 41.3469L65.7961 41.5102C64.4148 42.1853 63.1676 42.2863 62.5482 42.2863C62.4461 42.2863 62.3482 42.2842 62.2524 42.2799L62.2205 42.2777L62.1885 42.2799C61.484 42.3057 60.7306 42.2132 59.941 42.0069C59.1662 41.8069 58.4809 41.392 57.9595 40.8029L57.4444 40.2246L56.8953 40.7707C56.7995 40.8653 56.7037 40.9599 56.6079 41.0523C56.1333 41.5102 55.2905 42.0907 53.9837 42.2455L52.5364 42.4175L53.5324 43.4924C53.7197 43.6945 53.8815 43.9267 54.0071 44.1803C54.3902 44.9435 54.3455 45.8508 53.8858 46.6054C53.1664 47.7878 51.4913 48.5209 49.5141 48.5209C47.0558 48.5209 44.6018 47.3858 42.6011 45.3262C41.8115 44.5114 41.2879 43.5891 41.0006 42.5035L40.7175 41.4285L39.8385 42.1036Z" fill="#E0EEEE"/>
</svg>
