<svg width="200" height="60" viewBox="0 0 200 60" fill="none" xmlns="http://www.w3.org/2000/svg">
<path d="M29.201 41.4486L26.6914 38.6524C26.4283 38.3609 26.4534 37.9102 26.745 37.6489L35.2675 29.9975L26.7483 22.3495C26.4568 22.0865 26.4317 21.6375 26.6947 21.3459L29.2044 18.5498C29.4674 18.2583 29.9164 18.2331 30.2079 18.4962L40.8733 28.0708C41.4211 28.5617 41.7327 29.262 41.7327 29.9975C41.7327 30.733 41.4194 31.4333 40.8733 31.9242L30.2046 41.5039C29.9131 41.7669 29.4624 41.7418 29.201 41.4503" fill="#E0EEEE"/>
<path d="M56.5138 16.7807H48.132C47.7433 16.7807 47.4283 17.0957 47.4283 17.4843V21.4114C47.4283 21.8001 47.7433 22.115 48.132 22.115H51.5899V35.2264C51.5899 36.7141 50.3836 37.9187 48.8976 37.9187H45.4363C45.0476 37.9187 44.7327 38.2337 44.7327 38.6223V42.5192C44.7327 42.9079 45.0476 43.2229 45.4363 43.2229H49.4957C53.7612 43.2229 57.2174 39.7649 57.2174 35.5012V17.481C57.2174 17.0923 56.9025 16.7773 56.5138 16.7773" fill="#E0EEEE"/>
<path d="M70.65 19.5315C63.4526 19.5315 60.2175 24.9781 60.2175 30.0444C60.2175 35.1107 63.4208 40.4685 70.65 40.4685C77.8792 40.4685 81.0824 35.1123 81.0824 30.0444C81.0824 24.9764 77.8507 19.5315 70.65 19.5315ZM70.65 35.3083C67.321 35.3083 65.8451 32.5926 65.8451 30.0226C65.8451 27.4526 67.3345 24.6899 70.65 24.6899C73.9655 24.6899 75.4549 27.4509 75.4549 30.0226C75.4549 32.5943 73.9806 35.3083 70.65 35.3083Z" fill="#E0EEEE"/>
<path d="M94.5149 19.5315C87.3175 19.5315 84.0824 24.9781 84.0824 30.0444C84.0824 35.1107 87.2857 40.4685 94.5149 40.4685C101.744 40.4685 104.947 35.1123 104.947 30.0444C104.947 24.9764 101.716 19.5315 94.5149 19.5315ZM94.5149 35.3083C91.1859 35.3083 89.7099 32.5926 89.7099 30.0226C89.7099 27.4526 91.1993 24.6899 94.5149 24.6899C97.8304 24.6899 99.3198 27.4509 99.3198 30.0226C99.3198 32.5943 97.8455 35.3083 94.5149 35.3083Z" fill="#E0EEEE"/>
<path d="M119.465 19.7854C116.723 19.7854 114.665 21.1743 113.427 22.7055V21.0134C113.427 20.6248 113.112 20.3098 112.724 20.3098H108.651C108.262 20.3098 107.947 20.6248 107.947 21.0134V39.5111C107.947 39.8998 108.262 40.2147 108.651 40.2147H112.871C113.26 40.2147 113.575 39.8998 113.575 39.5111V30.9533C113.575 27.5507 115.135 24.9187 118.16 24.9187C120.561 24.9187 121.608 26.9308 121.608 30.3485V39.4943C121.608 39.883 121.923 40.198 122.312 40.198H126.53C126.919 40.198 127.234 39.883 127.234 39.4943V29.0786C127.234 23.0021 124.357 19.7871 119.464 19.7871" fill="#E0EEEE"/>
<path d="M141.397 32.4854L149.204 23.936C149.32 23.8037 149.347 23.6227 149.274 23.4636C149.202 23.3044 149.048 23.2056 148.874 23.2056H142.985C142.729 23.2056 142.486 23.3161 142.322 23.5071L135.86 30.5554V17.6082C135.86 17.2195 135.545 16.9045 135.156 16.9045H130.938C130.549 16.9045 130.234 17.2195 130.234 17.6082V42.3901C130.234 42.7788 130.549 43.0937 130.938 43.0937H135.156C135.545 43.0937 135.86 42.7788 135.86 42.3901V34.1289L142.519 42.7469C142.685 42.9647 142.947 43.0954 143.221 43.0954H149.186C149.357 43.0954 149.509 42.9999 149.583 42.8458C149.656 42.6917 149.635 42.5124 149.526 42.3767L141.397 32.4871V32.4854Z" fill="#E0EEEE"/>
<path d="M163.058 19.5315C155.861 19.5315 152.626 24.9781 152.626 30.0444C152.626 35.1107 155.829 40.4685 163.058 40.4685C170.288 40.4685 173.491 35.1123 173.491 30.0444C173.491 24.9764 170.259 19.5315 163.058 19.5315ZM163.058 35.3083C159.73 35.3083 158.254 32.5926 158.254 30.0226C158.254 27.4526 159.743 24.6899 163.058 24.6899C166.374 24.6899 167.863 27.4509 167.863 30.0226C167.863 32.5943 166.389 35.3083 163.058 35.3083Z" fill="#E0EEEE"/>
</svg>
