<svg width="200" height="60" viewBox="0 0 200 60" fill="none" xmlns="http://www.w3.org/2000/svg">
<path d="M2.6698 20.7222C2.54155 21.0013 2.01307 22.0435 3.04532 22.6996C4.48698 23.6155 8.71467 21.5691 15.1484 25.3117C18.2615 27.1227 17.6307 29.6753 15.9409 29.0646C12.6494 27.8754 9.03503 27.6269 7.18273 29.9825C4.15322 33.837 8.6574 40.8722 14.7277 44.0871C14.7737 44.1114 3.42799 40.8945 0.747296 32.2391C-1.44422 25.1622 2.67565 20.7094 2.6698 20.7222Z" fill="#E0EEEE"/>
<path d="M4.43754 20.5643C5.10928 21.3633 6.75643 21.0702 8.11579 19.9103C9.47598 18.7496 10.0328 17.1616 9.36067 16.3626C8.68893 15.5636 7.04177 15.8564 5.68242 17.0162C4.32306 18.1765 3.76538 19.7645 4.43754 20.5643Z" fill="#E0EEEE"/>
<path d="M33.7377 20.7227C33.8659 21.0018 34.3944 22.044 33.3621 22.7001C31.9205 23.6159 27.6928 21.5696 21.2591 25.3122C18.146 27.1232 18.7768 29.6758 20.4666 29.0651C23.758 27.8759 27.3724 27.6274 29.2247 29.983C32.2543 33.8375 27.7501 40.8726 21.6798 44.0876C21.6338 44.1119 32.9795 40.8949 35.6602 32.2395C37.8517 25.1627 33.7318 20.7099 33.7377 20.7227Z" fill="#E0EEEE"/>
<path d="M31.9699 20.5643C31.2982 21.3633 29.651 21.0702 28.2917 19.9103C26.9315 18.7496 26.3746 17.1616 27.0468 16.3626C27.7185 15.5636 29.3657 15.8564 30.7251 17.0162C32.0844 18.1765 32.6421 19.7645 31.9699 20.5643Z" fill="#E0EEEE"/>
<path d="M42.2129 36.1912L44.8265 22.2614L45.0785 21.071H49.9846L47.0961 36.1912H42.2129ZM56.4037 34.8386C55.991 36.0455 54.99 36.6491 53.4006 36.6494C52.2231 36.6494 51.2297 35.9468 50.4203 34.5417C49.5107 32.8309 49.0085 30.9333 48.953 28.9967C50.1314 26.6784 51.5613 24.4965 53.217 22.4905C53.6272 21.966 54.1436 21.5339 54.7322 21.2222C55.3208 20.9105 55.9683 20.7263 56.6329 20.6815C57.2127 20.6665 57.7811 20.8438 58.2496 21.1856C58.6852 21.4975 58.9846 21.9646 59.086 22.4905C58.6861 22.6435 58.3022 22.8354 57.9397 23.0632C57.1363 23.7165 56.4128 24.4624 55.7847 25.2854L53.6986 27.7834C53.3629 28.1802 53.1259 28.4701 52.9877 28.6531C53.2377 29.9942 53.7022 31.2863 54.3632 32.4799C54.8035 33.445 55.5117 34.2636 56.4037 34.8386Z" fill="#E0EEEE"/>
<path d="M68.0502 36.6491C66.2006 36.6491 65.2761 35.931 65.2764 34.4947C65.3088 33.9561 65.3776 33.4203 65.4826 32.8911L65.8954 30.7843C66.1832 29.5853 66.3898 28.3684 66.5142 27.1417C66.5142 26.2556 66.2545 25.8127 65.7349 25.813C64.8637 25.813 64.1988 26.9505 63.7403 29.2256L62.3877 36.1909L57.7798 36.6491L60.1641 24.4842L63.9237 24.049L63.557 26.2941C64.275 24.7967 65.7345 24.0484 67.9356 24.049C68.7549 23.9681 69.5734 24.2105 70.2163 24.7243C70.7224 25.3357 70.9658 26.1225 70.893 26.9126C70.7984 28.5129 70.5527 30.1007 70.1594 31.6549C69.9805 32.3259 69.8654 33.0122 69.8155 33.7048C69.8064 33.865 69.829 34.0255 69.8822 34.177C69.9354 34.3284 70.018 34.4679 70.1254 34.5873C70.3277 34.7991 70.601 34.9292 70.893 34.9529C70.8129 35.2163 70.6813 35.4612 70.5062 35.6737C70.331 35.8861 70.1157 36.0619 69.8724 36.1909C69.3169 36.5037 68.6877 36.6619 68.0502 36.6491Z" fill="#E0EEEE"/>
<path d="M77.7238 36.6491C74.3611 36.6491 72.6799 35.0683 72.6802 31.9069C72.6009 29.8939 73.2613 27.9216 74.5371 26.3619C75.2012 25.5938 76.0311 24.9865 76.9644 24.5859C77.8976 24.1852 78.9099 24.0016 79.9245 24.049C81.2697 23.95 82.603 24.3588 83.6613 25.1944C84.1119 25.6627 84.4576 26.2217 84.675 26.834C84.8924 27.4463 84.9766 28.0979 84.9221 28.7454C85.0377 30.8592 84.3314 32.9359 82.9507 34.5414C82.2838 35.2496 81.471 35.8047 80.5686 36.1686C79.6662 36.5324 78.6957 36.6964 77.7238 36.6491ZM78.3197 26.6835C78.1085 27.1828 77.9433 27.7002 77.8263 28.2294C77.6814 28.848 77.5174 29.6462 77.334 30.6239C77.1416 31.7052 77.0495 32.8018 77.0588 33.9C77.0469 34.2389 77.1134 34.576 77.2532 34.8851C77.3211 35.0145 77.4262 35.1208 77.555 35.1902C77.6837 35.2596 77.8303 35.289 77.9759 35.2745C78.2823 35.288 78.5846 35.1994 78.8351 35.0225C79.0997 34.7949 79.3012 34.503 79.4201 34.1749C79.8013 33.2029 80.0781 32.1932 80.2455 31.1627C80.4384 30.2365 80.5725 29.299 80.6472 28.3559C80.6701 27.7905 80.6813 27.2978 80.681 26.8778C80.6926 26.5215 80.6302 26.1668 80.4976 25.8359C80.4396 25.7023 80.3408 25.5904 80.2153 25.5164C80.0898 25.4423 79.944 25.4098 79.7989 25.4235C79.4811 25.4133 79.1722 25.5285 78.9388 25.7442C78.6722 26.0133 78.4618 26.3326 78.3197 26.6835Z" fill="#E0EEEE"/>
<path d="M100.248 35.5492C99.4118 36.2335 98.3713 36.6203 97.2907 36.6489C96.6008 36.7025 95.9077 36.6007 95.2624 36.351V31.311C94.65 33.2987 93.3598 35.0091 91.6163 36.1449C91.1225 36.4598 90.5523 36.634 89.9668 36.6489C89.2208 36.6916 88.4735 36.5905 87.7658 36.351C87.6585 32.8542 87.559 30.6207 87.4669 29.6505C87.3752 28.6801 87.2916 27.8972 87.2157 27.3018C87.1739 26.3719 86.818 25.4836 86.2061 24.7818C86.8913 24.2844 87.7215 24.0267 88.5682 24.0487C90.3408 24.0487 91.3493 25.1484 91.5935 27.3477C91.6558 27.88 91.6868 28.4154 91.6862 28.9513C91.6862 29.7761 91.5944 31.6241 91.411 34.4954C91.8875 34.2203 92.2798 33.8205 92.5454 33.3389C92.972 32.6624 93.3292 31.9446 93.6117 31.1964C94.2888 29.4962 94.6538 27.6881 94.6893 25.8586C94.6877 25.5881 94.6529 25.3188 94.5856 25.0567C94.5546 24.8666 94.4799 24.6862 94.3673 24.5298C94.9874 24.188 95.6892 24.0217 96.3968 24.0487C96.7448 24.0232 97.0935 24.0865 97.4103 24.2327C97.7271 24.3789 98.0015 24.6032 98.2078 24.8845C98.6497 25.6007 98.9057 26.4159 98.9524 27.256C99.0753 28.5546 99.1369 29.5931 99.1369 30.3717C99.1369 31.4558 99.0833 32.7998 98.9763 34.4038C99.9939 33.4504 100.718 32.2264 101.062 30.8757C101.626 29.3948 101.944 27.8315 102.003 26.248C102.015 25.7935 101.968 25.3392 101.865 24.8964C102.125 24.6124 102.445 24.3893 102.802 24.2428C103.159 24.0963 103.543 24.03 103.928 24.0487C104.426 24.0368 104.913 24.1899 105.315 24.484C105.507 24.628 105.661 24.8173 105.763 25.0349C105.865 25.2526 105.912 25.4921 105.9 25.7321C105.896 26.3019 105.815 26.8684 105.658 27.4164C105.49 28.0187 105.28 28.6082 105.028 29.1804C103.955 31.6476 102.318 33.8289 100.248 35.5492Z" fill="#E0EEEE"/>
<path d="M116.216 36.6491C114.366 36.6491 113.442 35.931 113.442 34.4947C113.475 33.9561 113.543 33.4203 113.648 32.8911L114.061 30.7843C114.349 29.5853 114.556 28.3684 114.68 27.1417C114.68 26.2556 114.42 25.8127 113.901 25.813C113.029 25.813 112.365 26.9505 111.906 29.2256L110.553 36.1909L105.946 36.6491L108.33 24.4842L112.089 24.049L111.723 26.2941C112.441 24.7967 113.9 24.0484 116.101 24.049C116.921 23.9681 117.739 24.2105 118.382 24.7243C118.888 25.3357 119.132 26.1225 119.059 26.9126C118.964 28.5129 118.719 30.1007 118.325 31.6549C118.146 32.3259 118.031 33.0122 117.981 33.7048C117.972 33.865 117.995 34.0255 118.048 34.177C118.101 34.3284 118.184 34.4679 118.291 34.5873C118.493 34.7991 118.767 34.9292 119.059 34.9529C118.979 35.2163 118.847 35.4612 118.672 35.6737C118.497 35.8861 118.281 36.0619 118.038 36.1909C117.483 36.5037 116.853 36.6619 116.216 36.6491Z" fill="#E0EEEE"/>
<path d="M129.832 25.6071C130.049 25.1971 130.167 24.742 130.176 24.2783C130.183 23.9446 130.161 23.611 130.108 23.2813C130.067 23.06 129.989 22.8469 129.879 22.6508C129.78 22.4647 129.631 22.3101 129.449 22.2049C129.266 22.0997 129.058 22.0481 128.847 22.0561C128.275 22.0586 127.725 22.2799 127.31 22.6747C127.073 22.8775 126.883 23.1309 126.756 23.4163C126.629 23.7017 126.568 24.0119 126.577 24.3242C126.574 24.7453 126.734 25.1511 127.023 25.4577C127.362 25.8195 127.744 26.1388 128.159 26.4089C128.618 26.714 129.107 27.0195 129.626 27.3253C130.138 27.6253 130.629 27.9622 131.093 28.3333C131.571 28.6668 131.963 29.1081 132.238 29.6214C132.513 30.1347 132.663 30.7056 132.676 31.2877C132.679 32.0377 132.468 32.7731 132.068 33.4073C131.648 34.0715 131.098 34.6444 130.452 35.0916C128.956 36.1388 127.166 36.6842 125.34 36.6494C124.1 36.7272 122.862 36.4614 121.763 35.8815C121.406 35.6968 121.105 35.4199 120.891 35.0796C120.677 34.7392 120.559 34.3478 120.547 33.9461C120.472 33.3895 120.594 32.8242 120.891 32.3474C121.188 31.8707 121.642 31.5125 122.175 31.3344C122.549 31.2169 122.941 31.1624 123.333 31.1731C123.848 31.1833 124.356 31.2841 124.835 31.471C124.602 32.0386 124.477 32.6451 124.467 33.2588C124.467 34.4813 124.903 35.0922 125.774 35.0916C126.35 35.0876 126.903 34.8666 127.322 34.473C127.528 34.3175 127.697 34.119 127.817 33.8913C127.938 33.6637 128.007 33.4125 128.021 33.1553C128.03 32.7125 127.87 32.2828 127.574 31.953C127.252 31.5968 126.876 31.2915 126.462 31.0476C126.019 30.7809 125.542 30.5173 125.03 30.2568C124.519 29.9979 124.038 29.6832 123.596 29.3184C123.097 28.9329 122.696 28.4354 122.426 27.8663C122.155 27.2972 122.022 26.6724 122.037 26.0424C122.023 25.2216 122.246 24.4141 122.679 23.7166C123.109 23.0349 123.68 22.4528 124.353 22.0094C125.706 21.0855 127.311 20.5981 128.95 20.6128C130.248 20.5265 131.546 20.7875 132.71 21.3688C133.08 21.565 133.391 21.8585 133.607 22.2178C133.823 22.5771 133.937 22.9885 133.937 23.4078C133.944 23.7601 133.869 24.1092 133.718 24.4275C133.566 24.7457 133.343 25.0241 133.064 25.2405C132.592 25.6263 132.001 25.8368 131.391 25.8362C130.862 25.8485 130.335 25.771 129.832 25.6071Z" fill="#E0EEEE"/>
<path d="M139.919 34.9314C139.673 35.5001 139.25 35.9744 138.713 36.2839C138.177 36.5935 137.554 36.7217 136.939 36.6497C136.582 36.6617 136.228 36.5962 135.899 36.4578C135.571 36.3193 135.277 36.1112 135.037 35.8478C134.663 35.4663 134.442 34.9608 134.417 34.4274C134.506 32.5772 134.791 30.7417 135.266 28.9512L136.114 24.5077L140.768 24.0495L139.37 31.2879C139.17 32.038 139.039 32.8049 138.98 33.5789C138.98 34.4494 139.293 34.9003 139.919 34.9314ZM136.527 21.3224C136.517 21.0478 136.582 20.7757 136.712 20.534C136.843 20.2924 137.036 20.0901 137.271 19.9478C137.819 19.6134 138.453 19.4465 139.094 19.4676C139.708 19.4371 140.315 19.6056 140.825 19.9478C141.039 20.1052 141.211 20.3131 141.325 20.5529C141.438 20.7928 141.491 21.0572 141.478 21.3224C141.49 21.5918 141.43 21.8596 141.303 22.0977C141.176 22.3357 140.987 22.5351 140.756 22.6749C140.212 22.9968 139.587 23.1559 138.956 23.1331C138.339 23.1603 137.728 23.0006 137.203 22.6749C136.982 22.5274 136.804 22.3252 136.686 22.088C136.567 21.8509 136.512 21.587 136.527 21.3224Z" fill="#E0EEEE"/>
<path d="M151.566 36.6491C149.716 36.6491 148.792 35.931 148.793 34.4947C148.824 33.9561 148.893 33.4203 148.998 32.8911L149.411 30.7843C149.699 29.5854 149.906 28.3685 150.03 27.1417C150.03 26.2556 149.77 25.8127 149.251 25.813C148.379 25.813 147.714 26.9505 147.256 29.2256L145.903 36.1909L141.295 36.6491L143.679 24.4842L147.439 24.049L147.073 26.2941C147.791 24.7967 149.25 24.0484 151.451 24.049C152.27 23.9681 153.089 24.2105 153.732 24.7243C154.238 25.3356 154.482 26.1224 154.409 26.9126C154.314 28.513 154.068 30.1007 153.675 31.6549C153.496 32.3259 153.381 33.0122 153.331 33.7048C153.322 33.865 153.344 34.0255 153.398 34.177C153.451 34.3284 153.533 34.4679 153.641 34.5873C153.843 34.7993 154.117 34.9294 154.409 34.9529C154.329 35.2163 154.197 35.4612 154.022 35.6737C153.847 35.8861 153.631 36.0619 153.388 36.1909C152.832 36.5037 152.203 36.6619 151.566 36.6491Z" fill="#E0EEEE"/>
<path d="M157.87 26.6142C158.394 25.8778 159.061 25.2544 159.831 24.7815C160.618 24.293 161.529 24.039 162.456 24.0493C163.195 23.997 163.935 24.1559 164.588 24.5075L169.081 24.0493L167.522 32.8456C166.986 35.8394 166.154 37.9241 165.023 39.0998C164.381 39.691 163.625 40.1445 162.801 40.4323C161.977 40.7201 161.102 40.8361 160.232 40.7731C158.928 40.837 157.628 40.5769 156.449 40.0162C156.051 39.8466 155.71 39.5665 155.466 39.2092C155.222 38.852 155.086 38.4324 155.074 38.0002C155.063 37.7147 155.122 37.4309 155.245 37.1735C155.369 36.916 155.554 36.6927 155.784 36.523C156.311 36.1471 156.948 35.9575 157.595 35.9841C158.19 35.972 158.777 36.1228 159.292 36.4204C159.55 36.5447 159.771 36.7338 159.934 36.9693C159.76 37.1192 159.623 37.3062 159.532 37.5164C159.441 37.7265 159.398 37.9545 159.407 38.1835C159.407 38.8405 159.712 39.1692 160.324 39.1695C161.347 39.1695 162.149 37.9626 162.731 35.5489C162.898 34.8928 163.051 34.236 163.189 33.5787C162.76 34.0302 162.233 34.3783 161.649 34.5966C161.065 34.8149 160.44 34.8977 159.819 34.8387C158.898 34.8908 157.988 34.6148 157.251 34.0598C156.91 33.7223 156.648 33.3126 156.485 32.8609C156.323 32.4091 156.263 31.9267 156.312 31.449C156.321 30.6209 156.453 29.7987 156.701 29.0087C156.958 28.1522 157.353 27.3435 157.87 26.6142ZM160.851 31.5168C160.851 32.556 161.118 33.0753 161.653 33.0747C161.865 33.0589 162.071 32.9976 162.257 32.895C162.443 32.7923 162.605 32.6508 162.731 32.48C163.017 32.136 163.214 31.7263 163.304 31.2877L164.473 25.4C164.394 25.3849 164.318 25.3618 164.244 25.3313C164.075 25.2677 163.896 25.2367 163.716 25.2397C162.784 25.2397 162.043 26.0033 161.493 27.5306C161.05 28.8123 160.832 30.161 160.851 31.5168Z" fill="#E0EEEE"/>
<path d="M175.454 34.9308C175.208 35.4993 174.785 35.9734 174.248 36.2829C173.712 36.5924 173.089 36.7208 172.474 36.649C172.121 36.6595 171.77 36.5932 171.445 36.4548C171.121 36.3163 170.83 36.109 170.594 35.8471C170.222 35.4662 170.01 34.9585 169.999 34.4268C170.095 32.5806 170.363 30.7475 170.801 28.9514L172.474 20.1542L177.128 19.696L174.904 31.2873C174.705 32.0375 174.575 32.8043 174.515 33.5782C174.515 34.4497 174.828 34.9005 175.454 34.9308Z" fill="#E0EEEE"/>
<path d="M186.687 32.3189C186.882 32.4606 187.037 32.6498 187.137 32.8685C187.238 33.0873 187.28 33.3281 187.261 33.5679C187.282 34.0735 187.128 34.5708 186.825 34.9764C186.513 35.3601 186.122 35.6725 185.679 35.8928C184.738 36.3873 183.692 36.6467 182.63 36.6488C181.779 36.6788 180.93 36.5626 180.119 36.3051C179.535 36.0988 179.006 35.7618 178.572 35.32C178.148 34.8587 177.822 34.3165 177.613 33.7259C177.404 33.1354 177.317 32.5087 177.357 31.8836C177.259 29.8576 177.931 27.8693 179.237 26.3166C179.934 25.5554 180.79 24.9574 181.745 24.5653C182.7 24.1733 183.73 23.9968 184.762 24.0486C185.921 23.9605 187.074 24.2851 188.017 24.965C188.279 25.1864 188.487 25.4643 188.626 25.7778C188.765 26.0913 188.831 26.4322 188.819 26.7748C188.819 29.4626 186.496 30.8066 181.849 30.8069C181.791 31.1706 181.761 31.5382 181.758 31.9065C181.728 32.1684 181.755 32.4337 181.836 32.6845C181.916 32.9354 182.05 33.166 182.228 33.3608C182.612 33.6513 183.088 33.7937 183.569 33.7622C184.19 33.7534 184.803 33.6168 185.369 33.3608C185.906 33.1594 186.367 32.7951 186.687 32.3189ZM182.011 29.8218C182.486 29.8464 182.961 29.7691 183.404 29.5953C183.846 29.4214 184.247 29.155 184.578 28.8138C184.894 28.4814 185.139 28.0892 185.301 27.6602C185.462 27.2313 185.536 26.7745 185.517 26.3166C185.534 26.0321 185.467 25.7489 185.323 25.5029C185.259 25.4088 185.171 25.333 185.069 25.2829C184.966 25.2328 184.853 25.2101 184.739 25.217C184.49 25.2144 184.244 25.2653 184.017 25.3664C183.736 25.5188 183.502 25.7443 183.339 26.0188C182.629 27.1766 182.176 28.4736 182.011 29.8218Z" fill="#E0EEEE"/>
<path d="M196.453 28.1492C196.655 27.6461 196.764 27.1105 196.775 26.5685C196.775 25.6677 196.408 25.2171 195.674 25.2168C195.473 25.2223 195.276 25.2711 195.096 25.36C194.916 25.4489 194.757 25.5758 194.631 25.7318C194.331 26.0427 194.162 26.4573 194.161 26.8892C194.162 27.0444 194.196 27.1976 194.259 27.3394C194.322 27.4812 194.413 27.6087 194.527 27.714C195.11 28.2165 195.739 28.6617 196.407 29.0436C197.113 29.4308 197.745 29.9381 198.276 30.5428C198.624 31.0042 198.806 31.5691 198.793 32.1465C198.792 32.7663 198.639 33.3764 198.345 33.9224C198.043 34.4919 197.616 34.9854 197.095 35.3657C195.786 36.2705 194.215 36.7212 192.625 36.6486C191.687 36.6648 190.767 36.3929 189.988 35.8697C189.673 35.7142 189.403 35.4812 189.202 35.1927C189.002 34.9043 188.878 34.5696 188.842 34.2202C188.832 33.9488 188.886 33.6787 188.999 33.432C189.113 33.1852 189.283 32.9686 189.496 32.7998C189.956 32.4403 190.529 32.2539 191.113 32.2729C191.656 32.2492 192.195 32.376 192.671 32.6395C192.496 33.038 192.395 33.4649 192.374 33.8995C192.374 34.9075 192.801 35.4115 193.656 35.4115C193.995 35.4223 194.325 35.2988 194.573 35.0679C194.698 34.9464 194.795 34.7998 194.859 34.6378C194.922 34.4759 194.95 34.3023 194.941 34.1286C194.941 33.3497 194.284 32.5478 192.969 31.7231C192.264 31.3017 191.604 30.8105 190.998 30.2569C190.597 29.8009 190.377 29.2144 190.378 28.6074C190.381 27.9857 190.53 27.3734 190.815 26.8205C191.108 26.2363 191.531 25.7269 192.052 25.3314C193.396 24.4083 195.008 23.9571 196.637 24.0485C197.469 24.0063 198.296 24.2137 199.01 24.6441C199.284 24.8115 199.509 25.0476 199.664 25.3288C199.819 25.6101 199.897 25.9268 199.892 26.2477C199.908 26.5391 199.862 26.8306 199.758 27.103C199.653 27.3754 199.492 27.6227 199.285 27.8285C198.812 28.2345 198.2 28.44 197.578 28.4012C197.186 28.4291 196.795 28.3415 196.453 28.1492Z" fill="#E0EEEE"/>
</svg>
