<svg width="200" height="60" viewBox="0 0 200 60" fill="none" xmlns="http://www.w3.org/2000/svg">
<path d="M56.2179 60L46.6574 54.7992L46.2822 54.5948L60.1792 11.6875L68.2574 10.5514L72.8437 13.0467L73.0853 12.6587C73.1271 12.5843 73.1725 12.5065 73.2247 12.4252L73.2642 12.3648C73.2921 12.3206 73.3339 12.2579 73.3816 12.1893L73.4048 12.1557C73.4489 12.0929 73.4977 12.0244 73.5512 11.9524C73.6685 11.7967 73.7788 11.6585 73.8915 11.5191L74.0437 11.339C74.096 11.2763 74.1494 11.2124 74.2052 11.1485L74.3004 11.0416C74.556 10.7535 74.8325 10.4724 75.1229 10.211L75.2042 10.1402C75.2844 10.0705 75.3726 9.99845 75.4667 9.92991C75.49 9.91132 75.526 9.88345 75.5597 9.86021L75.7119 9.76262C75.7665 9.72894 75.8118 9.70222 75.8559 9.67782C75.9012 9.65111 75.9581 9.61975 76.0104 9.59419L76.2625 9.48847C76.4553 9.41761 76.6261 9.37464 76.8038 9.35024L82.1498 8.59863C82.4019 8.56378 82.6574 8.56611 82.9107 8.60561L83.0361 8.62304L83.1697 8.65672C83.3486 8.70318 83.5171 8.76593 83.6774 8.84492L83.7413 8.87744L86.7465 10.5119L87.6154 7.83077L103.123 5.65149C103.34 5.62129 103.563 5.60154 103.806 5.59341C103.86 5.59108 103.919 5.59109 103.98 5.58993C104.173 5.58993 104.37 5.5969 104.561 5.61665C104.601 5.61897 104.656 5.62478 104.708 5.63175C104.9 5.65615 105.089 5.69215 105.27 5.73978L105.462 5.79902C105.51 5.81529 105.556 5.83156 105.601 5.84782L105.786 5.27744L121.293 3.09815L121.414 3.57328L121.347 3.09003L130.398 1.81685L133.112 3.29332L135.071 1.1605L143.324 0L153.718 5.65382L142.157 18.2672L139.283 27.1202L139.756 27.377L138.965 29.159C138.768 29.6016 138.478 30.1301 138.076 30.7772C137.703 31.3777 137.303 31.9795 136.891 32.565C136.443 33.2015 136.019 33.7417 135.598 34.2157C135.356 34.4875 135.082 34.7698 134.769 35.0079L135.27 35.2809L131.573 39.5617L135.265 41.5702L134.489 43.3464C134.458 43.4137 134.385 43.5636 134.268 43.789C134.182 43.9493 134.109 44.091 134.038 44.2385C133.925 44.4627 133.824 44.6521 133.727 44.8275C133.613 45.0261 133.537 45.1504 133.466 45.2527C133.249 45.5895 132.961 45.9845 132.594 46.4469C132.258 46.8674 131.918 47.2821 131.58 47.6829C131.227 48.0999 130.928 48.4391 130.664 48.7202C130.196 49.2267 129.79 49.6658 129.008 49.7715L107.133 52.8453L101.449 49.753L100.123 53.8304L89.0629 55.3847L87.785 54.6889C87.4528 55.0757 87.1694 55.3301 86.872 55.5136L86.4956 55.7448L86.3945 55.7588L71.9039 57.7952L71.7239 57.6976L71.5786 57.8405L56.2179 60ZM47.8342 54.3288L56.4015 58.9893L71.1221 56.9204L71.5519 56.4941L72.0863 56.7845L86.1575 54.8074L86.3597 54.6831C86.6245 54.5204 86.908 54.237 87.2797 53.7665L87.5341 53.4436L89.2441 54.3741L99.3819 52.9499L100.882 48.3346L107.314 51.8335L128.872 48.8039C129.292 48.7469 129.493 48.5448 129.948 48.0534C130.202 47.7816 130.49 47.454 130.833 47.0509C131.165 46.6583 131.501 46.2494 131.83 45.8381C132.175 45.4025 132.445 45.0331 132.656 44.7078C132.724 44.6103 132.784 44.5057 132.876 44.3466C132.965 44.1886 133.059 44.012 133.161 43.8076C133.235 43.6554 133.314 43.502 133.404 43.3348C133.502 43.1442 133.567 43.0141 133.593 42.9561L134.011 42.0012L130.042 39.8416L133.739 35.5609L132.52 34.8964L133.6 34.5468C134.083 34.3911 134.494 33.9833 134.866 33.5675C135.262 33.1214 135.663 32.6091 136.091 32.0027C136.492 31.4335 136.88 30.848 137.244 30.2637C137.623 29.655 137.892 29.1648 138.07 28.7652L138.495 27.8056L138.101 27.5919L141.291 17.7665L152.153 5.91635L143.137 1.01181L135.549 2.07822L133.312 4.51423L130.213 2.82749L106.524 6.15683L106.188 7.19418L105.628 6.90609C105.563 6.87357 105.492 6.84685 105.416 6.82129C105.313 6.78064 105.239 6.75275 105.162 6.72719L104.999 6.67609C104.88 6.64588 104.731 6.61684 104.578 6.59825C104.542 6.5936 104.51 6.59012 104.475 6.5878C104.304 6.57037 104.147 6.5634 103.988 6.56572C103.937 6.56688 103.885 6.56688 103.838 6.56805C103.629 6.57618 103.438 6.59128 103.255 6.618L88.3519 8.71249L87.3099 11.9303L83.2383 9.71732C83.143 9.67085 83.0362 9.63019 82.9258 9.60231L82.7829 9.57327C82.5994 9.54539 82.4391 9.54308 82.2822 9.56515L76.9362 10.3167C76.8282 10.3318 76.7225 10.3586 76.6133 10.3981L76.4065 10.484C76.4042 10.4864 76.3705 10.5049 76.3357 10.5247C76.2927 10.5491 76.2602 10.5677 76.2265 10.5886L76.0987 10.6699C76.0975 10.6711 76.0766 10.6862 76.0557 10.7036C75.9697 10.7675 75.9012 10.8232 75.8408 10.8767L75.7665 10.9417C75.5132 11.1706 75.2542 11.4319 75.0241 11.6921L74.9289 11.7979C74.8813 11.8513 74.8336 11.9094 74.786 11.9663L74.6373 12.1429C74.5362 12.2672 74.434 12.3973 74.326 12.539C74.2807 12.5994 74.2365 12.661 74.1994 12.7144L74.1785 12.7458C74.1378 12.8039 74.1029 12.8561 74.0774 12.8956L74.0391 12.9549C74.0019 13.013 73.9659 13.0734 73.9345 13.1303L73.8485 13.2883L73.1597 14.3326L68.0704 11.5644L60.9157 12.5704L47.4602 54.1243L47.8342 54.3288Z" fill="#E0EEEE"/>
<path d="M129.627 24.2744C129.476 24.6159 129.228 25.0667 128.876 25.6324C128.526 26.1958 128.153 26.7592 127.758 27.318C127.364 27.8767 126.983 28.3646 126.61 28.7852C126.237 29.2022 125.967 29.4229 125.797 29.4473L115.993 30.825L114.168 36.4754L117.198 32.8893L124.551 31.8566L119.991 37.1352L113.654 38.0262L112.95 40.1869L125.144 38.4734C125.123 38.5211 125.069 38.6268 124.985 38.7883C124.899 38.9497 124.813 39.1158 124.73 39.2878C124.644 39.4597 124.558 39.6212 124.474 39.7699C124.388 39.9197 124.336 40.0057 124.315 40.0312C124.122 40.3333 123.861 40.6911 123.532 41.1046C123.203 41.5158 122.877 41.9131 122.558 42.2895C122.24 42.6659 121.959 42.9865 121.714 43.2479C121.469 43.5128 121.336 43.6463 121.315 43.6498L108.187 45.4945L106.274 42.9064L110.683 29.2917L113.538 26.5362L129.627 24.2744Z" fill="#E0EEEE"/>
<path d="M111.87 26.7705L100.841 37.4218L106.934 45.6696L100.121 46.6269L93.8992 39.3235L91.1135 47.8931L88.7426 48.2253L87.6448 40.5874L91.1786 29.6782L97.2912 28.8185L94.5067 37.3846L105.059 27.7277L111.87 26.7705Z" fill="#E0EEEE"/>
<path d="M82.4456 10.6916C82.657 10.6614 82.8545 10.7601 83.0334 10.9855C83.2123 11.2132 83.3679 11.5001 83.4922 11.8509C83.6188 12.1983 83.7304 12.5677 83.8256 12.9534C83.9209 13.3414 83.9987 13.6678 84.0638 13.9338L86.1373 28.3791L80.4696 29.176L79.8074 25.3867C79.7656 25.5307 79.6111 25.8165 79.3451 26.2405C79.079 26.668 78.7817 27.1234 78.4529 27.6043C78.1218 28.0864 77.7977 28.5301 77.4794 28.9437C77.1588 29.3537 76.9242 29.6058 76.7778 29.6941L69.5801 30.7059L63.3118 31.5865C63.3489 31.418 63.3699 31.3332 63.3745 31.3321L63.3757 31.2345L66.4843 26.5228L73.3486 25.5574L79.8097 24.6629L78.7108 16.7474L73.8841 24.3807L67.2847 25.3077L74.8669 13.8176C74.9296 13.6713 75.0574 13.4703 75.2479 13.2136C75.4407 12.9592 75.6475 12.7048 75.8717 12.4573C76.0936 12.2076 76.3178 11.9822 76.542 11.7789C76.7638 11.5768 76.9486 11.4629 77.0996 11.442L82.4456 10.6916Z" fill="url(#paint0_linear_2416_958)"/>
<path d="M56.1321 47.9352H55.0343V47.5449L56.6153 47.6239L67.8626 12.7402L61.7836 13.5941L48.7776 53.84L55.9427 52.8328L56.1321 47.9352Z" fill="#E0EEEE"/>
<path d="M85.6422 33.9236L87.7158 48.3689L82.0515 49.1646L81.3894 45.3753C81.3476 45.5193 81.1907 45.8051 80.927 46.2291C80.661 46.6566 80.3636 47.1085 80.0314 47.5906C79.7026 48.0726 79.3785 48.5199 79.0579 48.93C78.7396 49.3424 78.505 49.5921 78.3563 49.6827L64.8926 51.5751C64.9298 51.4055 64.9507 51.3218 64.9553 51.3207L64.9565 51.2208L76.4453 33.8051C76.5104 33.6587 76.6382 33.4577 76.8287 33.2033C77.0192 32.9466 77.2283 32.6945 77.4525 32.4448C77.6744 32.1973 77.8986 31.9696 78.1205 31.7664C78.3447 31.5631 78.5294 31.4527 78.6781 31.4318L84.0275 30.6802C84.2389 30.65 84.4364 30.7464 84.6153 30.9741C84.7942 31.2018 84.9476 31.4887 85.0742 31.8361C85.2008 32.1857 85.3123 32.5528 85.4076 32.9408C85.5005 33.3311 85.5807 33.6564 85.6422 33.9236ZM74.9294 45.5611L81.3905 44.6527L80.2916 36.7336L74.9305 45.2173L74.9294 45.5611Z" fill="#E0EEEE"/>
<path d="M84.0646 13.9343L86.1382 28.3796L80.4739 29.1754L79.8117 25.386C79.7699 25.5301 79.6131 25.8158 79.3494 26.2398C79.0834 26.6673 78.786 27.1192 78.4538 27.6013C78.125 28.0834 77.8009 28.5306 77.4803 28.9407C77.162 29.3531 76.9273 29.6029 76.7786 29.6935L63.3149 31.5858C63.3521 31.4162 63.373 31.3326 63.3777 31.3314L63.3788 31.2315L74.8677 13.8158C74.9328 13.6695 75.0605 13.4685 75.251 13.2141C75.4416 12.9574 75.6507 12.7053 75.8749 12.4555C76.0967 12.2081 76.3209 11.9804 76.5428 11.7771C76.767 11.5738 76.9517 11.4635 77.1004 11.4426L82.4499 10.6909C82.6613 10.6607 82.8588 10.7572 83.0377 10.9848C83.2166 11.2125 83.3699 11.4995 83.4965 11.8468C83.6232 12.1965 83.7347 12.5636 83.8299 12.9516C83.9217 13.3419 84.0019 13.6671 84.0646 13.9343ZM73.3506 25.5719L79.8117 24.6635L78.7128 16.7444L73.3517 25.228L73.3506 25.5719Z" fill="#E0EEEE"/>
<path d="M66.5174 46.7085L56.4248 48.1269L57.4576 44.9417H51.6597L48.7776 53.8388L62.7524 51.8745C63.0498 51.5794 63.4227 51.1426 63.8688 50.5653C64.3149 49.9856 64.74 49.4117 65.1443 48.8414C65.5485 48.2675 65.8831 47.768 66.1491 47.3428C66.4152 46.9165 66.5383 46.7051 66.5174 46.7085Z" fill="#E0EEEE"/>
<path d="M106.8 10.8028C106.872 11.4139 106.909 11.9784 106.909 12.507C106.907 13.6756 106.64 14.6747 106.108 15.5041C105.576 16.3347 104.91 17.0293 104.115 17.5869C103.319 18.1457 102.438 18.5895 101.472 18.9194C100.505 19.2516 99.5966 19.5118 98.7474 19.6977L104.975 25.7267L98.1619 26.6839L91.6159 21.0789L91.2663 21.4007L89.1544 27.9502L87.1598 28.2301L85.9517 19.8185L89.2183 9.73525L103.416 7.73952C104.179 7.63264 104.793 7.71744 105.261 7.99392C105.727 8.27388 106.082 8.65955 106.326 9.15093C106.568 9.64812 106.726 10.1953 106.8 10.8028ZM100.73 13.7523L100.732 13.3759C100.732 13.1935 100.701 13.0437 100.639 12.9252C100.574 12.8079 100.416 12.7684 100.16 12.8044L93.7615 13.7035L91.9366 19.3167L94.7455 15.8654L99.837 15.1498C100.154 15.1056 100.384 14.9186 100.522 14.5899C100.662 14.2611 100.73 13.9823 100.73 13.7523Z" fill="#E0EEEE"/>
<path d="M124.972 8.25065C125.047 8.86053 125.082 9.42627 125.082 9.95482C125.079 11.1235 124.812 12.1225 124.282 12.9519C123.75 13.7825 123.085 14.4772 122.288 15.0359C121.493 15.5947 120.61 16.0385 119.644 16.3684C118.677 16.7006 117.771 16.9597 116.923 17.1467L123.151 23.1757L116.338 24.133L109.792 18.5279L109.44 18.8497L107.328 25.3992L106.39 25.5304L102.631 21.8898L103.521 19.1436C103.886 18.9438 104.243 18.73 104.582 18.4919C105.51 17.8414 106.294 17.0212 106.916 16.0512C107.581 15.0115 107.922 13.7697 107.924 12.3641C107.925 11.7937 107.884 11.1757 107.808 10.524C107.721 9.798 107.527 9.13121 107.234 8.5376C107.182 8.42956 107.118 8.32965 107.055 8.22859L107.393 7.18425L121.591 5.18851C122.356 5.08047 122.97 5.16644 123.436 5.44292C123.901 5.72288 124.257 6.10855 124.501 6.59993C124.744 7.0948 124.902 7.6431 124.972 8.25065ZM118.906 11.199L118.907 10.8226C118.907 10.6402 118.877 10.4903 118.812 10.373C118.749 10.2557 118.591 10.2162 118.336 10.2522L111.937 11.1513L110.112 16.7645L112.919 13.3144L118.014 12.5988C118.331 12.5546 118.559 12.3676 118.7 12.0389C118.838 11.7089 118.905 11.429 118.906 11.199Z" fill="#E0EEEE"/>
<path d="M142.929 2.19019L132.883 13.1505L129.938 22.2219L124.562 22.977L124.027 22.4601L126.769 14.0101L125.857 11.7054C126.012 11.1164 126.091 10.4845 126.092 9.81303C126.093 9.24265 126.055 8.62116 125.976 7.96947C125.889 7.24575 125.695 6.57662 125.404 5.98534C125.169 5.51022 124.851 5.11061 124.459 4.7865L130.001 4.00703L131.587 8.07633L136.114 3.1474L142.929 2.19019Z" fill="#E0EEEE"/>
<defs>
<linearGradient id="paint0_linear_2416_958" x1="58.7477" y1="13.1888" x2="130.612" y2="53.3128" gradientUnits="userSpaceOnUse">
<stop stop-color="#B9792A"/>
<stop offset="0.1406" stop-color="#C9913A"/>
<stop offset="0.3804" stop-color="#E7BC5F"/>
<stop offset="0.5" stop-color="#F5D070"/>
<stop offset="0.6196" stop-color="#E7BC5F"/>
<stop offset="0.8594" stop-color="#C9913A"/>
<stop offset="1" stop-color="#B9792A"/>
</linearGradient>
</defs>
</svg>
