<svg width="200" height="60" viewBox="0 0 200 60" fill="none" xmlns="http://www.w3.org/2000/svg">
<path d="M37.3655 43.7326V55.1993L40.4272 51.5993V40.7993L37.3655 43.7326Z" fill="#E0EEEE"/>
<path d="M48.949 18.4C48.4166 13.2 42.9586 10.5333 37.6338 10C36.702 9.86667 35.637 9.86667 34.7052 10V0L31.5103 3.46667V29.0667H31.3772H31.111C28.7148 28.8 26.4518 27.8667 24.455 26.5333C22.7244 25.3333 21.6594 23.6 21.127 21.7333C20.9938 20.8 20.9938 19.7333 21.2601 18.8C21.5263 17.8667 21.9257 16.9333 22.4582 16.1333C23.7894 14.2667 25.653 12.8 27.9161 11.8667L28.7148 11.6L28.981 11.4667V11.0667H28.7148C28.3154 11.2 27.9161 11.3333 27.5167 11.3333C24.8543 12 22.325 13.2 20.1951 14.9333C19.2633 15.7333 18.5977 16.5333 18.0652 17.6C17.3996 18.6667 17.1334 19.8667 17.0002 20.9333C17.0002 22.1333 17.2665 23.2 17.6658 24.2667C18.1983 25.3333 18.8639 26.1333 19.7958 26.9333C23.39 30.1333 28.0492 30.5333 31.5103 30.2667V60L34.7052 57.0667V11.2C39.2313 11.8667 44.5561 14.4 45.0886 19.3333C45.3548 22.4 43.358 26.4 37.5007 28.6667V28.9333H37.6338C40.5625 28.1333 43.4911 27.2 45.8873 25.0667C46.9522 24.2667 47.751 23.2 48.2834 22C48.6828 21.0667 48.949 19.7333 48.949 18.4Z" fill="#E0EEEE"/>
<path d="M64.9211 11.4673H66.6517V26.8006H73.5739V28.0006H64.9211V11.4673Z" fill="#E0EEEE"/>
<path fill-rule="evenodd" clip-rule="evenodd" d="M64.6572 11.3318H66.7871V26.6651H73.7094V28.3985H64.6572V11.3318ZM66.5209 26.7985V11.4651H64.9235V27.9985H73.5763V26.7985H66.5209Z" fill="#E0EEEE"/>
<path d="M77.7043 11.6006H79.4349V21.2006C79.4349 24.9339 80.633 26.8006 84.0941 26.8006C86.8896 26.8006 88.7533 25.334 88.7533 21.4673V11.4673H90.0845V21.334C90.0845 26.134 87.6883 28.2673 83.961 28.2673C80.4999 28.2673 77.8375 26.534 77.8375 22.134L77.7043 11.6006Z" fill="#E0EEEE"/>
<path fill-rule="evenodd" clip-rule="evenodd" d="M77.4355 11.3318H79.6986V21.1985C79.6986 23.0651 79.9648 24.3985 80.6304 25.3318C81.296 26.1318 82.361 26.6651 84.0915 26.6651C85.4227 26.6651 86.4877 26.2651 87.2864 25.4651C88.0851 24.6651 88.4845 23.4651 88.4845 21.4651V11.3318H90.2151V21.4651C90.2151 23.8651 89.5495 25.7318 88.4845 26.9318C87.2864 28.1318 85.689 28.6651 83.8253 28.6651C82.0947 28.6651 80.4973 28.2651 79.2992 27.1985C78.1011 26.1318 77.4355 24.5318 77.4355 22.2651V11.3318ZM77.7018 22.1318C77.7018 26.5318 80.3642 28.2651 83.8253 28.2651C87.5527 28.2651 89.9488 26.1318 89.9488 21.3318V11.4651H88.6176V21.4651C88.6176 25.3318 86.7539 26.7985 83.9584 26.7985C80.6304 26.7985 79.2992 24.9318 79.2992 21.1985V11.5985H77.5687L77.7018 22.1318Z" fill="#E0EEEE"/>
<path d="M97.4051 11.4673L101.532 17.6006L105.792 11.4673H107.256L102.197 18.6673L108.454 27.8673H106.324L101.132 20.0006L95.6745 28.0006H94.2102L100.467 19.0673L95.4083 11.4673H97.4051Z" fill="#E0EEEE"/>
<path fill-rule="evenodd" clip-rule="evenodd" d="M97.5361 11.333L101.53 17.333L105.656 11.333H107.786L102.595 18.7997L108.984 28.2664H106.322L101.263 20.6664L95.9386 28.2664H93.8087L100.198 19.0664L94.8737 11.1997H97.5361V11.333ZM100.465 19.0664L94.2081 27.9997H95.8055L101.263 20.133L106.455 27.9997H108.585L102.328 18.7997L107.387 11.5997H105.923L101.663 17.733L97.5361 11.5997H95.4062L100.465 19.0664Z" fill="#E0EEEE"/>
<path d="M112.979 11.6006H114.709V21.2006C114.709 24.9339 115.907 26.8006 119.369 26.8006C122.164 26.8006 124.028 25.334 124.028 21.4673V11.4673H125.359V21.334C125.359 26.134 122.963 28.2673 119.235 28.2673C115.774 28.2673 113.112 26.534 113.112 22.134V11.6006H112.979Z" fill="#E0EEEE"/>
<path fill-rule="evenodd" clip-rule="evenodd" d="M112.712 11.3318H114.842V21.1985C114.842 23.0651 115.108 24.3985 115.773 25.3318C116.439 26.1318 117.504 26.6651 119.234 26.6651C120.566 26.6651 121.631 26.2651 122.429 25.4651C123.228 24.6651 123.627 23.4651 123.627 21.4651V11.3318H125.358V21.4651C125.358 23.8651 124.692 25.7318 123.627 26.9318C122.429 28.1318 120.832 28.6651 118.968 28.6651C117.238 28.6651 115.64 28.2651 114.442 27.1985C113.244 26.1318 112.578 24.5318 112.578 22.2651V11.3318H112.712ZM112.978 11.5985V22.1318C112.978 26.5318 115.64 28.2651 119.101 28.2651C122.829 28.2651 125.225 26.1318 125.225 21.3318V11.4651H123.894V21.4651C123.894 25.3318 122.03 26.7985 119.234 26.7985C115.773 26.7985 114.575 24.9318 114.575 21.1985V11.5985H112.978Z" fill="#E0EEEE"/>
<path d="M140.404 28.0006L135.478 20.934C135.079 21.0673 134.547 21.0673 134.147 21.0673H133.082V28.0006H131.485V11.4673H135.212C138.141 11.4673 140.404 12.8006 140.404 15.8673C140.404 16.8006 140.138 17.8673 139.472 18.6673C138.939 19.4673 138.141 20.134 137.209 20.4006L142.667 28.0006H140.404ZM132.949 12.534V19.8673H134.014C136.81 19.8673 138.407 18.134 138.407 16.0006C138.407 13.734 136.943 12.534 134.68 12.534H132.949Z" fill="#E0EEEE"/>
<path fill-rule="evenodd" clip-rule="evenodd" d="M140.268 28.2651L135.209 21.1985C134.81 21.1985 134.411 21.3318 133.878 21.3318H133.079V28.3985H130.949V11.3318H134.943C136.407 11.3318 137.872 11.5985 138.804 12.3985C139.869 13.1985 140.401 14.2651 140.401 15.8651C140.401 16.9318 140.002 17.8651 139.469 18.7985C138.937 19.5985 138.138 20.1318 137.339 20.5318L142.797 28.2651H140.268ZM137.206 20.3985C137.339 20.3985 137.339 20.3985 137.472 20.2651C138.138 19.9985 138.937 19.3318 139.469 18.6651C140.002 17.8651 140.401 16.9318 140.401 15.8651C140.401 12.7985 138.138 11.4651 135.209 11.4651H131.482V27.9985H133.079V20.9318H134.144C134.544 20.9318 135.076 20.9318 135.476 20.7985L140.534 27.9985H142.664L137.206 20.3985ZM132.946 19.8651V12.5318H134.677C136.94 12.5318 138.404 13.7318 138.404 15.9985C138.404 18.1318 136.94 19.8651 134.011 19.8651H132.946ZM133.213 12.7985V19.5985H134.011C135.342 19.5985 136.407 19.1985 137.073 18.5318C137.739 17.8651 138.138 16.9318 138.138 15.9985C138.138 14.9318 137.739 14.1318 137.206 13.5985C136.674 13.0651 135.742 12.7985 134.677 12.7985H133.213Z" fill="#E0EEEE"/>
<path d="M149.985 20.6673L143.595 11.4673H145.725L151.05 19.334L156.375 11.4673H157.839L151.582 20.6673V28.0006H149.852L149.985 20.6673Z" fill="#E0EEEE"/>
<path fill-rule="evenodd" clip-rule="evenodd" d="M151.719 20.6664V27.9997H149.988V20.6664L143.598 11.4664H145.728L151.053 19.333L156.378 11.4664H157.842L151.719 20.6664ZM151.053 18.933L145.728 11.1997H143.066L149.589 20.6664V28.133H151.852V20.6664L158.375 11.1997H156.245L151.053 18.933Z" fill="#E0EEEE"/>
<path d="M66.5186 45.9999V53.1999H64.9211V36.3999H68.9147C71.8434 36.3999 73.9733 37.7332 73.9733 40.9332C73.9733 44.1332 70.9115 45.9999 67.7167 45.9999H66.5186ZM66.5186 37.4666V44.9332H67.7167C70.5122 44.9332 72.1096 43.3332 72.1096 41.0666C72.1096 40.5332 72.1096 40.1332 71.9765 39.5999C71.8434 39.1999 71.5771 38.6666 71.1778 38.3999C70.7784 37.9999 70.3791 37.7332 69.9797 37.5999C69.5803 37.4666 69.0479 37.3332 68.5154 37.4666H66.5186Z" fill="#E0EEEE"/>
<path fill-rule="evenodd" clip-rule="evenodd" d="M66.7871 53.4671H64.6572V36.1338H68.9171C70.3814 36.1338 71.7126 36.5338 72.6444 37.3338C73.5763 38.1338 74.2419 39.3338 74.2419 40.9338C74.2419 42.6671 73.4431 44.0005 72.2451 44.9338C71.047 45.8671 69.4495 46.2671 67.719 46.2671H66.7871V53.4671ZM66.5209 46.0005H67.719C70.9139 46.0005 73.9756 44.1338 73.9756 40.9338C73.9756 37.8671 71.7126 36.4005 68.9171 36.4005H64.9235V53.2005H66.654V46.0005H66.5209ZM71.9788 41.0671C71.9788 40.5338 71.9788 40.1338 71.8457 39.7338C71.7126 39.3338 71.4463 38.9338 71.1801 38.5338C70.9139 38.2671 70.5145 38.0005 70.1151 37.8671C69.7158 37.7338 69.3164 37.7338 68.7839 37.7338H66.9203V44.6671H67.9852C69.3164 44.6671 70.3814 44.2671 71.047 43.6005C71.5795 43.0671 71.9788 42.1338 71.9788 41.0671ZM66.5209 44.9338V37.4671H68.5177C69.0502 37.4671 69.4495 37.4671 69.982 37.6005C70.3814 37.7338 70.9139 38.0005 71.1801 38.4005C71.5795 38.8005 71.8457 39.2005 71.9788 39.6005C72.1119 40.0005 72.2451 40.5338 72.1119 41.0671C72.1119 43.3338 70.5145 44.9338 67.719 44.9338H66.5209Z" fill="#E0EEEE"/>
<path d="M88.0862 53.1999L83.0277 45.9999C82.6283 46.1332 82.0958 46.1332 81.5633 46.1332H80.4984V53.3332H78.7678V36.3999H82.7614C85.6901 36.3999 88.0862 37.7332 88.0862 40.7999C88.0862 41.8666 87.82 42.7999 87.1544 43.5999C86.6219 44.3999 85.8232 45.0666 84.7582 45.3332L90.2161 53.0666H88.0862V53.1999ZM80.4984 37.4666V44.9332H81.5633C84.492 44.9332 85.9563 43.1999 85.9563 41.0666C85.9563 38.6666 84.492 37.4666 82.2289 37.4666H80.4984Z" fill="#E0EEEE"/>
<path fill-rule="evenodd" clip-rule="evenodd" d="M87.9557 53.4671L82.8971 46.2671C82.4977 46.2671 82.0984 46.4005 81.5659 46.4005H80.7672V53.6005H78.5042V36.1338H82.6309C84.0952 36.1338 85.5595 36.5338 86.4913 37.2005C87.5563 38.0005 88.0888 39.2005 88.0888 40.8005C88.0888 41.8671 87.6894 42.9338 87.1569 43.7338C86.6245 44.5338 85.8257 45.0671 85.027 45.4671L90.6181 53.3338H87.9557V53.4671ZM84.7608 45.4671C84.8939 45.4671 84.8939 45.4671 85.027 45.3338C85.8257 44.9338 86.6245 44.4005 87.1569 43.6005C87.6894 42.8005 88.0888 41.8671 88.0888 40.8005C88.0888 37.7338 85.6926 36.4005 82.764 36.4005H78.7704V53.2005H80.501V46.0005H81.5659C82.0984 46.0005 82.4977 46.0005 83.0302 45.8671L88.0888 53.0671H90.2187L84.7608 45.4671ZM80.501 44.9338V37.4671H82.2315C84.4945 37.4671 85.9589 38.6671 85.9589 41.0671C85.9589 43.2005 84.3614 44.9338 81.5659 44.9338H80.501ZM80.7672 37.7338V44.6671H81.5659C83.0302 44.6671 83.9621 44.2671 84.7608 43.6005C85.4264 42.9338 85.8257 42.0005 85.8257 41.0671C85.8257 40.0005 85.4264 39.0671 84.8939 38.5338C84.3614 38.0005 83.4296 37.7338 82.3646 37.7338H80.7672Z" fill="#E0EEEE"/>
<path d="M94.4752 36.3999H103.128V37.5999H96.2057V43.7332H101.93V44.9332H96.2057V51.9999H103.261V53.1999H94.342L94.4752 36.3999Z" fill="#E0EEEE"/>
<path fill-rule="evenodd" clip-rule="evenodd" d="M94.2102 36.1338H103.395V37.8671H96.4732V43.4671H102.197V45.0671H96.4732V51.7338H103.529V53.4671H94.2102V36.1338ZM96.207 52.0005V44.9338H101.931V43.7338H96.207V37.6005H103.129V36.4005H94.4764V53.2005H103.395V52.0005H96.207Z" fill="#E0EEEE"/>
<path d="M117.107 39.8676L115.11 40.1343C115.11 39.7343 115.11 39.3343 114.977 38.9343C114.844 38.5343 114.711 38.2676 114.445 38.001C114.178 37.7343 113.912 37.4676 113.513 37.3343C113.113 37.201 112.714 37.0676 112.315 37.0676C111.915 37.0676 111.649 37.0676 111.25 37.201C110.85 37.3343 110.584 37.4676 110.318 37.7343C110.052 38.001 109.919 38.2676 109.785 38.6676C109.652 39.0676 109.652 39.3343 109.652 39.7343C109.652 41.201 110.584 42.2676 112.315 43.3343L114.045 44.401C116.042 45.601 117.506 46.801 117.506 48.9343C117.506 51.4677 114.977 53.3343 112.048 53.3343C108.854 53.3343 106.857 51.3343 106.99 48.6676L108.987 48.401C108.987 50.5343 109.785 52.2677 112.448 52.2677C112.847 52.2677 113.247 52.2676 113.646 52.1343C114.045 52.001 114.445 51.7343 114.711 51.4676C114.977 51.201 115.243 50.801 115.376 50.5343C115.51 50.1343 115.643 49.7343 115.643 49.3343C115.643 47.8676 114.844 46.9343 112.714 45.601L110.717 44.2676C109.919 43.8676 109.253 43.201 108.72 42.5343C108.188 41.7343 107.922 40.9343 107.922 40.001C107.922 38.001 109.652 36.001 112.714 36.001C115.376 36.1343 117.107 37.8676 117.107 39.8676Z" fill="#E0EEEE"/>
<path fill-rule="evenodd" clip-rule="evenodd" d="M117.242 40.1321L114.713 40.3988V40.1321C114.713 39.7321 114.713 39.4655 114.58 39.0655C114.447 38.6655 114.313 38.3988 114.047 38.1321C113.781 37.8655 113.515 37.5988 113.248 37.4655C112.982 37.3321 112.583 37.1988 112.183 37.3321C111.917 37.3321 111.518 37.3321 111.252 37.4655C110.985 37.5988 110.719 37.7321 110.453 37.9988C110.187 38.2655 110.054 38.5321 109.92 38.7988C109.787 39.0655 109.787 39.4655 109.787 39.7321C109.787 41.0655 110.586 41.9988 112.317 43.0655L114.047 44.1321C116.044 45.3321 117.641 46.5321 117.641 48.7988C117.641 51.5988 114.979 53.4655 112.05 53.4655C110.32 53.4655 108.989 52.9321 108.057 52.1321C107.125 51.1988 106.592 49.9988 106.726 48.6655V48.3988L109.122 48.1321V48.3988C109.122 49.4655 109.255 50.3988 109.787 51.0655C110.32 51.7321 110.985 52.1321 112.317 52.1321C112.716 52.1321 113.115 52.1321 113.382 51.9988C113.781 51.8655 114.047 51.7321 114.313 51.4655C114.58 51.1988 114.846 50.9321 114.979 50.5321C115.112 50.1321 115.245 49.8655 115.245 49.4655C115.245 48.7988 115.112 48.2655 114.58 47.7321C114.18 47.1988 113.382 46.6655 112.45 45.9988L110.453 44.6655C109.654 44.2655 108.989 43.5988 108.456 42.7988C107.924 41.9988 107.657 41.0655 107.524 40.1321C107.524 37.9988 109.388 35.8655 112.45 35.8655C115.245 35.8655 117.109 37.7321 117.109 39.8655V40.1321H117.242ZM110.719 44.5321L112.716 45.8655C114.846 47.1988 115.645 48.1321 115.645 49.5988C115.645 49.9988 115.511 50.3988 115.378 50.7988C115.245 51.1988 114.979 51.4655 114.713 51.7321C114.447 51.9988 114.047 52.2655 113.648 52.3988C113.248 52.5321 112.849 52.5321 112.45 52.5321C109.92 52.5321 109.122 50.9321 108.989 48.9321C108.989 48.7988 108.989 48.7988 108.989 48.6655L106.992 48.9321C106.859 51.5988 108.855 53.5988 112.05 53.5988C114.979 53.5988 117.508 51.7321 117.508 49.1988C117.508 47.0655 116.044 45.8655 114.047 44.6655L112.317 43.5988C110.586 42.5321 109.654 41.4655 109.654 39.9988C109.654 39.5988 109.654 39.3321 109.787 38.9321C109.92 38.5321 110.054 38.2655 110.32 37.9988C110.586 37.7321 110.852 37.5988 111.252 37.4655C111.651 37.3321 111.917 37.3321 112.317 37.3321C112.716 37.3321 113.115 37.3321 113.515 37.5988C113.914 37.7321 114.18 37.9988 114.447 38.2655C114.713 38.5321 114.846 38.9321 114.979 39.1988C115.112 39.4655 115.112 39.8655 115.112 40.1321C115.112 40.2655 115.112 40.2655 115.112 40.3988L117.109 40.1321C117.109 38.1321 115.378 36.3988 112.716 36.3988C109.654 36.3988 107.924 38.3988 107.924 40.3988C108.057 41.3321 108.323 42.1321 108.722 42.9321C109.255 43.4655 109.92 44.1321 110.719 44.5321Z" fill="#E0EEEE"/>
<path d="M122.699 36.3999H131.352V37.5999H124.429V43.7332H130.154V44.9332H124.429V51.9999H131.485V53.1999H122.566L122.699 36.3999Z" fill="#E0EEEE"/>
<path fill-rule="evenodd" clip-rule="evenodd" d="M122.432 36.1338H131.617V37.8671H124.695V43.4671H130.419V45.0671H124.695V51.7338H131.75V53.4671H122.432V36.1338ZM124.429 52.0005V44.9338H130.153V43.7338H124.429V37.6005H131.351V36.4005H122.698V53.2005H131.617V52.0005H124.429Z" fill="#E0EEEE"/>
<path d="M136.543 36.1338L148.79 49.7338V36.6671H150.121V53.7338L137.874 40.1338V53.2005H136.543V36.1338Z" fill="#E0EEEE"/>
<path fill-rule="evenodd" clip-rule="evenodd" d="M136.274 35.5994L148.521 49.1994V36.5327H150.252V54.3994L138.138 40.7994V53.466H136.407V35.5994H136.274ZM137.871 40.1327L150.118 53.7327V36.666H148.787V49.7327L136.54 36.1327V53.1994H137.871V40.1327Z" fill="#E0EEEE"/>
<path d="M163.033 53.4671C158.906 53.4671 155.312 50.2671 155.312 44.9338C155.312 39.4671 159.039 36.1338 163.299 36.1338C166.228 36.1338 168.757 37.8671 168.89 40.4005L166.893 40.6671C166.893 40.1338 166.76 39.7338 166.494 39.2005C166.228 38.8005 165.961 38.4005 165.562 38.0005C165.163 37.7338 164.763 37.4671 164.231 37.3338C163.698 37.2005 163.299 37.0671 162.766 37.2005C159.705 37.2005 157.042 40.0005 157.042 44.2671C157.042 48.4005 159.705 51.7338 163.432 51.7338C164.63 51.7338 165.695 51.4671 166.76 50.8005C167.825 50.1338 168.624 49.3338 169.156 48.2671C168.757 51.8671 165.961 53.4671 163.033 53.4671Z" fill="#E0EEEE"/>
<path fill-rule="evenodd" clip-rule="evenodd" d="M169.157 40.6676L166.628 40.9343V40.6676C166.628 40.1343 166.495 39.7343 166.229 39.3343C165.962 38.9343 165.696 38.5343 165.297 38.2676C164.897 38.001 164.498 37.7343 164.099 37.601C163.699 37.4676 163.167 37.4676 162.767 37.4676C159.839 37.4676 157.309 40.1343 157.309 44.2676C157.309 48.401 159.972 51.601 163.433 51.601C164.498 51.601 165.696 51.3343 166.628 50.801C167.56 50.2676 168.358 49.4676 168.891 48.401L169.29 48.5343C169.024 50.401 168.225 51.601 167.027 52.5343C165.829 53.3343 164.365 53.7343 162.901 53.7343C158.641 53.7343 154.913 50.401 154.913 45.0676C154.913 39.4676 158.774 36.001 163.034 36.001C165.962 36.001 168.758 37.7343 168.891 40.5343L169.157 40.6676ZM169.157 49.0676C168.492 52.1343 165.829 53.4676 163.167 53.4676C159.04 53.4676 155.446 50.2676 155.446 44.9343C155.446 39.4676 159.173 36.1343 163.433 36.1343C166.362 36.1343 168.891 37.8676 169.024 40.401L167.027 40.6676C167.027 40.5343 167.027 40.5343 167.027 40.401C167.027 40.001 166.894 39.601 166.628 39.201C166.362 38.801 166.095 38.401 165.696 38.001C165.297 37.7343 164.897 37.4676 164.365 37.3343C163.832 37.201 163.433 37.0676 162.901 37.201C159.839 37.201 157.176 40.001 157.176 44.2676C157.176 48.401 159.839 51.7343 163.566 51.7343C164.764 51.7343 165.829 51.4676 166.894 50.801C167.693 50.2676 168.358 49.601 168.891 48.9343C169.024 48.801 169.157 48.5343 169.29 48.401C169.157 48.6676 169.157 48.801 169.157 49.0676Z" fill="#E0EEEE"/>
<path d="M174.216 36.3999H182.602V37.5999H175.813V43.7332H181.404V44.9332H175.813V51.9999H182.735V53.1999H174.082V36.3999H174.216Z" fill="#E0EEEE"/>
<path fill-rule="evenodd" clip-rule="evenodd" d="M173.948 36.1338H182.867V37.8671H176.077V43.4671H181.668V45.0671H176.077V51.7338H183V53.4671H173.948V36.1338ZM175.944 52.0005V44.9338H181.535V43.7338H175.944V37.6005H182.733V36.4005H174.347V53.2005H183V52.0005H175.944Z" fill="#E0EEEE"/>
</svg>
