<svg width="200" height="60" viewBox="0 0 200 60" fill="none" xmlns="http://www.w3.org/2000/svg">
<path d="M74.4761 30.0757V30.0255C74.4761 24.5494 78.8033 20.0781 84.7407 20.0781C90.678 20.0781 94.9549 24.4992 94.9549 29.9753V30.0255C94.9549 35.5016 90.6277 39.9729 84.6903 39.9729C78.753 39.9226 74.4761 35.5016 74.4761 30.0757ZM90.5271 30.0757V30.0255C90.5271 26.7097 88.1119 23.9968 84.6903 23.9968C81.2688 23.9968 78.9039 26.7097 78.9039 29.9753V30.0255C78.9039 33.3413 81.3191 36.0542 84.7407 36.0542C88.1622 36.0542 90.5271 33.3413 90.5271 30.0757Z" fill="#E0EEEE"/>
<path d="M97.8708 30.0757V30.0255C97.8708 24.5494 101.997 20.0781 107.934 20.0781C111.557 20.0781 113.721 21.2839 115.532 23.0422L112.815 26.1571C111.356 24.8006 109.796 23.9968 107.884 23.9968C104.613 23.9968 102.299 26.7097 102.299 29.9753V30.0255C102.299 33.3413 104.563 36.0542 107.884 36.0542C110.098 36.0542 111.456 35.2001 112.966 33.7934L115.683 36.5064C113.721 38.6164 111.507 39.9226 107.783 39.9226C102.047 39.9226 97.8708 35.5518 97.8708 30.0757Z" fill="#E0EEEE"/>
<path d="M119.006 20.3794H123.233V28.7693L131.032 20.3794H136.164L128.315 28.5684L136.517 39.621H131.435L125.447 31.432L123.233 33.743V39.621H119.006V20.3794Z" fill="#E0EEEE"/>
<path d="M143.26 24.2981H137.423V20.3794H153.374V24.2981H147.537V39.621H143.31V24.2981H143.26Z" fill="#E0EEEE"/>
<path d="M154.929 30.0757V30.0255C154.929 24.5494 159.257 20.0781 165.194 20.0781C171.131 20.0781 175.408 24.4992 175.408 29.9753V30.0255C175.408 35.5016 171.081 39.9729 165.144 39.9729C159.206 39.9226 154.929 35.5016 154.929 30.0757ZM170.98 30.0757V30.0255C170.98 26.7097 168.565 23.9968 165.144 23.9968C161.722 23.9968 159.357 26.7097 159.357 29.9753V30.0255C159.357 33.3413 161.772 36.0542 165.194 36.0542C168.616 36.0542 170.98 33.3413 170.98 30.0757Z" fill="#E0EEEE"/>
<path d="M60.8949 15.7069C60.7943 15.4557 60.4924 15.1543 60.2408 15.0538L46.4038 9.07536C46.1522 8.97488 45.7497 8.97488 45.4981 9.07536L31.2585 14.7524C31.0069 14.8529 30.705 15.1543 30.6044 15.4055L24.667 29.1711C24.5664 29.4222 24.5664 29.8242 24.667 30.0754L30.3025 44.2428C30.4031 44.494 30.705 44.7955 30.9566 44.8959L44.7936 50.9246C45.0452 51.0251 45.4478 51.0251 45.6993 50.9246L59.8886 45.2978C60.1402 45.1974 60.4421 44.8959 60.5427 44.6447L66.4801 30.8289C66.5807 30.5778 66.5807 30.1758 66.4801 29.9246L60.8949 15.7069ZM54.0016 20.9821C54.2532 21.0825 54.555 21.384 54.6557 21.6352L57.8256 29.6232C57.9263 29.8744 57.9263 30.2763 57.8256 30.5275L54.4041 38.4653C54.3035 38.7165 54.0016 39.0179 53.75 39.1184L45.7497 42.2835C45.4981 42.384 45.0955 42.384 44.844 42.2835L36.8939 38.8672C36.6424 38.7667 36.3405 38.4653 36.2398 38.2141L33.0699 30.2261C32.9693 29.9749 32.9693 29.573 33.0699 29.3218L36.4914 21.384C36.592 21.1328 36.8939 20.8313 37.1455 20.7309L45.1459 17.5658C45.3974 17.4653 45.8 17.4653 46.0516 17.5658L54.0016 20.9821Z" fill="#E0EEEE"/>
<path d="M56.6126 19.575C56.512 19.3238 56.2101 19.0223 55.9585 18.9219L45.9959 14.6515C45.7443 14.5511 45.3417 14.5511 45.0902 14.6515L34.8256 18.7209C34.574 18.8214 34.2721 19.1228 34.1715 19.374L29.8946 29.3214C29.7939 29.5726 29.7939 29.9745 29.8946 30.2257L33.8696 40.4242C33.9702 40.6754 34.2721 40.9769 34.5237 41.0774L44.4864 45.3477C44.7379 45.4482 45.1405 45.4482 45.3921 45.3477L55.6566 41.2783C55.9082 41.1778 56.2101 40.8764 56.3107 40.6252L60.5877 30.6778C60.6883 30.4266 60.6883 30.0247 60.5877 29.7735L56.6126 19.575ZM52.7886 22.0367C53.0402 22.1372 53.3421 22.4386 53.4427 22.6898L56.2604 29.7233C56.3611 29.9745 56.3611 30.3764 56.2604 30.6276L53.2918 37.6109C53.1911 37.8621 52.8892 38.1635 52.6376 38.264L45.694 41.0271C45.4424 41.1276 45.0398 41.1276 44.7883 41.0271L37.8446 38.0128C37.593 37.9123 37.2911 37.6109 37.1905 37.3597L34.3727 30.3262C34.2721 30.075 34.2721 29.6731 34.3727 29.4219L37.2408 22.3884C37.3414 22.1372 37.6433 21.8357 37.8949 21.7353L44.8386 18.9721C45.0902 18.8716 45.4927 18.8716 45.7443 18.9721L52.7886 22.0367Z" fill="#748A8A"/>
</svg>
