<svg width="200" height="60" viewBox="0 0 200 60" fill="none" xmlns="http://www.w3.org/2000/svg">
<path fill-rule="evenodd" clip-rule="evenodd" d="M95.0784 16.759V22.1846L94.2828 21.4003C93.8451 20.969 93.3522 20.5133 93.1873 20.3878C92.6686 19.9929 91.5131 19.4605 90.7172 19.2495C89.6894 18.9772 87.521 18.9781 86.4739 19.2513C84.7603 19.6983 82.9971 20.8199 81.8797 22.1735C81.1359 23.0744 80.1925 24.9447 79.8563 26.1846C79.495 27.5171 79.4113 30.6033 79.6984 32.0069C80.3993 35.4351 82.2278 37.9228 84.9852 39.1994C86.0236 39.6801 86.8744 39.8773 88.212 39.9469C90.7564 40.0794 92.8655 39.2655 94.4567 37.537L95.0726 36.868L95.0755 38.1887L95.0784 39.5094H97.6715H100.265V25.4215V11.3335H97.6715H95.0784V16.759ZM49.4005 19.0771C44.2192 19.663 40.5321 23.6618 40.303 28.9435C40.2289 30.6532 40.3708 31.7423 40.8536 33.1688C41.8572 36.1344 44.1277 38.393 47.1126 39.3945C49.4763 40.1875 52.5256 40.1622 54.9182 39.3296C57.3167 38.495 59.3862 36.5563 60.3775 34.2152C60.5979 33.6946 60.7782 33.2464 60.7782 33.2193C60.7782 33.192 59.5633 33.1699 58.0784 33.1699H55.3786L55.0743 33.687C54.2488 35.0899 52.0333 35.9477 50.0274 35.6408C47.7874 35.2981 46.2664 33.9132 45.7545 31.7501C45.6566 31.3364 45.5757 30.9583 45.5748 30.9099C45.5738 30.8615 49.0737 30.8219 53.3524 30.8219H61.1318V29.6021C61.1318 26.5101 60.0993 23.9022 58.0778 21.8889C56.6718 20.4885 55.2712 19.7165 53.3294 19.2721C52.3708 19.0526 50.4567 18.9577 49.4005 19.0771ZM110.626 19.0785C108.15 19.3903 105.766 20.5718 104.255 22.2371C102.485 24.1884 101.561 26.686 101.561 29.5219C101.561 32.8335 102.79 35.6181 105.117 37.5797C108.066 40.0665 112.943 40.7014 116.77 39.0971C119.119 38.1124 121.03 36.0786 121.891 33.6459L122.06 33.1699H119.371H116.683L116.349 33.6965C115.433 35.139 113.236 35.9728 111.235 35.6367C108.89 35.2427 107.333 33.6618 106.929 31.2621L106.855 30.8219H114.639H122.424L122.422 29.7946C122.417 27.8408 122.081 26.2388 121.356 24.7255C119.953 21.7935 117.589 19.8995 114.534 19.2594C113.508 19.0445 111.598 18.9561 110.626 19.0785ZM134.388 19.0372C132.737 19.2013 131.266 19.9002 130.038 21.1036C129.526 21.606 129.089 22.0169 129.066 22.0169C129.043 22.0169 129.025 21.4357 129.025 20.7255V19.4341H126.432H123.839V29.4718V39.5094H126.432H129.025V33.928C129.025 27.0525 129.108 26.4754 130.278 25.185C131.136 24.2395 132.889 23.7522 134.481 24.0171C136.386 24.3341 137.14 25.2029 137.389 27.3674C137.455 27.9437 137.51 30.9114 137.511 33.9623L137.512 39.5094H140.111H142.71L142.67 32.3774C142.632 25.4319 142.624 25.2208 142.369 24.3062C141.61 21.5851 139.994 19.8934 137.559 19.2724C136.816 19.0827 135.163 18.9601 134.388 19.0372ZM34.245 19.2585C31.5183 19.7997 29.3883 21.6695 28.3314 24.45C28.078 25.1161 28.073 25.2534 28.0369 32.3187L28.0002 39.5094H30.5985H33.1967L33.1974 33.0818C33.1977 28.7421 33.2404 26.5017 33.3286 26.1846C33.5123 25.5238 33.8326 25.1209 34.4714 24.7469C35.0154 24.4284 35.0583 24.423 37.3516 24.382L39.6795 24.3403V21.7112V19.0819L37.3516 19.0929C35.9456 19.0996 34.7153 19.1651 34.245 19.2585ZM59.7174 19.5424C59.7174 19.6021 60.1176 20.5398 60.6067 21.6263C61.0959 22.7128 61.6492 23.9452 61.8362 24.3649C62.0234 24.7846 62.3074 25.4185 62.4674 25.7737C62.6275 26.1288 63.4869 28.0571 64.3771 30.0588C65.2673 32.0604 66.1406 34.0151 66.3178 34.4026C66.967 35.8231 67.3789 36.7926 67.3789 36.9001C67.3789 36.9608 66.2338 39.567 64.8344 42.6918C63.4348 45.8165 62.2622 48.4392 62.2286 48.5199C62.1807 48.6348 62.7693 48.6666 64.9471 48.6666H67.7267L67.9542 48.1677C68.0792 47.8932 68.6313 46.665 69.1809 45.4381C69.7306 44.2113 70.7384 41.966 71.4203 40.4486C72.1023 38.9313 73.4549 35.9199 74.4259 33.7569C76.2158 29.7695 77.1083 27.787 77.544 26.8303C77.6764 26.5397 78.2213 25.3246 78.7552 24.1301C79.2889 22.9355 79.971 21.4164 80.2709 20.7541C80.5707 20.0919 80.8161 19.5229 80.8161 19.49C80.8161 19.4569 79.5625 19.4439 78.0301 19.4613L75.2443 19.4928L74.8613 20.3733C74.6507 20.8576 73.8039 22.8387 72.9797 24.7758C70.6705 30.2022 70.2933 31.0567 70.2069 31.0567C70.1321 31.0567 69.0607 28.5749 66.3422 22.1049L65.22 19.4341H62.4687C60.8663 19.4341 59.7174 19.4793 59.7174 19.5424ZM52.1878 23.4753C53.5654 23.8919 54.5523 24.714 55.1271 25.9241C55.7226 27.1777 56.1595 27.0651 50.7003 27.0651C45.2871 27.0651 45.6912 27.1568 46.2341 26.0514C46.8341 24.8302 47.8116 23.9861 49.1665 23.5195C49.8945 23.2687 51.43 23.2463 52.1878 23.4753ZM113.515 23.4859C114.786 23.8699 115.816 24.7377 116.413 25.9289C117.038 27.1733 117.459 27.0651 111.993 27.0651C106.566 27.0651 106.962 27.1557 107.519 26.0422C108.395 24.2903 109.988 23.3192 111.993 23.3134C112.511 23.312 113.196 23.3896 113.515 23.4859ZM90.894 24.0578C92.994 24.5156 94.4478 25.995 94.9109 28.1455C95.63 31.4847 93.7202 34.5284 90.6273 34.9725C87.9059 35.3632 85.6381 33.8275 84.9437 31.1238C84.102 27.8458 85.7906 24.7121 88.743 24.0733C89.6815 23.8703 90.0228 23.8678 90.894 24.0578Z" fill="#E0EEEE"/>
<path fill-rule="evenodd" clip-rule="evenodd" d="M161.697 13.7003C158.324 14.0561 155.26 15.4866 152.768 17.8694C150.534 20.0045 149.178 22.3545 148.382 25.4694C148.18 26.2604 148.127 26.9149 148.078 29.1996L148.02 31.9705L148.357 32.2091C148.543 32.3402 150.48 33.5838 152.664 34.9725L156.633 37.4975L156.679 32.6088C156.73 27.2468 156.728 27.2623 157.504 25.7244C157.987 24.7689 159.306 23.4922 160.323 22.9967C161.114 22.6109 162.339 22.266 162.927 22.2628L163.251 22.2611V17.9173V13.5735L162.927 13.5891C162.749 13.5977 162.195 13.6477 161.697 13.7003ZM163.35 26.4581C163.396 31.1408 163.304 32.3267 162.802 33.5169C161.97 35.4896 160.074 37.0478 158.065 37.4096C157.644 37.4855 157.18 37.5694 157.034 37.5963L156.768 37.6449V41.9278V46.2106L157.446 46.2103C159.006 46.2093 161.468 45.6036 163.186 44.798C167.363 42.8401 170.337 39.2357 171.57 34.6385C171.856 33.574 171.888 33.2272 171.941 30.643L172 27.8133L168.716 25.732C166.91 24.5872 164.984 23.3644 164.437 23.0145C163.889 22.6647 163.412 22.3785 163.376 22.3785C163.34 22.3785 163.328 24.2143 163.35 26.4581Z" fill="#E0EEEE"/>
</svg>
