<svg width="200" height="60" viewBox="0 0 200 60" fill="none" xmlns="http://www.w3.org/2000/svg">
<mask id="mask0_1842_13687" style="mask-type:alpha" maskUnits="userSpaceOnUse" x="1" y="10" width="40" height="40">
<path d="M25.3477 32.0402C26.0176 32.7128 26.6875 33.4998 27.4379 34.2465C29.1858 36.0721 31.8745 36.6253 34.1967 35.6371C36.5189 34.6489 37.9929 32.3243 37.902 29.7936C37.8935 27.3822 36.4077 25.2247 34.1638 24.3653C31.9775 23.3394 29.384 23.8143 27.6991 25.5492C25.4549 27.6882 23.2777 29.9079 21.087 32.1007C19.7472 33.446 18.4074 34.8518 17.0072 36.1971C14.7192 38.655 11.2082 39.537 8.03705 38.4505C5.13009 37.5382 2.89798 35.184 2.13335 32.2239C1.36873 29.2638 2.1799 26.1171 4.27881 23.9012C7.85617 20.2218 11.4938 16.5963 15.1449 12.9842C18.608 9.67462 24.063 9.72525 27.4647 13.0985C28.2552 13.8855 29.0658 14.6389 29.8362 15.3721L17.2015 28.038C16.478 27.2644 15.7679 26.4102 14.964 25.6702C13.0338 23.741 10.0633 23.3313 7.68655 24.6664C5.30976 26.0016 4.10331 28.7577 4.73087 31.4187C5.35843 34.0797 7.66773 35.9999 10.3885 36.1231C12.1953 36.1976 13.9454 35.481 15.1851 34.159C18.7557 30.5738 22.2527 27.0155 25.8435 23.4842C27.8599 21.5013 30.7439 20.6874 33.4939 21.325C37.8486 22.1146 40.9088 26.0751 40.5883 30.5066C40.4481 32.8925 39.3828 35.1284 37.6206 36.7352C34.271 40.0626 30.9214 43.4079 27.5718 46.7711C25.9166 48.491 23.6365 49.4621 21.2545 49.4616C19.1147 49.5217 17.0342 48.7507 15.4463 47.3092C14.4884 46.4347 13.6309 45.446 12.7667 44.5648L25.3477 32.0402ZM17.2149 23.9685L25.7765 15.3855C23.8672 12.7689 19.5931 12.5133 17.0675 14.955C15.6272 16.3474 14.2271 17.7869 12.8136 19.2129L10.9244 21.1232C13.3092 21.2176 15.5644 22.2376 17.2149 23.9685ZM25.207 35.9281C25.0462 36.0357 19.6333 41.4303 16.967 44.067C16.5383 44.4908 16.7259 44.7397 17.0474 45.0558C19.445 47.3285 23.2052 47.2838 25.5487 44.9549C27.2637 43.2868 31.444 39.0289 31.3703 38.9011C29.0122 38.7401 26.8059 37.6758 25.207 35.9281Z" fill="white"/>
</mask>
<g mask="url(#mask0_1842_13687)">
<path fill-rule="evenodd" clip-rule="evenodd" d="M-1.49683 7.17017H43.9624V52.8265H-1.49683V7.17017Z" fill="#E0EEEE"/>
</g>
<mask id="mask1_1842_13687" style="mask-type:alpha" maskUnits="userSpaceOnUse" x="44" y="20" width="12" height="17">
<path d="M44.0989 34.5347L45.0234 31.3531C45.6765 31.7007 46.3663 31.9737 47.08 32.167C47.7624 32.3757 48.4703 32.4889 49.1835 32.5033C49.757 32.536 50.3286 32.4128 50.8382 32.1468C51.1938 31.9663 51.3997 31.5824 51.3541 31.1849C51.3165 30.8553 51.1348 30.5595 50.8583 30.3778C50.3042 30.0563 49.721 29.7883 49.1165 29.5773L48.661 29.4024C46.5374 28.5953 45.3717 27.2365 45.1506 25.3195C44.9044 23.9611 45.3669 22.5707 46.3766 21.6334C47.5911 20.6585 49.1264 20.1783 50.6775 20.2881C51.6132 20.2898 52.5449 20.4096 53.4509 20.6446C54.2691 20.8377 55.05 21.165 55.7621 21.6132L54.8242 24.815C53.6592 24.2181 52.3738 23.896 51.066 23.8733C50.6001 23.8377 50.1341 23.9406 49.7262 24.1693C49.4569 24.3516 49.3182 24.6749 49.3711 24.9966C49.3919 25.2545 49.5092 25.4948 49.6994 25.6693C50.0519 25.9304 50.443 26.1347 50.8583 26.2746L51.3139 26.4495C52.461 26.8347 53.5168 27.4529 54.4156 28.2657C55.0685 28.9401 55.4727 29.8181 55.5611 30.7544C55.7031 31.7317 55.5442 32.7292 55.1056 33.6132C54.66 34.4376 53.9525 35.0888 53.0959 35.4629C52.0798 35.9123 50.9766 36.1283 49.8669 36.0952C48.7802 36.1035 47.697 35.9701 46.6446 35.6984C45.7371 35.4564 44.8765 35.063 44.0989 34.5347Z" fill="white"/>
</mask>
<g mask="url(#mask1_1842_13687)">
<path fill-rule="evenodd" clip-rule="evenodd" d="M40.7498 16.9099H59.1122V39.4623H40.7498V16.9099Z" fill="#E0EEEE"/>
</g>
<mask id="mask2_1842_13687" style="mask-type:alpha" maskUnits="userSpaceOnUse" x="57" y="23" width="13" height="18">
<path d="M57.0784 40.5371L58.6862 24.1986H61.6338L61.8147 25.4026C62.2467 24.9372 62.7627 24.5583 63.3354 24.286C63.8967 24.048 64.5015 23.9311 65.1107 23.943C65.8254 23.934 66.5261 24.1427 67.1204 24.5416C67.7391 24.9601 68.2472 25.5234 68.6009 26.1829C68.9948 26.9094 69.2408 27.7074 69.3244 28.5304C69.5062 29.8549 69.3707 31.2039 68.9292 32.4653C68.5624 33.5398 67.8805 34.4777 66.973 35.1559C66.0882 35.7884 65.0243 36.1186 63.9383 36.0976C63.0451 36.1067 62.1763 35.8048 61.4797 35.2434L60.9706 40.5505L57.0784 40.5371ZM61.7678 32.4653C62.0136 32.596 62.2746 32.6954 62.5449 32.7613C62.7976 32.8187 63.0562 32.8458 63.3153 32.842C64.0346 32.8583 64.7002 32.4615 65.0303 31.8196C65.4514 30.9903 65.5924 30.0459 65.4322 29.129C65.3994 28.6006 65.2233 28.0912 64.9231 27.6559C64.6806 27.3294 64.297 27.1394 63.8914 27.1447C63.2695 27.153 62.6727 27.3927 62.2166 27.8174L61.7678 32.4653Z" fill="white"/>
</mask>
<g mask="url(#mask2_1842_13687)">
<path fill-rule="evenodd" clip-rule="evenodd" d="M53.7285 20.5779H72.7522V43.9125H53.7285V20.5779Z" fill="#E0EEEE"/>
</g>
<mask id="mask3_1842_13687" style="mask-type:alpha" maskUnits="userSpaceOnUse" x="83" y="21" width="10" height="16">
<path d="M83.6362 27.0939L83.931 24.1948H85.8403L86.758 21.1948H89.8464L89.565 24.1948H92.5528L92.2581 27.0939H89.2702L88.9219 30.7598C88.8856 31.1581 88.8856 31.5588 88.9219 31.9571C88.9373 32.2107 89.0446 32.4499 89.2233 32.6298C89.4084 32.7915 89.6481 32.8757 89.8932 32.8652C90.4666 32.8442 91.0192 32.6444 91.4743 32.2934L92.4121 34.984C91.8994 35.34 91.3278 35.6019 90.7239 35.7575C90.0549 35.9597 89.3593 36.0595 88.6606 36.0535C87.7525 36.0888 86.8623 35.7925 86.1551 35.2194C85.51 34.6771 85.0974 33.9064 85.0029 33.067C84.9424 32.4496 84.9424 31.8278 85.0029 31.2105L85.3713 27.1275L83.6362 27.0939Z" fill="white"/>
</mask>
<g mask="url(#mask3_1842_13687)">
<path fill-rule="evenodd" clip-rule="evenodd" d="M80.2878 17.8323H95.9036V39.4201H80.2878V17.8323Z" fill="#E0EEEE"/>
</g>
<mask id="mask4_1842_13687" style="mask-type:alpha" maskUnits="userSpaceOnUse" x="93" y="19" width="7" height="17">
<path d="M93.9453 35.8193L95.5464 19.4404H99.4654L97.8643 35.8193H93.9453Z" fill="white"/>
</mask>
<g mask="url(#mask4_1842_13687)">
<path fill-rule="evenodd" clip-rule="evenodd" d="M90.5981 16.0779H102.817V39.1832H90.5981V16.0779Z" fill="#E0EEEE"/>
</g>
<mask id="mask5_1842_13687" style="mask-type:alpha" maskUnits="userSpaceOnUse" x="100" y="19" width="7" height="17">
<path d="M100.644 35.8223L101.79 24.1991H105.709L104.563 35.8223H100.644ZM101.883 21.569C101.809 21.0126 102.015 20.4555 102.433 20.0825C103.306 19.33 104.573 19.2556 105.528 19.9009C105.923 20.2283 106.16 20.7096 106.179 21.2235C106.198 21.7375 105.998 22.2352 105.628 22.5914C104.755 23.3519 103.482 23.4265 102.527 22.7731C102.151 22.4823 101.917 22.0442 101.883 21.569Z" fill="white"/>
</mask>
<g mask="url(#mask5_1842_13687)">
<path fill-rule="evenodd" clip-rule="evenodd" d="M97.2942 16.0981H109.53V39.1839H97.2942V16.0981Z" fill="#E0EEEE"/>
</g>
<mask id="mask6_1842_13687" style="mask-type:alpha" maskUnits="userSpaceOnUse" x="107" y="23" width="13" height="18">
<path d="M107.603 39.8649L108.48 36.8447C109.468 37.2903 110.539 37.5196 111.622 37.5174C112.303 37.5716 112.981 37.3782 113.532 36.9725C113.993 36.5056 114.264 35.8813 114.289 35.2237V34.995C113.899 35.2875 113.464 35.5147 113.002 35.6676C112.532 35.8051 112.045 35.8731 111.555 35.8694C110.48 35.8792 109.452 35.4233 108.735 34.6183C107.927 33.727 107.437 32.5912 107.341 31.3896C107.158 30.0845 107.296 28.7543 107.743 27.5152C108.113 26.4551 108.798 25.5347 109.706 24.8784C110.591 24.2572 111.648 23.9324 112.728 23.9502C113.299 23.9452 113.864 24.0598 114.389 24.2865C114.913 24.5031 115.386 24.8286 115.776 25.2416L116.218 24.2058H119.152L118.107 34.8873C117.919 36.8739 117.305 38.3492 116.265 39.3133C115.224 40.2775 113.761 40.7595 111.877 40.7595C110.403 40.7864 108.943 40.4807 107.603 39.8649ZM111.267 30.7573C111.302 31.2606 111.484 31.7424 111.79 32.143C112.049 32.4603 112.439 32.6411 112.848 32.634C113.496 32.636 114.122 32.3963 114.603 31.9613L115.019 27.5892C114.542 27.3263 114.008 27.1853 113.465 27.1788C112.742 27.1645 112.071 27.5495 111.716 28.1811C111.281 28.9642 111.123 29.8723 111.267 30.7573Z" fill="white"/>
</mask>
<g mask="url(#mask6_1842_13687)">
<path fill-rule="evenodd" clip-rule="evenodd" d="M103.913 20.5854H122.501V44.1233H103.913V20.5854Z" fill="#E0EEEE"/>
</g>
<mask id="mask7_1842_13687" style="mask-type:alpha" maskUnits="userSpaceOnUse" x="120" y="19" width="13" height="17">
<path d="M120.805 35.8193L122.413 19.4404H126.332L125.749 25.3395C126.146 24.9163 126.619 24.5718 127.143 24.3238C127.631 24.085 128.167 23.9608 128.71 23.9606C129.539 23.9367 130.344 24.2383 130.954 24.8014C131.571 25.3642 131.954 26.1401 132.026 26.974C132.091 27.7378 132.079 28.5062 131.993 29.2678L131.323 35.8395H127.404L128.04 29.3754C128.083 28.9752 128.083 28.5715 128.04 28.1713C128.024 27.9151 127.912 27.6745 127.725 27.4987C127.527 27.3378 127.277 27.2564 127.022 27.27C126.438 27.2895 125.883 27.5297 125.468 27.9426L124.691 35.8462L120.805 35.8193Z" fill="white"/>
</mask>
<g mask="url(#mask7_1842_13687)">
<path fill-rule="evenodd" clip-rule="evenodd" d="M117.456 16.0779H135.417V39.2101H117.456V16.0779Z" fill="#E0EEEE"/>
</g>
<mask id="mask8_1842_13687" style="mask-type:alpha" maskUnits="userSpaceOnUse" x="133" y="21" width="10" height="16">
<path d="M133.587 27.0939L133.881 24.1948H135.791L136.708 21.1948H139.797L139.515 24.1948H142.503L142.209 27.0939H139.221L138.872 30.7598C138.836 31.1581 138.836 31.5588 138.872 31.9571C138.888 32.2107 138.995 32.4499 139.174 32.6298C139.359 32.7915 139.599 32.8757 139.844 32.8652C140.417 32.8442 140.97 32.6444 141.425 32.2934L142.363 34.984C141.853 35.3406 141.283 35.6026 140.681 35.7575C140.012 35.9597 139.316 36.0595 138.618 36.0535C137.71 36.0888 136.819 35.7925 136.112 35.2194C135.465 34.6783 135.05 33.9074 134.953 33.067C134.893 32.4496 134.893 31.8278 134.953 31.2105L135.322 27.1275L133.587 27.0939Z" fill="white"/>
</mask>
<g mask="url(#mask8_1842_13687)">
<path fill-rule="evenodd" clip-rule="evenodd" d="M130.237 17.8323H145.853V39.4201H130.237V17.8323Z" fill="#E0EEEE"/>
</g>
<mask id="mask9_1842_13687" style="mask-type:alpha" maskUnits="userSpaceOnUse" x="144" y="20" width="13" height="16">
<path d="M144.032 35.8213L145.539 20.5254H147.194L153.645 32.9424L154.878 20.5254H156.593L155.099 35.8213H153.411L146.979 23.4178L145.747 35.8213H144.032Z" fill="white"/>
</mask>
<g mask="url(#mask9_1842_13687)">
<path fill-rule="evenodd" clip-rule="evenodd" d="M140.682 17.1628H159.942V39.1852H140.682V17.1628Z" fill="#E0EEEE"/>
</g>
<mask id="mask10_1842_13687" style="mask-type:alpha" maskUnits="userSpaceOnUse" x="158" y="24" width="10" height="13">
<path d="M158.16 31.2749C157.999 30.0517 158.189 28.8077 158.71 27.6897C159.185 26.6507 159.948 25.7705 160.907 25.1539C161.853 24.5543 162.951 24.2414 164.069 24.2525C164.924 24.2137 165.766 24.478 166.447 24.9992C167.07 25.4943 167.464 26.2231 167.539 27.0171C167.696 28.2555 167.068 29.4611 165.965 30.0373C164.436 30.8723 162.705 31.2636 160.967 31.1673C160.571 31.1707 160.175 31.1482 159.781 31.1V31.1875C159.829 32.1446 160.219 33.0523 160.88 33.7435C161.527 34.3376 162.382 34.6497 163.258 34.6112C164.449 34.6166 165.603 34.2024 166.521 33.4408L167.037 34.7323C165.952 35.6474 164.567 36.1266 163.151 36.0776C161.892 36.1354 160.661 35.6904 159.728 34.8399C158.791 33.8823 158.234 32.615 158.16 31.2749ZM159.768 29.7749C160.116 29.7749 160.438 29.8153 160.706 29.8153C162.041 29.8848 163.376 29.6551 164.612 29.1426C165.576 28.6651 166.012 28.0395 165.951 27.2458C165.915 26.8081 165.705 26.4035 165.369 26.1225C164.981 25.8388 164.508 25.6986 164.029 25.7256C162.968 25.7127 161.948 26.1327 161.202 26.8893C160.4 27.6518 159.893 28.6736 159.768 29.7749Z" fill="white"/>
</mask>
<g mask="url(#mask10_1842_13687)">
<path fill-rule="evenodd" clip-rule="evenodd" d="M154.755 20.8838H170.913V39.444H154.755V20.8838Z" fill="#E0EEEE"/>
</g>
<mask id="mask11_1842_13687" style="mask-type:alpha" maskUnits="userSpaceOnUse" x="169" y="24" width="16" height="12">
<path d="M169.085 24.4795H170.76L172.495 33.3987L175.885 24.8965H177.366L179.128 33.3315L182.544 24.4795H184.346L179.697 35.8203H178.27L176.428 27.2979L172.984 35.8203H171.557L169.085 24.4795Z" fill="white"/>
</mask>
<g mask="url(#mask11_1842_13687)">
<path fill-rule="evenodd" clip-rule="evenodd" d="M165.737 21.1179H187.697V39.1851H165.737V21.1179Z" fill="#E0EEEE"/>
</g>
<mask id="mask12_1842_13687" style="mask-type:alpha" maskUnits="userSpaceOnUse" x="185" y="24" width="9" height="13">
<path d="M185.125 34.7715L185.526 33.5271C186.583 34.2267 187.818 34.6051 189.084 34.6168C189.749 34.6586 190.409 34.4763 190.959 34.0989C191.394 33.7819 191.612 33.245 191.522 32.7133C191.497 32.4468 191.402 32.1917 191.248 31.9733C191.062 31.7344 190.835 31.5316 190.578 31.3747C190.152 31.111 189.703 30.8859 189.238 30.702L188.642 30.4599C187.896 30.1988 187.212 29.7867 186.632 29.2491C186.212 28.7972 185.955 28.217 185.902 27.6012C185.82 26.9797 185.958 26.3492 186.29 25.8187C186.641 25.2876 187.143 24.875 187.73 24.6348C188.416 24.3491 189.153 24.2094 189.894 24.2245C191.123 24.2098 192.33 24.5507 193.371 25.2066L192.936 26.498C192.019 25.9647 190.981 25.6774 189.921 25.6639C189.26 25.6243 188.604 25.8013 188.052 26.1684C187.622 26.4706 187.401 26.9929 187.483 27.5137C187.515 27.8642 187.684 28.1878 187.952 28.4151C188.357 28.7343 188.809 28.9884 189.291 29.1684L189.894 29.4106C190.767 29.7083 191.577 30.1643 192.286 30.7559C192.76 31.2301 193.054 31.856 193.117 32.5249C193.204 33.1642 193.072 33.8143 192.741 34.368C192.408 34.9095 191.92 35.3382 191.341 35.5989C190.667 35.8995 189.935 36.0465 189.198 36.0294C188.458 36.0311 187.722 35.9222 187.014 35.7065C186.336 35.503 185.698 35.1869 185.125 34.7715Z" fill="white"/>
</mask>
<g mask="url(#mask12_1842_13687)">
<path fill-rule="evenodd" clip-rule="evenodd" d="M181.776 20.8606H196.722V39.3946H181.776V20.8606Z" fill="#E0EEEE"/>
</g>
<mask id="mask13_1842_13687" style="mask-type:alpha" maskUnits="userSpaceOnUse" x="70" y="23" width="13" height="14">
<path d="M70.52 29.9704C70.52 27.4533 72.0306 25.1841 74.3469 24.2214C76.6633 23.2588 79.3292 23.7924 81.1009 25.5732C82.8726 27.3541 83.4011 30.0314 82.4399 32.3561C81.4786 34.6809 79.217 36.1951 76.7101 36.1924C75.0672 36.1924 73.4917 35.5366 72.3307 34.3696C71.1696 33.2026 70.5182 31.62 70.52 29.9704ZM76.7101 32.809C77.8541 32.8117 78.887 32.1218 79.3267 31.0614C79.7664 30.0009 79.5261 28.7789 78.7181 27.9656C77.9102 27.1524 76.6937 26.9083 75.6365 27.3473C74.5793 27.7863 73.8897 28.8217 73.8897 29.9704C73.8897 31.5355 75.1514 32.8053 76.7101 32.809Z" fill="white"/>
</mask>
<g mask="url(#mask13_1842_13687)">
<path fill-rule="evenodd" clip-rule="evenodd" d="M67.1707 20.384H86.2633V39.5544H67.1707V20.384Z" fill="#E0EEEE"/>
</g>
<path d="M199.565 24.2283V24.259C199.565 25.6169 198.498 26.6848 197.144 26.6848H197.113C195.755 26.6848 194.688 25.6169 194.688 24.259V24.2283C194.688 22.8748 195.755 21.8069 197.113 21.8069H197.144C198.498 21.8069 199.565 22.8748 199.565 24.2283ZM199.126 24.2283C199.126 23.1165 198.256 22.2463 197.144 22.2463H197.113C195.997 22.2463 195.127 23.1165 195.127 24.2283V24.259C195.127 25.3752 195.997 26.2454 197.113 26.2454H197.144C198.256 26.2454 199.126 25.3752 199.126 24.259V24.2283ZM196.182 25.5159V22.9758H197.219C197.803 22.9758 198.146 23.2791 198.146 23.78C198.146 24.1096 197.953 24.3865 197.627 24.4963L198.225 25.5159H197.72L197.175 24.5667H196.621V25.5159H196.182ZM196.621 24.2195H197.17C197.5 24.2195 197.689 24.0525 197.689 23.7888V23.7844C197.689 23.5251 197.491 23.3582 197.166 23.3582H196.621V24.2195Z" fill="#E0EEEE"/>
</svg>
