<svg width="200" height="60" viewBox="0 0 200 60" fill="none" xmlns="http://www.w3.org/2000/svg">
<path d="M58.3885 33.7991L58.0361 33.593C56.7882 32.8631 55.2436 32.8634 53.996 33.5937L42.8502 40.1178C42.1557 40.5243 41.3706 40.7381 40.5718 40.7381C39.773 40.7381 38.9879 40.5243 38.2934 40.1178L27.1476 33.5937C25.9 32.8634 24.3554 32.8631 23.1075 33.593L22.7551 33.7991C22.412 33.9997 22.1267 34.2905 21.9281 34.6419C21.7296 34.9932 21.6249 35.3925 21.6249 35.799C21.6248 36.2056 21.7293 36.6049 21.9277 36.9563C22.1261 37.3077 22.4114 37.5986 22.7544 37.7994L37.5939 46.4858C38.5017 47.0172 39.5278 47.2966 40.5718 47.2966C41.6158 47.2966 42.6419 47.0172 43.5497 46.4858L58.3892 37.7994C58.7322 37.5986 59.0175 37.3077 59.2159 36.9563C59.4143 36.6049 59.5188 36.2056 59.5187 35.799C59.5187 35.3925 59.414 34.9932 59.2155 34.6419C59.0169 34.2905 58.7316 33.9997 58.3885 33.7991Z" fill="#E0EEEE"/>
<path d="M58.3864 22.1995L43.5489 13.5143C42.6411 12.983 41.615 12.7036 40.5711 12.7036C39.5271 12.7036 38.501 12.983 37.5932 13.5143L22.7557 22.1995C22.4126 22.4003 22.1273 22.6912 21.9288 23.0427C21.7303 23.3941 21.6257 23.7935 21.6257 24.2002C21.6257 24.6068 21.7303 25.0062 21.9288 25.3576C22.1273 25.7091 22.4126 26 22.7557 26.2009L37.5932 34.886C38.501 35.4173 39.5271 35.6967 40.5711 35.6967C41.615 35.6967 42.6411 35.4173 43.5489 34.886L58.3864 26.2009C58.7295 26 59.0148 25.7091 59.2133 25.3576C59.4118 25.0062 59.5164 24.6068 59.5164 24.2002C59.5164 23.7935 59.4118 23.3941 59.2133 23.0427C59.0148 22.6912 58.7295 22.4003 58.3864 22.1995Z" fill="#E0EEEE"/>
<path d="M74.7149 27.8376V35.0804C74.7149 36.9606 76.0308 36.9955 78.5279 36.8561V40.9302C72.4202 41.6266 70.3619 39.7812 70.3619 35.0804V27.8376H65.7395L67.4301 23.5197H70.3619V20.0029L74.7149 18.6448V23.5196H78.5279V27.8376H74.7149Z" fill="#E0EEEE"/>
<path d="M89.5278 37.3429C91.215 37.3429 92.5646 36.6117 93.307 35.6021L96.8163 37.6912C95.2304 40.0591 92.6997 41.417 89.4602 41.417C83.7913 41.417 80.2145 37.4126 80.2145 32.2243C80.2145 27.036 83.8251 23.0315 89.1227 23.0315C94.117 23.0315 97.66 27.1057 97.66 32.2243C97.6572 32.8434 97.6008 33.4611 97.4914 34.0699H84.7699C85.3772 36.3679 87.233 37.3429 89.5278 37.3429ZM93.307 30.5878C92.7671 28.0806 90.945 27.0708 89.1227 27.0708C86.7944 27.0708 85.2085 28.3592 84.7024 30.5878H93.307Z" fill="#E0EEEE"/>
<path d="M99.6849 32.2243C99.6849 27.036 103.464 23.0315 108.593 23.0315C111.9 23.0315 114.768 24.8423 116.152 27.5234L112.406 29.7868C111.731 28.3592 110.28 27.4537 108.56 27.4537C105.961 27.4537 104.038 29.4385 104.038 32.2243C104.038 34.9752 105.961 36.96 108.56 36.96C110.314 36.96 111.765 36.0895 112.44 34.6617L116.219 36.8903C114.768 39.6063 111.9 41.417 108.593 41.417C103.464 41.417 99.6849 37.4126 99.6849 32.2243Z" fill="#E0EEEE"/>
<path d="M134.272 30.2392V40.9293H129.919V30.7964C129.919 28.4284 128.535 27.2097 126.578 27.2097C124.452 27.2097 122.866 28.4981 122.866 31.5276V40.9292H118.513V16.5544H122.866V25.4686C123.879 23.9018 125.633 23.0312 127.894 23.0312C131.471 23.0312 134.272 25.608 134.272 30.2392Z" fill="#E0EEEE"/>
<path d="M153.742 30.2395V40.9296H149.389V30.7967C149.389 28.4287 148.006 27.21 146.049 27.21C143.923 27.21 142.337 28.4984 142.337 31.5279V40.9296H137.984V23.519H142.337V25.4689C143.349 23.9021 145.104 23.0315 147.365 23.0315C150.942 23.0315 153.742 25.6083 153.742 30.2395Z" fill="#E0EEEE"/>
<path d="M156.948 18.6798C156.948 17.1825 158.163 15.894 159.614 15.894C160.328 15.9026 161.01 16.1989 161.515 16.7196C162.019 17.2403 162.306 17.9439 162.313 18.6798C162.31 19.4105 162.025 20.11 161.523 20.6254C161.02 21.1408 160.34 21.4301 159.631 21.4301C158.922 21.4301 158.241 21.1408 157.739 20.6254C157.236 20.11 156.952 19.4105 156.948 18.6798ZM157.454 23.5198H161.807V40.9304H157.454V23.5198Z" fill="#E0EEEE"/>
<path d="M178.375 35.8458C178.375 39.6063 175.203 41.417 171.593 41.417C168.218 41.417 165.721 39.9546 164.506 37.2734L168.286 35.0797C168.758 36.5073 169.906 37.3429 171.593 37.3429C172.976 37.3429 173.921 36.8554 173.921 35.8458C173.921 33.3038 165.215 34.6966 165.215 28.5681C165.215 25.0163 168.151 23.0315 171.627 23.0315C174.36 23.0315 176.722 24.3199 178.038 26.7225L174.326 28.8119C173.82 27.6975 172.875 27.036 171.627 27.036C170.547 27.036 169.669 27.5234 169.669 28.4636C169.669 31.0404 178.375 29.4385 178.375 35.8458Z" fill="#E0EEEE"/>
</svg>
