<svg width="200" height="60" viewBox="0 0 200 60" fill="none" xmlns="http://www.w3.org/2000/svg">
<path d="M35.9519 33.2435V33.1812C35.9519 27.4112 39.8345 22.6704 45.3633 22.6704C51.7308 22.6704 54.6505 27.9102 54.6505 33.649C54.6505 34.1168 54.6195 34.6159 54.5884 35.1461H41.3254C41.8535 37.7348 43.5618 39.1071 45.9846 39.1071C47.7861 39.1071 49.1217 38.5145 50.6126 37.0486L53.7187 39.9492C51.9483 42.2884 49.3702 43.7231 45.9224 43.7231C40.1762 43.6919 35.9519 39.419 35.9519 33.2435ZM49.4013 31.5593C49.0596 28.9706 47.6308 27.2552 45.3633 27.2552C43.127 27.2552 41.6671 28.9394 41.2323 31.5593H49.4013Z" fill="#E0EEEE"/>
<path d="M58.1929 15.7153H63.5975V43.2242H58.1929V15.7153Z" fill="#E0EEEE"/>
<path d="M69.6543 15.7153H75.0589V43.2242H69.6543V15.7153Z" fill="#E0EEEE"/>
<path d="M79.9346 33.2435V33.1812C79.9346 27.38 84.3452 22.6704 90.2778 22.6704C96.1794 22.6704 100.559 27.3176 100.559 33.1188V33.1812C100.559 38.9824 96.1483 43.6919 90.2157 43.6919C84.3141 43.6919 79.9346 39.0447 79.9346 33.2435ZM95.2165 33.2435V33.1812C95.2165 30.2182 93.1976 27.5983 90.2157 27.5983C87.1096 27.5983 85.277 30.1246 85.277 33.0876V33.15C85.277 36.1129 87.296 38.7328 90.2778 38.7328C93.3839 38.7328 95.2165 36.2065 95.2165 33.2435Z" fill="#E0EEEE"/>
<path d="M102.732 23.0131H108.198L111.242 35.2704L114.845 22.9507H119.505L123.139 35.3016L126.276 23.0131H131.649L125.717 43.3796H120.84L117.175 30.9663L113.448 43.3796H108.602L102.732 23.0131Z" fill="#E0EEEE"/>
<path d="M136.528 37.4849V27.941H134.26V23.0132H136.528V17.8669H141.932V23.0443H146.405V27.941H141.932V36.5805C141.932 37.8904 142.46 38.5454 143.672 38.5454C144.666 38.5454 145.566 38.2959 146.343 37.828V42.4128C145.194 43.1302 143.889 43.5668 142.088 43.5668C138.764 43.5668 136.528 42.1633 136.528 37.4849Z" fill="#E0EEEE"/>
<path d="M150.659 37.4232V37.3608C150.659 32.9631 153.827 30.9047 158.331 30.9047C160.257 30.9047 161.624 31.2477 162.99 31.7468V31.4037C162.99 29.0333 161.593 27.7234 158.89 27.7234C156.84 27.7234 155.38 28.1288 153.641 28.815L152.305 24.4485C154.418 23.4816 156.468 22.8267 159.698 22.8267C162.649 22.8267 164.792 23.6688 166.127 25.0723C167.556 26.5694 168.178 28.815 168.178 31.5284V43.2556H162.959V41.0723C161.655 42.6318 159.822 43.6298 157.213 43.6298C153.61 43.5986 150.659 41.4154 150.659 37.4232ZM163.084 36.1132V35.084C162.152 34.6162 160.94 34.3355 159.636 34.3355C157.337 34.3355 155.908 35.3023 155.908 37.1113V37.1737C155.908 38.7331 157.12 39.6376 158.859 39.6376C161.375 39.6376 163.084 38.1717 163.084 36.1132Z" fill="#E0EEEE"/>
<path d="M173.678 15.7153H179.362V20.7992H173.678V15.7153ZM173.833 23.0136H179.238V43.2242H173.833V23.0136Z" fill="#E0EEEE"/>
<path d="M185.262 15.7153H190.667V43.2242H185.262V15.7153Z" fill="#E0EEEE"/>
<path d="M16.9121 28.3157L19.7386 33.0565V44.3157H25.7023V32.9317L28.4667 28.3469L16.9121 28.3157ZM32.2872 15.7153H29.3364L22.7826 27.1929L21.2296 24.4171L16.2909 15.6841H9.33325L14.831 24.8537L16.1977 27.1617H29.119L36.0766 15.6841L32.2872 15.7153Z" fill="#E0EEEE"/>
</svg>
